<svg xmlns="http://www.w3.org/2000/svg" xmlns:xlink="http://www.w3.org/1999/xlink" contentStyleType="text/css" height="1135px" preserveAspectRatio="none" style="width:2092px;height:1135px;background:#FFFFFF;" version="1.1" viewBox="0 0 2092 1135" width="2092px" zoomAndPan="magnify"><defs/><g><!--cluster Frontend--><g id="cluster_Frontend"><path d="M450.5,6 L512.1553,6 A3.75,3.75 0 0 1 514.6553,8.5 L521.6553,28.0986 L1098.5,28.0986 A2.5,2.5 0 0 1 1101,30.5986 L1101,206.5 A2.5,2.5 0 0 1 1098.5,209 L450.5,209 A2.5,2.5 0 0 1 448,206.5 L448,8.5 A2.5,2.5 0 0 1 450.5,6 " fill="none" style="stroke:#000000;stroke-width:1.5;"/><line style="stroke:#000000;stroke-width:1.5;" x1="448" x2="521.6553" y1="28.0986" y2="28.0986"/><text fill="#000000" font-family="sans-serif" font-size="14" font-weight="bold" lengthAdjust="spacing" textLength="60.6553" x="452" y="21.1318">Frontend</text></g><!--cluster Backend--><g id="cluster_Backend"><path d="M8.5,233 L67.8584,233 A3.75,3.75 0 0 1 70.3584,235.5 L77.3584,255.0986 L1548.5,255.0986 A2.5,2.5 0 0 1 1551,257.5986 L1551,1005.5 A2.5,2.5 0 0 1 1548.5,1008 L8.5,1008 A2.5,2.5 0 0 1 6,1005.5 L6,235.5 A2.5,2.5 0 0 1 8.5,233 " fill="none" style="stroke:#000000;stroke-width:1.5;"/><line style="stroke:#000000;stroke-width:1.5;" x1="6" x2="77.3584" y1="255.0986" y2="255.0986"/><text fill="#000000" font-family="sans-serif" font-size="14" font-weight="bold" lengthAdjust="spacing" textLength="58.3584" x="10" y="248.1318">Backend</text></g><!--cluster API Layer--><g id="cluster_API Layer"><path d="M247.5,276 L313.0859,276 A3.75,3.75 0 0 1 315.5859,278.5 L322.5859,298.0986 L1177.5,298.0986 A2.5,2.5 0 0 1 1180,300.5986 L1180,370.5 A2.5,2.5 0 0 1 1177.5,373 L247.5,373 A2.5,2.5 0 0 1 245,370.5 L245,278.5 A2.5,2.5 0 0 1 247.5,276 " fill="none" style="stroke:#000000;stroke-width:1.5;"/><line style="stroke:#000000;stroke-width:1.5;" x1="245" x2="322.5859" y1="298.0986" y2="298.0986"/><text fill="#000000" font-family="sans-serif" font-size="14" font-weight="bold" lengthAdjust="spacing" textLength="64.5859" x="249" y="291.1318">API Layer</text></g><!--cluster Service Layer--><g id="cluster_Service Layer"><path d="M285.5,397 L377.5684,397 A3.75,3.75 0 0 1 380.0684,399.5 L387.0684,419.0986 L947.5,419.0986 A2.5,2.5 0 0 1 950,421.5986 L950,491.5 A2.5,2.5 0 0 1 947.5,494 L285.5,494 A2.5,2.5 0 0 1 283,491.5 L283,399.5 A2.5,2.5 0 0 1 285.5,397 " fill="none" style="stroke:#000000;stroke-width:1.5;"/><line style="stroke:#000000;stroke-width:1.5;" x1="283" x2="387.0684" y1="419.0986" y2="419.0986"/><text fill="#000000" font-family="sans-serif" font-size="14" font-weight="bold" lengthAdjust="spacing" textLength="91.0684" x="287" y="412.1318">Service Layer</text></g><!--cluster Agent System--><g id="cluster_Agent System"><path d="M739.5,518 L833.8584,518 A3.75,3.75 0 0 1 836.3584,520.5 L843.3584,540.0986 L1278.5,540.0986 A2.5,2.5 0 0 1 1281,542.5986 L1281,854.5 A2.5,2.5 0 0 1 1278.5,857 L739.5,857 A2.5,2.5 0 0 1 737,854.5 L737,520.5 A2.5,2.5 0 0 1 739.5,518 " fill="none" style="stroke:#000000;stroke-width:1.5;"/><line style="stroke:#000000;stroke-width:1.5;" x1="737" x2="843.3584" y1="540.0986" y2="540.0986"/><text fill="#000000" font-family="sans-serif" font-size="14" font-weight="bold" lengthAdjust="spacing" textLength="93.3584" x="741" y="533.1318">Agent System</text></g><!--cluster Constraint Solver--><g id="cluster_Constraint Solver"><path d="M1307.5,760 L1425.1895,760 A3.75,3.75 0 0 1 1427.6895,762.5 L1434.6895,782.0986 L1524.5,782.0986 A2.5,2.5 0 0 1 1527,784.5986 L1527,981.5 A2.5,2.5 0 0 1 1524.5,984 L1307.5,984 A2.5,2.5 0 0 1 1305,981.5 L1305,762.5 A2.5,2.5 0 0 1 1307.5,760 " fill="none" style="stroke:#000000;stroke-width:1.5;"/><line style="stroke:#000000;stroke-width:1.5;" x1="1305" x2="1434.6895" y1="782.0986" y2="782.0986"/><text fill="#000000" font-family="sans-serif" font-size="14" font-weight="bold" lengthAdjust="spacing" textLength="116.6895" x="1309" y="775.1318">Constraint Solver</text></g><!--cluster Data Access Layer--><g id="cluster_Data Access Layer"><path d="M306.5,887 L432.0234,887 A3.75,3.75 0 0 1 434.5234,889.5 L441.5234,909.0986 L1046.5,909.0986 A2.5,2.5 0 0 1 1049,911.5986 L1049,981.5 A2.5,2.5 0 0 1 1046.5,984 L306.5,984 A2.5,2.5 0 0 1 304,981.5 L304,889.5 A2.5,2.5 0 0 1 306.5,887 " fill="none" style="stroke:#000000;stroke-width:1.5;"/><line style="stroke:#000000;stroke-width:1.5;" x1="304" x2="441.5234" y1="909.0986" y2="909.0986"/><text fill="#000000" font-family="sans-serif" font-size="14" font-weight="bold" lengthAdjust="spacing" textLength="124.5234" x="308" y="902.1318">Data Access Layer</text></g><!--cluster Utility Services--><g id="cluster_Utility Services"><path d="M82.5,760 L183.8857,760 A3.75,3.75 0 0 1 186.3857,762.5 L193.3857,782.0986 L660.5,782.0986 A2.5,2.5 0 0 1 663,784.5986 L663,854.5 A2.5,2.5 0 0 1 660.5,857 L82.5,857 A2.5,2.5 0 0 1 80,854.5 L80,762.5 A2.5,2.5 0 0 1 82.5,760 " fill="none" style="stroke:#000000;stroke-width:1.5;"/><line style="stroke:#000000;stroke-width:1.5;" x1="80" x2="193.3857" y1="782.0986" y2="782.0986"/><text fill="#000000" font-family="sans-serif" font-size="14" font-weight="bold" lengthAdjust="spacing" textLength="100.3857" x="84" y="775.1318">Utility Services</text></g><!--cluster Storage--><g id="cluster_Storage"><path d="M611.5,1032 L664.624,1032 A3.75,3.75 0 0 1 667.124,1034.5 L674.124,1054.0986 L825.5,1054.0986 A2.5,2.5 0 0 1 828,1056.5986 L828,1125.5 A2.5,2.5 0 0 1 825.5,1128 L611.5,1128 A2.5,2.5 0 0 1 609,1125.5 L609,1034.5 A2.5,2.5 0 0 1 611.5,1032 " fill="none" style="stroke:#000000;stroke-width:1.5;"/><line style="stroke:#000000;stroke-width:1.5;" x1="609" x2="674.124" y1="1054.0986" y2="1054.0986"/><text fill="#000000" font-family="sans-serif" font-size="14" font-weight="bold" lengthAdjust="spacing" textLength="52.124" x="613" y="1047.1318">Storage</text></g><!--cluster External Services--><g id="cluster_External Services"><path d="M1577.5,754 L1695.2441,754 A3.75,3.75 0 0 1 1697.7441,756.5 L1704.7441,776.0986 L1829.5,776.0986 A2.5,2.5 0 0 1 1832,778.5986 L1832,860.5 A2.5,2.5 0 0 1 1829.5,863 L1577.5,863 A2.5,2.5 0 0 1 1575,860.5 L1575,756.5 A2.5,2.5 0 0 1 1577.5,754 " fill="none" style="stroke:#000000;stroke-width:1.5;"/><line style="stroke:#000000;stroke-width:1.5;" x1="1575" x2="1704.7441" y1="776.0986" y2="776.0986"/><text fill="#000000" font-family="sans-serif" font-size="14" font-weight="bold" lengthAdjust="spacing" textLength="116.7441" x="1579" y="769.1318">External Services</text></g><!--entity chat_ui--><g id="elem_chat_ui"><rect fill="#F1F1F1" height="46.0986" rx="2.5" ry="2.5" style="stroke:#181818;stroke-width:0.5;" width="87.4619" x="997.5" y="41"/><rect fill="#F1F1F1" height="10" style="stroke:#181818;stroke-width:0.5;" width="15" x="1064.9619" y="46"/><rect fill="#F1F1F1" height="2" style="stroke:#181818;stroke-width:0.5;" width="4" x="1062.9619" y="48"/><rect fill="#F1F1F1" height="2" style="stroke:#181818;stroke-width:0.5;" width="4" x="1062.9619" y="52"/><text fill="#000000" font-family="sans-serif" font-size="14" lengthAdjust="spacing" textLength="47.4619" x="1012.5" y="74.1318">Chat UI</text></g><!--entity recipe_browser--><g id="elem_recipe_browser"><rect fill="#F1F1F1" height="46.0986" rx="2.5" ry="2.5" style="stroke:#181818;stroke-width:0.5;" width="138.8135" x="647.5" y="41"/><rect fill="#F1F1F1" height="10" style="stroke:#181818;stroke-width:0.5;" width="15" x="766.3135" y="46"/><rect fill="#F1F1F1" height="2" style="stroke:#181818;stroke-width:0.5;" width="4" x="764.3135" y="48"/><rect fill="#F1F1F1" height="2" style="stroke:#181818;stroke-width:0.5;" width="4" x="764.3135" y="52"/><text fill="#000000" font-family="sans-serif" font-size="14" lengthAdjust="spacing" textLength="98.8135" x="662.5" y="74.1318">Recipe Browser</text></g><!--entity plan_viewer--><g id="elem_plan_viewer"><rect fill="#F1F1F1" height="46.0986" rx="2.5" ry="2.5" style="stroke:#181818;stroke-width:0.5;" width="148.9375" x="463.5" y="41"/><rect fill="#F1F1F1" height="10" style="stroke:#181818;stroke-width:0.5;" width="15" x="592.4375" y="46"/><rect fill="#F1F1F1" height="2" style="stroke:#181818;stroke-width:0.5;" width="4" x="590.4375" y="48"/><rect fill="#F1F1F1" height="2" style="stroke:#181818;stroke-width:0.5;" width="4" x="590.4375" y="52"/><text fill="#000000" font-family="sans-serif" font-size="14" lengthAdjust="spacing" textLength="108.9375" x="478.5" y="74.1318">Meal Plan Viewer</text></g><!--entity image_uploader--><g id="elem_image_uploader"><rect fill="#F1F1F1" height="46.0986" rx="2.5" ry="2.5" style="stroke:#181818;stroke-width:0.5;" width="139.6133" x="822" y="41"/><rect fill="#F1F1F1" height="10" style="stroke:#181818;stroke-width:0.5;" width="15" x="941.6133" y="46"/><rect fill="#F1F1F1" height="2" style="stroke:#181818;stroke-width:0.5;" width="4" x="939.6133" y="48"/><rect fill="#F1F1F1" height="2" style="stroke:#181818;stroke-width:0.5;" width="4" x="939.6133" y="52"/><text fill="#000000" font-family="sans-serif" font-size="14" lengthAdjust="spacing" textLength="99.6133" x="837" y="74.1318">Image Uploader</text></g><!--entity api_client--><g id="elem_api_client"><rect fill="#F1F1F1" height="46.0986" rx="2.5" ry="2.5" style="stroke:#181818;stroke-width:0.5;" width="102.248" x="666" y="147"/><rect fill="#F1F1F1" height="10" style="stroke:#181818;stroke-width:0.5;" width="15" x="748.248" y="152"/><rect fill="#F1F1F1" height="2" style="stroke:#181818;stroke-width:0.5;" width="4" x="746.248" y="154"/><rect fill="#F1F1F1" height="2" style="stroke:#181818;stroke-width:0.5;" width="4" x="746.248" y="158"/><text fill="#000000" font-family="sans-serif" font-size="14" lengthAdjust="spacing" textLength="62.248" x="681" y="180.1318">API Client</text></g><!--entity ws_client--><g id="elem_ws_client"><rect fill="#F1F1F1" height="46.0986" rx="2.5" ry="2.5" style="stroke:#181818;stroke-width:0.5;" width="151.2686" x="933.5" y="147"/><rect fill="#F1F1F1" height="10" style="stroke:#181818;stroke-width:0.5;" width="15" x="1064.7686" y="152"/><rect fill="#F1F1F1" height="2" style="stroke:#181818;stroke-width:0.5;" width="4" x="1062.7686" y="154"/><rect fill="#F1F1F1" height="2" style="stroke:#181818;stroke-width:0.5;" width="4" x="1062.7686" y="158"/><text fill="#000000" font-family="sans-serif" font-size="14" lengthAdjust="spacing" textLength="111.2686" x="948.5" y="180.1318">WebSocket Client</text></g><!--entity recipe_api--><g id="elem_recipe_api"><rect fill="#F1F1F1" height="46.0986" rx="2.5" ry="2.5" style="stroke:#181818;stroke-width:0.5;" width="149.7373" x="261" y="311"/><rect fill="#F1F1F1" height="10" style="stroke:#181818;stroke-width:0.5;" width="15" x="390.7373" y="316"/><rect fill="#F1F1F1" height="2" style="stroke:#181818;stroke-width:0.5;" width="4" x="388.7373" y="318"/><rect fill="#F1F1F1" height="2" style="stroke:#181818;stroke-width:0.5;" width="4" x="388.7373" y="322"/><text fill="#000000" font-family="sans-serif" font-size="14" lengthAdjust="spacing" textLength="109.7373" x="276" y="344.1318">Recipe Endpoints</text></g><!--entity chat_api--><g id="elem_chat_api"><rect fill="#F1F1F1" height="46.0986" rx="2.5" ry="2.5" style="stroke:#181818;stroke-width:0.5;" width="135.7305" x="649" y="311"/><rect fill="#F1F1F1" height="10" style="stroke:#181818;stroke-width:0.5;" width="15" x="764.7305" y="316"/><rect fill="#F1F1F1" height="2" style="stroke:#181818;stroke-width:0.5;" width="4" x="762.7305" y="318"/><rect fill="#F1F1F1" height="2" style="stroke:#181818;stroke-width:0.5;" width="4" x="762.7305" y="322"/><text fill="#000000" font-family="sans-serif" font-size="14" lengthAdjust="spacing" textLength="95.7305" x="664" y="344.1318">Chat Endpoints</text></g><!--entity plan_api--><g id="elem_plan_api"><rect fill="#F1F1F1" height="46.0986" rx="2.5" ry="2.5" style="stroke:#181818;stroke-width:0.5;" width="168.4131" x="446" y="311"/><rect fill="#F1F1F1" height="10" style="stroke:#181818;stroke-width:0.5;" width="15" x="594.4131" y="316"/><rect fill="#F1F1F1" height="2" style="stroke:#181818;stroke-width:0.5;" width="4" x="592.4131" y="318"/><rect fill="#F1F1F1" height="2" style="stroke:#181818;stroke-width:0.5;" width="4" x="592.4131" y="322"/><text fill="#000000" font-family="sans-serif" font-size="14" lengthAdjust="spacing" textLength="128.4131" x="461" y="344.1318">Meal Plan Endpoints</text></g><!--entity ocr_api--><g id="elem_ocr_api"><rect fill="#F1F1F1" height="46.0986" rx="2.5" ry="2.5" style="stroke:#181818;stroke-width:0.5;" width="137.2686" x="820.5" y="311"/><rect fill="#F1F1F1" height="10" style="stroke:#181818;stroke-width:0.5;" width="15" x="937.7686" y="316"/><rect fill="#F1F1F1" height="2" style="stroke:#181818;stroke-width:0.5;" width="4" x="935.7686" y="318"/><rect fill="#F1F1F1" height="2" style="stroke:#181818;stroke-width:0.5;" width="4" x="935.7686" y="322"/><text fill="#000000" font-family="sans-serif" font-size="14" lengthAdjust="spacing" textLength="97.2686" x="835.5" y="344.1318">OCR Endpoints</text></g><!--entity ws_manager--><g id="elem_ws_manager"><rect fill="#F1F1F1" height="46.0986" rx="2.5" ry="2.5" style="stroke:#181818;stroke-width:0.5;" width="170.7305" x="992.5" y="311"/><rect fill="#F1F1F1" height="10" style="stroke:#181818;stroke-width:0.5;" width="15" x="1143.2305" y="316"/><rect fill="#F1F1F1" height="2" style="stroke:#181818;stroke-width:0.5;" width="4" x="1141.2305" y="318"/><rect fill="#F1F1F1" height="2" style="stroke:#181818;stroke-width:0.5;" width="4" x="1141.2305" y="322"/><text fill="#000000" font-family="sans-serif" font-size="14" lengthAdjust="spacing" textLength="130.7305" x="1007.5" y="344.1318">WebSocket Manager</text></g><!--entity recipe_service--><g id="elem_recipe_service"><rect fill="#F1F1F1" height="46.0986" rx="2.5" ry="2.5" style="stroke:#181818;stroke-width:0.5;" width="134.1514" x="299" y="432"/><rect fill="#F1F1F1" height="10" style="stroke:#181818;stroke-width:0.5;" width="15" x="413.1514" y="437"/><rect fill="#F1F1F1" height="2" style="stroke:#181818;stroke-width:0.5;" width="4" x="411.1514" y="439"/><rect fill="#F1F1F1" height="2" style="stroke:#181818;stroke-width:0.5;" width="4" x="411.1514" y="443"/><text fill="#000000" font-family="sans-serif" font-size="14" lengthAdjust="spacing" textLength="94.1514" x="314" y="465.1318">Recipe Service</text></g><!--entity ocr_service--><g id="elem_ocr_service"><rect fill="#F1F1F1" height="46.0986" rx="2.5" ry="2.5" style="stroke:#181818;stroke-width:0.5;" width="121.6826" x="812" y="432"/><rect fill="#F1F1F1" height="10" style="stroke:#181818;stroke-width:0.5;" width="15" x="913.6826" y="437"/><rect fill="#F1F1F1" height="2" style="stroke:#181818;stroke-width:0.5;" width="4" x="911.6826" y="439"/><rect fill="#F1F1F1" height="2" style="stroke:#181818;stroke-width:0.5;" width="4" x="911.6826" y="443"/><text fill="#000000" font-family="sans-serif" font-size="14" lengthAdjust="spacing" textLength="81.6826" x="827" y="465.1318">OCR Service</text></g><!--entity chat_service--><g id="elem_chat_service"><rect fill="#F1F1F1" height="46.0986" rx="2.5" ry="2.5" style="stroke:#181818;stroke-width:0.5;" width="120.1445" x="657" y="432"/><rect fill="#F1F1F1" height="10" style="stroke:#181818;stroke-width:0.5;" width="15" x="757.1445" y="437"/><rect fill="#F1F1F1" height="2" style="stroke:#181818;stroke-width:0.5;" width="4" x="755.1445" y="439"/><rect fill="#F1F1F1" height="2" style="stroke:#181818;stroke-width:0.5;" width="4" x="755.1445" y="443"/><text fill="#000000" font-family="sans-serif" font-size="14" lengthAdjust="spacing" textLength="80.1445" x="672" y="465.1318">Chat Service</text></g><!--entity plan_service--><g id="elem_plan_service"><rect fill="#F1F1F1" height="46.0986" rx="2.5" ry="2.5" style="stroke:#181818;stroke-width:0.5;" width="152.8271" x="468.5" y="432"/><rect fill="#F1F1F1" height="10" style="stroke:#181818;stroke-width:0.5;" width="15" x="601.3271" y="437"/><rect fill="#F1F1F1" height="2" style="stroke:#181818;stroke-width:0.5;" width="4" x="599.3271" y="439"/><rect fill="#F1F1F1" height="2" style="stroke:#181818;stroke-width:0.5;" width="4" x="599.3271" y="443"/><text fill="#000000" font-family="sans-serif" font-size="14" lengthAdjust="spacing" textLength="112.8271" x="483.5" y="465.1318">Meal Plan Service</text></g><!--entity langgraph--><g id="elem_langgraph"><rect fill="#F1F1F1" height="46.0986" rx="2.5" ry="2.5" style="stroke:#181818;stroke-width:0.5;" width="174.6338" x="842.5" y="553"/><rect fill="#F1F1F1" height="10" style="stroke:#181818;stroke-width:0.5;" width="15" x="997.1338" y="558"/><rect fill="#F1F1F1" height="2" style="stroke:#181818;stroke-width:0.5;" width="4" x="995.1338" y="560"/><rect fill="#F1F1F1" height="2" style="stroke:#181818;stroke-width:0.5;" width="4" x="995.1338" y="564"/><text fill="#000000" font-family="sans-serif" font-size="14" lengthAdjust="spacing" textLength="134.6338" x="857.5" y="586.1318">LangGraph Controller</text></g><!--entity qa_node--><g id="elem_qa_node"><rect fill="#F1F1F1" height="46.0986" rx="2.5" ry="2.5" style="stroke:#181818;stroke-width:0.5;" width="145.0547" x="1119.5" y="671"/><rect fill="#F1F1F1" height="10" style="stroke:#181818;stroke-width:0.5;" width="15" x="1244.5547" y="676"/><rect fill="#F1F1F1" height="2" style="stroke:#181818;stroke-width:0.5;" width="4" x="1242.5547" y="678"/><rect fill="#F1F1F1" height="2" style="stroke:#181818;stroke-width:0.5;" width="4" x="1242.5547" y="682"/><text fill="#000000" font-family="sans-serif" font-size="14" lengthAdjust="spacing" textLength="105.0547" x="1134.5" y="704.1318">Recipe QA Node</text></g><!--entity planning_node--><g id="elem_planning_node"><rect fill="#F1F1F1" height="46.0986" rx="2.5" ry="2.5" style="stroke:#181818;stroke-width:0.5;" width="166.082" x="753" y="671"/><rect fill="#F1F1F1" height="10" style="stroke:#181818;stroke-width:0.5;" width="15" x="899.082" y="676"/><rect fill="#F1F1F1" height="2" style="stroke:#181818;stroke-width:0.5;" width="4" x="897.082" y="678"/><rect fill="#F1F1F1" height="2" style="stroke:#181818;stroke-width:0.5;" width="4" x="897.082" y="682"/><text fill="#000000" font-family="sans-serif" font-size="14" lengthAdjust="spacing" textLength="126.082" x="768" y="704.1318">Meal Planning Node</text></g><!--entity approval_loop--><g id="elem_approval_loop"><rect fill="#F1F1F1" height="46.0986" rx="2.5" ry="2.5" style="stroke:#181818;stroke-width:0.5;" width="130.2891" x="954" y="671"/><rect fill="#F1F1F1" height="10" style="stroke:#181818;stroke-width:0.5;" width="15" x="1064.2891" y="676"/><rect fill="#F1F1F1" height="2" style="stroke:#181818;stroke-width:0.5;" width="4" x="1062.2891" y="678"/><rect fill="#F1F1F1" height="2" style="stroke:#181818;stroke-width:0.5;" width="4" x="1062.2891" y="682"/><text fill="#000000" font-family="sans-serif" font-size="14" lengthAdjust="spacing" textLength="90.2891" x="969" y="704.1318">Approval Loop</text></g><!--entity rag_system--><g id="elem_rag_system"><rect fill="#F1F1F1" height="46.0986" rx="2.5" ry="2.5" style="stroke:#181818;stroke-width:0.5;" width="120.9033" x="943.5" y="795"/><rect fill="#F1F1F1" height="10" style="stroke:#181818;stroke-width:0.5;" width="15" x="1044.4033" y="800"/><rect fill="#F1F1F1" height="2" style="stroke:#181818;stroke-width:0.5;" width="4" x="1042.4033" y="802"/><rect fill="#F1F1F1" height="2" style="stroke:#181818;stroke-width:0.5;" width="4" x="1042.4033" y="806"/><text fill="#000000" font-family="sans-serif" font-size="14" lengthAdjust="spacing" textLength="80.9033" x="958.5" y="828.1318">RAG System</text></g><!--entity optimizer--><g id="elem_optimizer"><rect fill="#F1F1F1" height="46.0986" rx="2.5" ry="2.5" style="stroke:#181818;stroke-width:0.5;" width="190.1514" x="1321" y="795"/><rect fill="#F1F1F1" height="10" style="stroke:#181818;stroke-width:0.5;" width="15" x="1491.1514" y="800"/><rect fill="#F1F1F1" height="2" style="stroke:#181818;stroke-width:0.5;" width="4" x="1489.1514" y="802"/><rect fill="#F1F1F1" height="2" style="stroke:#181818;stroke-width:0.5;" width="4" x="1489.1514" y="806"/><text fill="#000000" font-family="sans-serif" font-size="14" lengthAdjust="spacing" textLength="150.1514" x="1336" y="828.1318">Nutrient/Effort Optimizer</text></g><!--entity solver--><g id="elem_solver"><rect fill="#F1F1F1" height="46.0986" rx="2.5" ry="2.5" style="stroke:#181818;stroke-width:0.5;" width="185.5166" x="1323" y="922"/><rect fill="#F1F1F1" height="10" style="stroke:#181818;stroke-width:0.5;" width="15" x="1488.5166" y="927"/><rect fill="#F1F1F1" height="2" style="stroke:#181818;stroke-width:0.5;" width="4" x="1486.5166" y="929"/><rect fill="#F1F1F1" height="2" style="stroke:#181818;stroke-width:0.5;" width="4" x="1486.5166" y="933"/><text fill="#000000" font-family="sans-serif" font-size="14" lengthAdjust="spacing" textLength="145.5166" x="1338" y="955.1318">OR-Tools/PuLP Engine</text></g><!--entity recipe_repo--><g id="elem_recipe_repo"><rect fill="#F1F1F1" height="46.0986" rx="2.5" ry="2.5" style="stroke:#181818;stroke-width:0.5;" width="154.3857" x="682" y="922"/><rect fill="#F1F1F1" height="10" style="stroke:#181818;stroke-width:0.5;" width="15" x="816.3857" y="927"/><rect fill="#F1F1F1" height="2" style="stroke:#181818;stroke-width:0.5;" width="4" x="814.3857" y="929"/><rect fill="#F1F1F1" height="2" style="stroke:#181818;stroke-width:0.5;" width="4" x="814.3857" y="933"/><text fill="#000000" font-family="sans-serif" font-size="14" lengthAdjust="spacing" textLength="114.3857" x="697" y="955.1318">Recipe Repository</text></g><!--entity plan_repo--><g id="elem_plan_repo"><rect fill="#F1F1F1" height="46.0986" rx="2.5" ry="2.5" style="stroke:#181818;stroke-width:0.5;" width="173.0615" x="320.5" y="922"/><rect fill="#F1F1F1" height="10" style="stroke:#181818;stroke-width:0.5;" width="15" x="473.5615" y="927"/><rect fill="#F1F1F1" height="2" style="stroke:#181818;stroke-width:0.5;" width="4" x="471.5615" y="929"/><rect fill="#F1F1F1" height="2" style="stroke:#181818;stroke-width:0.5;" width="4" x="471.5615" y="933"/><text fill="#000000" font-family="sans-serif" font-size="14" lengthAdjust="spacing" textLength="133.0615" x="335.5" y="955.1318">Meal Plan Repository</text></g><!--entity session_repo--><g id="elem_session_repo"><rect fill="#F1F1F1" height="46.0986" rx="2.5" ry="2.5" style="stroke:#181818;stroke-width:0.5;" width="160.6133" x="871.5" y="922"/><rect fill="#F1F1F1" height="10" style="stroke:#181818;stroke-width:0.5;" width="15" x="1012.1133" y="927"/><rect fill="#F1F1F1" height="2" style="stroke:#181818;stroke-width:0.5;" width="4" x="1010.1133" y="929"/><rect fill="#F1F1F1" height="2" style="stroke:#181818;stroke-width:0.5;" width="4" x="1010.1133" y="933"/><text fill="#000000" font-family="sans-serif" font-size="14" lengthAdjust="spacing" textLength="120.6133" x="886.5" y="955.1318">Session Repository</text></g><!--entity vector_store--><g id="elem_vector_store"><rect fill="#F1F1F1" height="46.0986" rx="2.5" ry="2.5" style="stroke:#181818;stroke-width:0.5;" width="117.8135" x="529" y="922"/><rect fill="#F1F1F1" height="10" style="stroke:#181818;stroke-width:0.5;" width="15" x="626.8135" y="927"/><rect fill="#F1F1F1" height="2" style="stroke:#181818;stroke-width:0.5;" width="4" x="624.8135" y="929"/><rect fill="#F1F1F1" height="2" style="stroke:#181818;stroke-width:0.5;" width="4" x="624.8135" y="933"/><text fill="#000000" font-family="sans-serif" font-size="14" lengthAdjust="spacing" textLength="77.8135" x="544" y="955.1318">Vector Store</text></g><!--entity parser--><g id="elem_parser"><rect fill="#F1F1F1" height="46.0986" rx="2.5" ry="2.5" style="stroke:#181818;stroke-width:0.5;" width="128.7031" x="96.5" y="795"/><rect fill="#F1F1F1" height="10" style="stroke:#181818;stroke-width:0.5;" width="15" x="205.2031" y="800"/><rect fill="#F1F1F1" height="2" style="stroke:#181818;stroke-width:0.5;" width="4" x="203.2031" y="802"/><rect fill="#F1F1F1" height="2" style="stroke:#181818;stroke-width:0.5;" width="4" x="203.2031" y="806"/><text fill="#000000" font-family="sans-serif" font-size="14" lengthAdjust="spacing" textLength="88.7031" x="111.5" y="828.1318">Recipe Parser</text></g><!--entity nutrition_calc--><g id="elem_nutrition_calc"><rect fill="#F1F1F1" height="46.0986" rx="2.5" ry="2.5" style="stroke:#181818;stroke-width:0.5;" width="159.0479" x="488.5" y="795"/><rect fill="#F1F1F1" height="10" style="stroke:#181818;stroke-width:0.5;" width="15" x="627.5479" y="800"/><rect fill="#F1F1F1" height="2" style="stroke:#181818;stroke-width:0.5;" width="4" x="625.5479" y="802"/><rect fill="#F1F1F1" height="2" style="stroke:#181818;stroke-width:0.5;" width="4" x="625.5479" y="806"/><text fill="#000000" font-family="sans-serif" font-size="14" lengthAdjust="spacing" textLength="119.0479" x="503.5" y="828.1318">Nutrition Calculator</text></g><!--entity shopping_list--><g id="elem_shopping_list"><rect fill="#F1F1F1" height="46.0986" rx="2.5" ry="2.5" style="stroke:#181818;stroke-width:0.5;" width="191.7646" x="261" y="795"/><rect fill="#F1F1F1" height="10" style="stroke:#181818;stroke-width:0.5;" width="15" x="432.7646" y="800"/><rect fill="#F1F1F1" height="2" style="stroke:#181818;stroke-width:0.5;" width="4" x="430.7646" y="802"/><rect fill="#F1F1F1" height="2" style="stroke:#181818;stroke-width:0.5;" width="4" x="430.7646" y="806"/><text fill="#000000" font-family="sans-serif" font-size="14" lengthAdjust="spacing" textLength="151.7646" x="276" y="828.1318">Shopping List Generator</text></g><!--entity postgres--><g id="elem_postgres"><path d="M625,1077 C625,1067 673.1309,1067 673.1309,1067 C673.1309,1067 721.2617,1067 721.2617,1077 L721.2617,1102.0986 C721.2617,1112.0986 673.1309,1112.0986 673.1309,1112.0986 C673.1309,1112.0986 625,1112.0986 625,1102.0986 L625,1077 " fill="#F1F1F1" style="stroke:#181818;stroke-width:0.5;"/><path d="M625,1077 C625,1087 673.1309,1087 673.1309,1087 C673.1309,1087 721.2617,1087 721.2617,1077 " fill="none" style="stroke:#181818;stroke-width:0.5;"/><text fill="#000000" font-family="sans-serif" font-size="14" lengthAdjust="spacing" textLength="76.2617" x="635" y="1104.1318">PostgreSQL</text></g><!--entity redis--><g id="elem_redis"><path d="M756,1077 C756,1067 783.8965,1067 783.8965,1067 C783.8965,1067 811.793,1067 811.793,1077 L811.793,1102.0986 C811.793,1112.0986 783.8965,1112.0986 783.8965,1112.0986 C783.8965,1112.0986 756,1112.0986 756,1102.0986 L756,1077 " fill="#F1F1F1" style="stroke:#181818;stroke-width:0.5;"/><path d="M756,1077 C756,1087 783.8965,1087 783.8965,1087 C783.8965,1087 811.793,1087 811.793,1077 " fill="none" style="stroke:#181818;stroke-width:0.5;"/><text fill="#000000" font-family="sans-serif" font-size="14" lengthAdjust="spacing" textLength="35.793" x="766" y="1104.1318">Redis</text></g><!--entity google_ocr--><g id="elem_google_ocr"><ellipse cx="1755" cy="818" fill="#F1F1F1" rx="8" ry="8" style="stroke:#181818;stroke-width:0.5;"/><text fill="#000000" font-family="sans-serif" font-size="14" lengthAdjust="spacing" textLength="106.5996" x="1701.7002" y="848.1318">Google OCR API</text></g><!--entity llm_api--><g id="elem_llm_api"><ellipse cx="1625" cy="818" fill="#F1F1F1" rx="8" ry="8" style="stroke:#181818;stroke-width:0.5;"/><text fill="#000000" font-family="sans-serif" font-size="14" lengthAdjust="spacing" textLength="53.6895" x="1598.1553" y="848.1318">LLM API</text></g><g id="elem_GMN83"><path d="M1120,44 L1120,83.8975 L1302.1353,83.8975 L1302.1353,54 L1292.1353,44 L1120,44 " fill="#FEFFDD" style="stroke:#181818;stroke-width:0.5;"/><path d="M1292.1353,44 L1292.1353,54 L1302.1353,54 L1292.1353,44 " fill="#FEFFDD" style="stroke:#181818;stroke-width:1.0;"/><text fill="#000000" font-family="sans-serif" font-size="13" lengthAdjust="spacing" textLength="161.1353" x="1126" y="61.1938">User uploads recipe images</text><text fill="#000000" font-family="sans-serif" font-size="13" lengthAdjust="spacing" textLength="98.2808" x="1126" y="76.1426">for bulk ingestion</text></g><g id="elem_GMN86"><path d="M1337.5,44 L1337.5,83.8975 L1548.5361,83.8975 L1548.5361,54 L1538.5361,44 L1337.5,44 " fill="#FEFFDD" style="stroke:#181818;stroke-width:0.5;"/><path d="M1538.5361,44 L1538.5361,54 L1548.5361,54 L1538.5361,44 " fill="#FEFFDD" style="stroke:#181818;stroke-width:1.0;"/><text fill="#000000" font-family="sans-serif" font-size="13" lengthAdjust="spacing" textLength="190.0361" x="1343.5" y="61.1938">User chats to request meal plans</text><text fill="#000000" font-family="sans-serif" font-size="13" lengthAdjust="spacing" textLength="187.1733" x="1343.5" y="76.1426">and approve/modify suggestions</text></g><g id="elem_GMN89"><path d="M1567.5,435 L1567.5,451 L934.04,455 L1567.5,459 L1567.5,474.8975 A0,0 0 0 0 1567.5,474.8975 L1742.4243,474.8975 A0,0 0 0 0 1742.4243,474.8975 L1742.4243,445 L1732.4243,435 L1567.5,435 A0,0 0 0 0 1567.5,435 " fill="#FEFFDD" style="stroke:#181818;stroke-width:0.5;"/><path d="M1732.4243,435 L1732.4243,445 L1742.4243,445 L1732.4243,435 " fill="#FEFFDD" style="stroke:#181818;stroke-width:0.5;"/><text fill="#000000" font-family="sans-serif" font-size="13" lengthAdjust="spacing" textLength="146.6499" x="1573.5" y="452.1938">Extracts text from images</text><text fill="#000000" font-family="sans-serif" font-size="13" lengthAdjust="spacing" textLength="153.9243" x="1573.5" y="467.1426">and sends to recipe parser</text></g><g id="elem_GMN92"><path d="M1782,659 L1782,728.7949 L1972.1016,728.7949 L1972.1016,669 L1962.1016,659 L1782,659 " fill="#FEFFDD" style="stroke:#181818;stroke-width:0.5;"/><path d="M1962.1016,659 L1962.1016,669 L1972.1016,669 L1962.1016,659 " fill="#FEFFDD" style="stroke:#181818;stroke-width:1.0;"/><text fill="#000000" font-family="sans-serif" font-size="13" lengthAdjust="spacing" textLength="169.1016" x="1788" y="676.1938">Creates meal plans based on</text><text fill="#000000" font-family="sans-serif" font-size="13" lengthAdjust="spacing" textLength="139.458" x="1788" y="691.1426">nutritional requirements,</text><text fill="#000000" font-family="sans-serif" font-size="13" lengthAdjust="spacing" textLength="143.0635" x="1788" y="706.0913">cooking time constraints,</text><text fill="#000000" font-family="sans-serif" font-size="13" lengthAdjust="spacing" textLength="109.8398" x="1788" y="721.04">and recipe recency</text></g><g id="elem_GMN95"><path d="M1567.5,674 L1567.5,713.8975 L1746.7407,713.8975 L1746.7407,684 L1736.7407,674 L1567.5,674 " fill="#FEFFDD" style="stroke:#181818;stroke-width:0.5;"/><path d="M1736.7407,674 L1736.7407,684 L1746.7407,684 L1736.7407,674 " fill="#FEFFDD" style="stroke:#181818;stroke-width:1.0;"/><text fill="#000000" font-family="sans-serif" font-size="13" lengthAdjust="spacing" textLength="158.2407" x="1573.5" y="691.1938">Iteratively refines meal plan</text><text fill="#000000" font-family="sans-serif" font-size="13" lengthAdjust="spacing" textLength="109.8398" x="1573.5" y="706.1426">until user approves</text></g><g id="elem_GMN98"><path d="M1851,798 L1851,837.8975 L2085.1924,837.8975 L2085.1924,808 L2075.1924,798 L1851,798 " fill="#FEFFDD" style="stroke:#181818;stroke-width:0.5;"/><path d="M2075.1924,798 L2075.1924,808 L2085.1924,808 L2075.1924,798 " fill="#FEFFDD" style="stroke:#181818;stroke-width:1.0;"/><text fill="#000000" font-family="sans-serif" font-size="13" lengthAdjust="spacing" textLength="213.1924" x="1857" y="815.1938">Generates consolidated shopping list</text><text fill="#000000" font-family="sans-serif" font-size="13" lengthAdjust="spacing" textLength="142.3589" x="1857" y="830.1426">grouped by grocery aisle</text></g><!--link chat_ui to api_client--><g id="link_chat_ui_api_client"><path d="M1026.5,87.01 C1026.5,97.23 1026.5,107 1026.5,107 C1026.5,107 734,107 734,107 C734,107 734,122.92 734,140.9 " fill="none" id="chat_ui-to-api_client" style="stroke:#181818;stroke-width:1.0;"/><polygon fill="#181818" points="734,146.9,738,137.9,734,141.9,730,137.9,734,146.9" style="stroke:#181818;stroke-width:1.0;"/></g><!--link chat_ui to ws_client--><g id="link_chat_ui_ws_client"><path d="M1055.5,87 C1055.5,104.66 1055.5,122.94 1055.5,140.68 " fill="none" id="chat_ui-to-ws_client" style="stroke:#181818;stroke-width:1.0;"/><polygon fill="#181818" points="1055.5,146.68,1059.5,137.68,1055.5,141.68,1051.5,137.68,1055.5,146.68" style="stroke:#181818;stroke-width:1.0;"/></g><!--link recipe_browser to api_client--><g id="link_recipe_browser_api_client"><path d="M700,87 C700,104.66 700,122.94 700,140.68 " fill="none" id="recipe_browser-to-api_client" style="stroke:#181818;stroke-width:1.0;"/><polygon fill="#181818" points="700,146.68,704,137.68,700,141.68,696,137.68,700,146.68" style="stroke:#181818;stroke-width:1.0;"/></g><!--link plan_viewer to api_client--><g id="link_plan_viewer_api_client"><path d="M562.83,87.48 C562.83,115.62 562.83,159 562.83,159 C562.83,159 614.82,159 659.66,159 " fill="none" id="plan_viewer-to-api_client" style="stroke:#181818;stroke-width:1.0;"/><polygon fill="#181818" points="665.66,159,656.66,155,660.66,159,656.66,163,665.66,159" style="stroke:#181818;stroke-width:1.0;"/></g><!--link image_uploader to api_client--><g id="link_image_uploader_api_client"><path d="M896.33,87.21 C896.33,116.47 896.33,163 896.33,163 C896.33,163 827.38,163 774.39,163 " fill="none" id="image_uploader-to-api_client" style="stroke:#181818;stroke-width:1.0;"/><polygon fill="#181818" points="768.39,163,777.39,167,773.39,163,777.39,159,768.39,163" style="stroke:#181818;stroke-width:1.0;"/></g><!--link api_client to recipe_api--><g id="link_api_client_recipe_api"><path d="M665.62,170 C561.62,170 336,170 336,170 C336,170 336,259.64 336,304.85 " fill="none" id="api_client-to-recipe_api" style="stroke:#181818;stroke-width:1.0;"/><polygon fill="#181818" points="336,310.85,340,301.85,336,305.85,332,301.85,336,310.85" style="stroke:#181818;stroke-width:1.0;"/></g><!--link api_client to chat_api--><g id="link_api_client_chat_api"><path d="M717,193.15 C717,224.41 717,273.77 717,304.97 " fill="none" id="api_client-to-chat_api" style="stroke:#181818;stroke-width:1.0;"/><polygon fill="#181818" points="717,310.97,721,301.97,717,305.97,713,301.97,717,310.97" style="stroke:#181818;stroke-width:1.0;"/></g><!--link api_client to plan_api--><g id="link_api_client_plan_api"><path d="M665.83,182 C605.45,182 513.17,182 513.17,182 C513.17,182 513.17,262.39 513.17,304.91 " fill="none" id="api_client-to-plan_api" style="stroke:#181818;stroke-width:1.0;"/><polygon fill="#181818" points="513.17,310.91,517.17,301.91,513.17,305.91,509.17,301.91,513.17,310.91" style="stroke:#181818;stroke-width:1.0;"/></g><!--link api_client to ocr_api--><g id="link_api_client_ocr_api"><path d="M768.33,178 C809.05,178 859.17,178 859.17,178 C859.17,178 859.17,261.59 859.17,304.98 " fill="none" id="api_client-to-ocr_api" style="stroke:#181818;stroke-width:1.0;"/><polygon fill="#181818" points="859.17,310.98,863.17,301.98,859.17,305.98,855.17,301.98,859.17,310.98" style="stroke:#181818;stroke-width:1.0;"/></g><!--link ws_client to ws_manager--><g id="link_ws_client_ws_manager"><path d="M1038.5,193.15 C1038.5,224.41 1038.5,273.77 1038.5,304.97 " fill="none" id="ws_client-to-ws_manager" style="stroke:#181818;stroke-width:1.0;"/><polygon fill="#181818" points="1038.5,310.97,1042.5,301.97,1038.5,305.97,1034.5,301.97,1038.5,310.97" style="stroke:#181818;stroke-width:1.0;"/></g><!--link recipe_api to recipe_service--><g id="link_recipe_api_recipe_service"><path d="M355,357.04 C355,378.44 355,404.13 355,425.63 " fill="none" id="recipe_api-to-recipe_service" style="stroke:#181818;stroke-width:1.0;"/><polygon fill="#181818" points="355,431.63,359,422.63,355,426.63,351,422.63,355,431.63" style="stroke:#181818;stroke-width:1.0;"/></g><!--link chat_api to chat_service--><g id="link_chat_api_chat_service"><path d="M697,357.04 C697,378.44 697,404.13 697,425.63 " fill="none" id="chat_api-to-chat_service" style="stroke:#181818;stroke-width:1.0;"/><polygon fill="#181818" points="697,431.63,701,422.63,697,426.63,693,422.63,697,431.63" style="stroke:#181818;stroke-width:1.0;"/></g><!--link plan_api to plan_service--><g id="link_plan_api_plan_service"><path d="M541.25,357.04 C541.25,378.44 541.25,404.13 541.25,425.63 " fill="none" id="plan_api-to-plan_service" style="stroke:#181818;stroke-width:1.0;"/><polygon fill="#181818" points="541.25,431.63,545.25,422.63,541.25,426.63,537.25,422.63,541.25,431.63" style="stroke:#181818;stroke-width:1.0;"/></g><!--link ocr_api to ocr_service--><g id="link_ocr_api_ocr_service"><path d="M877.25,357.04 C877.25,378.44 877.25,404.13 877.25,425.63 " fill="none" id="ocr_api-to-ocr_service" style="stroke:#181818;stroke-width:1.0;"/><polygon fill="#181818" points="877.25,431.63,881.25,422.63,877.25,426.63,873.25,422.63,877.25,431.63" style="stroke:#181818;stroke-width:1.0;"/></g><!--link ws_manager to chat_service--><g id="link_ws_manager_chat_service"><path d="M1005,357.06 C1005,374.34 1005,395 1005,395 C1005,395 737,395 737,395 C737,395 737,409.05 737,425.97 " fill="none" id="ws_manager-to-chat_service" style="stroke:#181818;stroke-width:1.0;"/><polygon fill="#181818" points="737,431.97,741,422.97,737,426.97,733,422.97,737,431.97" style="stroke:#181818;stroke-width:1.0;"/></g><!--link recipe_service to recipe_repo--><g id="link_recipe_service_recipe_repo"><path d="M366,478.1 C366,499.48 366,528 366,528 C366,528 717.5,528 717.5,528 C717.5,528 717.5,828.57 717.5,915.99 " fill="none" id="recipe_service-to-recipe_repo" style="stroke:#181818;stroke-width:1.0;"/><polygon fill="#181818" points="717.5,921.99,721.5,912.99,717.5,916.99,713.5,912.99,717.5,921.99" style="stroke:#181818;stroke-width:1.0;"/></g><!--link plan_service to plan_repo--><g id="link_plan_service_plan_repo"><path d="M478.5,478.3 C478.5,560.94 478.5,833.43 478.5,915.84 " fill="none" id="plan_service-to-plan_repo" style="stroke:#181818;stroke-width:1.0;"/><polygon fill="#181818" points="478.5,921.84,482.5,912.84,478.5,916.84,474.5,912.84,478.5,921.84" style="stroke:#181818;stroke-width:1.0;"/></g><!--link chat_service to session_repo--><g id="link_chat_service_session_repo"><path d="M761,478.11 C761,525.44 761,629 761,629 C761,629 931.25,629 931.25,629 C931.25,629 931.25,842.79 931.25,915.76 " fill="none" id="chat_service-to-session_repo" style="stroke:#181818;stroke-width:1.0;"/><polygon fill="#181818" points="931.25,921.76,935.25,912.76,931.25,916.76,927.25,912.76,931.25,921.76" style="stroke:#181818;stroke-width:1.0;"/></g><!--link recipe_service to vector_store--><g id="link_recipe_service_vector_store"><path d="M433.09,448 C448.65,448 460.75,448 460.75,448 C460.75,448 460.75,897 460.75,897 C460.75,897 588,897 588,897 C588,897 588,903.57 588,915.84 " fill="none" id="recipe_service-to-vector_store" style="stroke:#181818;stroke-width:1.0;"/><polygon fill="#181818" points="588,921.84,592,912.84,588,916.84,584,912.84,588,921.84" style="stroke:#181818;stroke-width:1.0;"/></g><!--link recipe_repo to postgres--><g id="link_recipe_repo_postgres"><path d="M701.5,968.22 C701.5,995.34 701.5,1033.92 701.5,1060.82 " fill="none" id="recipe_repo-to-postgres" style="stroke:#181818;stroke-width:1.0;"/><polygon fill="#181818" points="701.5,1066.82,705.5,1057.82,701.5,1061.82,697.5,1057.82,701.5,1066.82" style="stroke:#181818;stroke-width:1.0;"/></g><!--link plan_repo to postgres--><g id="link_plan_repo_postgres"><path d="M407,968.3 C407,1009.28 407,1090 407,1090 C407,1090 542.18,1090 618.83,1090 " fill="none" id="plan_repo-to-postgres" style="stroke:#181818;stroke-width:1.0;"/><polygon fill="#181818" points="624.83,1090,615.83,1086,619.83,1090,615.83,1094,624.83,1090" style="stroke:#181818;stroke-width:1.0;"/></g><!--link vector_store to postgres--><g id="link_vector_store_postgres"><path d="M636,968.22 C636,995.34 636,1033.92 636,1060.82 " fill="none" id="vector_store-to-postgres" style="stroke:#181818;stroke-width:1.0;"/><polygon fill="#181818" points="636,1066.82,640,1057.82,636,1061.82,632,1057.82,636,1066.82" style="stroke:#181818;stroke-width:1.0;"/></g><!--link session_repo to redis--><g id="link_session_repo_redis"><path d="M952,968.3 C952,1009.28 952,1090 952,1090 C952,1090 865.94,1090 818.12,1090 " fill="none" id="session_repo-to-redis" style="stroke:#181818;stroke-width:1.0;"/><polygon fill="#181818" points="812.12,1090,821.12,1094,817.12,1090,821.12,1086,812.12,1090" style="stroke:#181818;stroke-width:1.0;"/></g><!--link chat_service to langgraph--><g id="link_chat_service_langgraph"><path d="M769,478.04 C769,513.15 769,576 769,576 C769,576 798.67,576 836.43,576 " fill="none" id="chat_service-to-langgraph" style="stroke:#181818;stroke-width:1.0;"/><polygon fill="#181818" points="842.43,576,833.43,572,837.43,576,833.43,580,842.43,576" style="stroke:#181818;stroke-width:1.0;"/></g><!--link langgraph to qa_node--><g id="link_langgraph_qa_node"><path d="M1017.55,576 C1075.74,576 1141.5,576 1141.5,576 C1141.5,576 1141.5,630.63 1141.5,664.97 " fill="none" id="langgraph-to-qa_node" style="stroke:#181818;stroke-width:1.0;"/><polygon fill="#181818" points="1141.5,670.97,1145.5,661.97,1141.5,665.97,1137.5,661.97,1141.5,670.97" style="stroke:#181818;stroke-width:1.0;"/></g><!--link langgraph to planning_node--><g id="link_langgraph_planning_node"><path d="M880.75,599.03 C880.75,619.69 880.75,643.86 880.75,664.62 " fill="none" id="langgraph-to-planning_node" style="stroke:#181818;stroke-width:1.0;"/><polygon fill="#181818" points="880.75,670.62,884.75,661.62,880.75,665.62,876.75,661.62,880.75,670.62" style="stroke:#181818;stroke-width:1.0;"/></g><!--link langgraph to approval_loop--><g id="link_langgraph_approval_loop"><path d="M985.75,599.03 C985.75,619.69 985.75,643.86 985.75,664.62 " fill="none" id="langgraph-to-approval_loop" style="stroke:#181818;stroke-width:1.0;"/><polygon fill="#181818" points="985.75,670.62,989.75,661.62,985.75,665.62,981.75,661.62,985.75,670.62" style="stroke:#181818;stroke-width:1.0;"/></g><!--link qa_node to rag_system--><g id="link_qa_node_rag_system"><path d="M1192,717.03 C1192,752.89 1192,818 1192,818 C1192,818 1125.48,818 1070.52,818 " fill="none" id="qa_node-to-rag_system" style="stroke:#181818;stroke-width:1.0;"/><polygon fill="#181818" points="1064.52,818,1073.52,822,1069.52,818,1073.52,814,1064.52,818" style="stroke:#181818;stroke-width:1.0;"/></g><!--link rag_system to vector_store--><g id="link_rag_system_vector_store"><path d="M943.42,818 C847.03,818 669.5,818 669.5,818 C669.5,818 669.5,945 669.5,945 C669.5,945 665.87,945 653.23,945 " fill="none" id="rag_system-to-vector_store" style="stroke:#181818;stroke-width:1.0;"/><polygon fill="#181818" points="647.23,945,656.23,949,652.23,945,656.23,941,647.23,945" style="stroke:#181818;stroke-width:1.0;"/></g><!--link planning_node to optimizer--><g id="link_planning_node_optimizer"><path d="M883.38,717.28 C883.38,722.74 883.38,727 883.38,727 C883.38,727 1329.25,727 1329.25,727 C1329.25,727 1329.25,761.6 1329.25,788.57 " fill="none" id="planning_node-to-optimizer" style="stroke:#181818;stroke-width:1.0;"/><polygon fill="#181818" points="1329.25,794.57,1333.25,785.57,1329.25,789.57,1325.25,785.57,1329.25,794.57" style="stroke:#181818;stroke-width:1.0;"/></g><!--link optimizer to solver--><g id="link_optimizer_solver"><path d="M1447,841.29 C1447,864.21 1447,892.99 1447,915.85 " fill="none" id="optimizer-to-solver" style="stroke:#181818;stroke-width:1.0;"/><polygon fill="#181818" points="1447,921.85,1451,912.85,1447,916.85,1443,912.85,1447,921.85" style="stroke:#181818;stroke-width:1.0;"/></g><!--link optimizer to recipe_repo--><g id="link_optimizer_recipe_repo"><path d="M1385,841.21 C1385,855.85 1385,872 1385,872 C1385,872 794.5,872 794.5,872 C794.5,872 794.5,894.52 794.5,915.9 " fill="none" id="optimizer-to-recipe_repo" style="stroke:#181818;stroke-width:1.0;"/><polygon fill="#181818" points="794.5,921.9,798.5,912.9,794.5,916.9,790.5,912.9,794.5,921.9" style="stroke:#181818;stroke-width:1.0;"/></g><!--link recipe_service to parser--><g id="link_recipe_service_parser"><path d="M298.88,455 C239.09,455 161,455 161,455 C161,455 161,708.62 161,788.74 " fill="none" id="recipe_service-to-parser" style="stroke:#181818;stroke-width:1.0;"/><polygon fill="#181818" points="161,794.74,165,785.74,161,789.74,157,785.74,161,794.74" style="stroke:#181818;stroke-width:1.0;"/></g><!--link planning_node to nutrition_calc--><g id="link_planning_node_nutrition_calc"><path d="M752.88,694 C697.37,694 634.5,694 634.5,694 C634.5,694 634.5,753.11 634.5,788.97 " fill="none" id="planning_node-to-nutrition_calc" style="stroke:#181818;stroke-width:1.0;"/><polygon fill="#181818" points="634.5,794.97,638.5,785.97,634.5,789.97,630.5,785.97,634.5,794.97" style="stroke:#181818;stroke-width:1.0;"/></g><!--link plan_service to shopping_list--><g id="link_plan_service_shopping_list"><path d="M468.36,463 C456.63,463 448.33,463 448.33,463 C448.33,463 448.33,710.31 448.33,788.98 " fill="none" id="plan_service-to-shopping_list" style="stroke:#181818;stroke-width:1.0;"/><polygon fill="#181818" points="448.33,794.98,452.33,785.98,448.33,789.98,444.33,785.98,448.33,794.98" style="stroke:#181818;stroke-width:1.0;"/></g><!--link ocr_service to google_ocr--><g id="link_ocr_service_google_ocr"><path d="M888.25,478.16 C888.25,490.43 888.25,503 888.25,503 C888.25,503 1764.25,503 1764.25,503 C1764.25,503 1764.25,807.1 1764.25,811.94 " fill="none" id="ocr_service-to-google_ocr" style="stroke:#181818;stroke-width:1.0;"/><polygon fill="#181818" points="1764.25,817.94,1768.25,808.94,1764.25,812.94,1760.25,808.94,1764.25,817.94" style="stroke:#181818;stroke-width:1.0;"/></g><!--link qa_node to llm_api--><g id="link_qa_node_llm_api"><path d="M1264.87,694 C1364.16,694 1529.75,694 1529.75,694 C1529.75,694 1529.75,818 1529.75,818 C1529.75,818 1586.03,818 1609.87,818 " fill="none" id="qa_node-to-llm_api" style="stroke:#181818;stroke-width:1.0;"/><polygon fill="#181818" points="1615.87,818,1606.87,814,1610.87,818,1606.87,822,1615.87,818" style="stroke:#181818;stroke-width:1.0;"/></g><!--link planning_node to llm_api--><g id="link_planning_node_llm_api"><path d="M895.25,717.18 C895.25,721.66 895.25,725 895.25,725 C895.25,725 1625,725 1625,725 C1625,725 1625,779.22 1625,802.74 " fill="none" id="planning_node-to-llm_api" style="stroke:#181818;stroke-width:1.0;"/><polygon fill="#181818" points="1625,808.74,1629,799.74,1625,803.74,1621,799.74,1625,808.74" style="stroke:#181818;stroke-width:1.0;"/></g><!--link image_uploader to GMN83--><g id="link_image_uploader_GMN83"><path d="M947.75,87.1 C947.75,105.08 947.75,127 947.75,127 C947.75,127 1141.75,127 1141.75,127 C1141.75,127 1141.75,102.7 1141.75,84.28 " fill="none" id="image_uploader-GMN83" style="stroke:#181818;stroke-width:1.0;stroke-dasharray:7.0,7.0;"/></g><!--link chat_ui to GMN86--><g id="link_chat_ui_GMN86"><path d="M1041,40.63 C1041,31.42 1041,23 1041,23 C1041,23 1443,23 1443,23 C1443,23 1443,33.57 1443,43.98 " fill="none" id="chat_ui-GMN86" style="stroke:#181818;stroke-width:1.0;stroke-dasharray:7.0,7.0;"/></g><!--link planning_node to GMN92--><g id="link_planning_node_GMN92"><path d="M907.12,717.12 C907.12,720.02 907.12,722 907.12,722 C907.12,722 1537.43,722 1781.79,722 " fill="none" id="planning_node-GMN92" style="stroke:#181818;stroke-width:1.0;stroke-dasharray:7.0,7.0;"/></g><!--link approval_loop to GMN95--><g id="link_approval_loop_GMN95"><path d="M1074.25,717.22 C1074.25,718.93 1074.25,720 1074.25,720 C1074.25,720 1579.25,720 1579.25,720 C1579.25,720 1579.25,717.59 1579.25,714.23 " fill="none" id="approval_loop-GMN95" style="stroke:#181818;stroke-width:1.0;stroke-dasharray:7.0,7.0;"/></g><!--link shopping_list to GMN98--><g id="link_shopping_list_GMN98"><path d="M450.67,794.68 C450.67,778.19 450.67,759 450.67,759 C450.67,759 1911.5,759 1911.5,759 C1911.5,759 1911.5,780.63 1911.5,797.7 " fill="none" id="shopping_list-GMN98" style="stroke:#181818;stroke-width:1.0;stroke-dasharray:7.0,7.0;"/></g><!--SRC=[ZLVDRkCs4BxxARY-zD8WG1-WWEDu0mEEuxMJxL6WPLecJ95QadBMBVhk7LAa-6F9tJraoVdZDwFXVFIN0pbIJj3yxNNpjbwitr4fwaPmmlNaYzCzpzvdJxFT0XsmndkiIAzPhjyNsw-p-G9Hheayuf9C9kfCUOCbhaEedRuoWjgQ_H5f6KJGruOW8VL9J2ODBi-u8cZwLGg8nWzJzCy4mR-0RJe_OOq-bbE45IfXNRGqDzcIaaBG9oa-5P7MKbfHiUz4kSChmGnj6EReEoMVpgM1VN6n-zn-MHkK7mqJ-E2igH4LhHFb3hFD4iqPXJfOOzpGehJRtF0lij-9yanqRFwflFM_KOsUO16Lg9URirRuQd1rck7gBFYX4V3DL5mV03RaOckUEjZIZvY7SgO-jg8ZFc_pRMOjIZbc7AhqYZaaBNsPwcvhVQ1MILrsH5veINwbDiuqhepgH6FGOmy3_8wvBMPiRqjvno6KC_QonOozydnd5NGCsbsL9lL8kYlCgnU9cnEQmtsJWZ5NIeXTLKPnfqZVPcWj3XsO7xZWiBwBdbDU1O_6IKRzPaqZnGLyLq8qxjPqaeA1P13OxANFrtmvN1NARWVh0oahBJ4rHHBiCjeJwrPBS_aU5ySZp2dqrcXQqxzTfOJV3NR6zk5T2AOUD-rg0-rTmRopNieUE0Zh6IOicfKbKUfNMdLB6g6e5l8QTwi4wVrMolniDurvxG0B5JS-gXEFkdqd9TYY7VpfihvOGQ6CO33t3qqPrLVVv-f-wXii_NXlx7Bqwsc3VevPsJ8CXriNxXL52Oh1j4-YQKpJhgZIw8Lm8djlvNG50vtB9HxE9cbO-0Hw_fnkXDAL9BjlgmvujrMPrPOSg1_Ci4f2Btu2ptBuZdcL0XLFNuIeW6xDP08wi84gAofWEEN6gzLhRyLOROSk7FWRyYmCBCuvV3iebfeupaKF3t_6F1QB0r-bj9lxH0oRgr8wpRM0hMUv15omiIuHgsMQdhuoUKzHcToJKP-QJzGp3a1A22Q15N34iFpmzbW2CA_nQ08qht5uUcnU7X3THeiWQX5TvY6epYU6Qwzv32AWighuBAjAviD0t6GS0BW84U1xTY_D8NGcOdUwlpuzZ5GS7v5gOd0kItFHJ6T5l7dR-N42WINxbPLxDaobAUEbkfJQd7y7Av1OMDwMBmdUTKLFJ93J3TSbYVMctMVhk2aLnZq0yVoW_f_ESMFv5bmsV6-wAXslS60_zBnLWZzS0EiTZRgub7wstSBn6ZZ8qk-HYKzq8AgKj357JBZG14bQdJGInzkt_eSPRjtUKt1dPEOwF1hGlcLd-8440XlEp5GJSf853hzdR4IpLUOkIFAZ1LTK6_esy4rS346wlY6FjJZGunMfjd97gD4pqjSfr5NYqfn2VcfqbA8EmCq12i8u23OhzqN7WkUlkhaaM1CL0KVcJXyG5065BW2bIP5AKiFTKx-3hXJYRBWNcj1-RDU-LcU0EJpm7-7bTHHG_cPSQaFYz4BO5NpDBzW87EXR3fsDMbDzLzlnIkPl0FT2W8W6hs0KVYn3gjuCERDAYhO1-VvgbYM1SOUfOYISyny0]--></g></svg>