<svg xmlns="http://www.w3.org/2000/svg" xmlns:xlink="http://www.w3.org/1999/xlink" contentStyleType="text/css" height="1503px" preserveAspectRatio="none" style="width:2124px;height:1503px;background:#FFFFFF;" version="1.1" viewBox="0 0 2124 1503" width="2124px" zoomAndPan="magnify"><defs/><g><!--cluster Frontend--><g id="cluster_Frontend"><path d="M804.5,6 L866.1553,6 A3.75,3.75 0 0 1 868.6553,8.5 L875.6553,28.0986 L1497.5,28.0986 A2.5,2.5 0 0 1 1500,30.5986 L1500,296.5 A2.5,2.5 0 0 1 1497.5,299 L804.5,299 A2.5,2.5 0 0 1 802,296.5 L802,8.5 A2.5,2.5 0 0 1 804.5,6 " fill="none" style="stroke:#000000;stroke-width:1.5;"/><line style="stroke:#000000;stroke-width:1.5;" x1="802" x2="875.6553" y1="28.0986" y2="28.0986"/><text fill="#000000" font-family="sans-serif" font-size="14" font-weight="bold" lengthAdjust="spacing" textLength="60.6553" x="806" y="21.1318">Frontend</text></g><!--cluster Backend--><g id="cluster_Backend"><path d="M8.5,355 L67.8584,355 A3.75,3.75 0 0 1 70.3584,357.5 L77.3584,377.0986 L1543.5,377.0986 A2.5,2.5 0 0 1 1546,379.5986 L1546,1179.5 A2.5,2.5 0 0 1 1543.5,1182 L8.5,1182 A2.5,2.5 0 0 1 6,1179.5 L6,357.5 A2.5,2.5 0 0 1 8.5,355 " fill="none" style="stroke:#000000;stroke-width:1.5;"/><line style="stroke:#000000;stroke-width:1.5;" x1="6" x2="77.3584" y1="377.0986" y2="377.0986"/><text fill="#000000" font-family="sans-serif" font-size="14" font-weight="bold" lengthAdjust="spacing" textLength="58.3584" x="10" y="370.1318">Backend</text></g><!--cluster API Layer--><g id="cluster_API Layer"><path d="M1105.5,398 L1171.0859,398 A3.75,3.75 0 0 1 1173.5859,400.5 L1180.5859,420.0986 L1254.5,420.0986 A2.5,2.5 0 0 1 1257,422.5986 L1257,492.5 A2.5,2.5 0 0 1 1254.5,495 L1105.5,495 A2.5,2.5 0 0 1 1103,492.5 L1103,400.5 A2.5,2.5 0 0 1 1105.5,398 " fill="none" style="stroke:#000000;stroke-width:1.5;"/><line style="stroke:#000000;stroke-width:1.5;" x1="1103" x2="1180.5859" y1="420.0986" y2="420.0986"/><text fill="#000000" font-family="sans-serif" font-size="14" font-weight="bold" lengthAdjust="spacing" textLength="64.5859" x="1107" y="413.1318">API Layer</text></g><!--cluster Service Layer--><g id="cluster_Service Layer"><path d="M996.5,594 L1088.5684,594 A3.75,3.75 0 0 1 1091.0684,596.5 L1098.0684,616.0986 L1519.5,616.0986 A2.5,2.5 0 0 1 1522,618.5986 L1522,919 A2.5,2.5 0 0 1 1519.5,921.5 L996.5,921.5 A2.5,2.5 0 0 1 994,919 L994,596.5 A2.5,2.5 0 0 1 996.5,594 " fill="none" style="stroke:#000000;stroke-width:1.5;"/><line style="stroke:#000000;stroke-width:1.5;" x1="994" x2="1098.0684" y1="616.0986" y2="616.0986"/><text fill="#000000" font-family="sans-serif" font-size="14" font-weight="bold" lengthAdjust="spacing" textLength="91.0684" x="998" y="609.1318">Service Layer</text></g><!--cluster Agent System--><g id="cluster_Agent System"><path d="M352.5,398 L446.8584,398 A3.75,3.75 0 0 1 449.3584,400.5 L456.3584,420.0986 L921.5,420.0986 A2.5,2.5 0 0 1 924,422.5986 L924,919 A2.5,2.5 0 0 1 921.5,921.5 L352.5,921.5 A2.5,2.5 0 0 1 350,919 L350,400.5 A2.5,2.5 0 0 1 352.5,398 " fill="none" style="stroke:#000000;stroke-width:1.5;"/><line style="stroke:#000000;stroke-width:1.5;" x1="350" x2="456.3584" y1="420.0986" y2="420.0986"/><text fill="#000000" font-family="sans-serif" font-size="14" font-weight="bold" lengthAdjust="spacing" textLength="93.3584" x="354" y="413.1318">Agent System</text></g><!--cluster Constraint Solver--><g id="cluster_Constraint Solver"><path d="M32.5,824.5 L150.1895,824.5 A3.75,3.75 0 0 1 152.6895,827 L159.6895,846.5986 L249.5,846.5986 A2.5,2.5 0 0 1 252,849.0986 L252,1155.5 A2.5,2.5 0 0 1 249.5,1158 L32.5,1158 A2.5,2.5 0 0 1 30,1155.5 L30,827 A2.5,2.5 0 0 1 32.5,824.5 " fill="none" style="stroke:#000000;stroke-width:1.5;"/><line style="stroke:#000000;stroke-width:1.5;" x1="30" x2="159.6895" y1="846.5986" y2="846.5986"/><text fill="#000000" font-family="sans-serif" font-size="14" font-weight="bold" lengthAdjust="spacing" textLength="116.6895" x="34" y="839.6318">Constraint Solver</text></g><!--cluster Data Access Layer--><g id="cluster_Data Access Layer"><path d="M278.5,1061 L404.0234,1061 A3.75,3.75 0 0 1 406.5234,1063.5 L413.5234,1083.0986 L1062.5,1083.0986 A2.5,2.5 0 0 1 1065,1085.5986 L1065,1155.5 A2.5,2.5 0 0 1 1062.5,1158 L278.5,1158 A2.5,2.5 0 0 1 276,1155.5 L276,1063.5 A2.5,2.5 0 0 1 278.5,1061 " fill="none" style="stroke:#000000;stroke-width:1.5;"/><line style="stroke:#000000;stroke-width:1.5;" x1="276" x2="413.5234" y1="1083.0986" y2="1083.0986"/><text fill="#000000" font-family="sans-serif" font-size="14" font-weight="bold" lengthAdjust="spacing" textLength="124.5234" x="280" y="1076.1318">Data Access Layer</text></g><!--cluster Utility Services--><g id="cluster_Utility Services"><path d="M1091.5,1061 L1192.8857,1061 A3.75,3.75 0 0 1 1195.3857,1063.5 L1202.3857,1083.0986 L1519.5,1083.0986 A2.5,2.5 0 0 1 1522,1085.5986 L1522,1155.5 A2.5,2.5 0 0 1 1519.5,1158 L1091.5,1158 A2.5,2.5 0 0 1 1089,1155.5 L1089,1063.5 A2.5,2.5 0 0 1 1091.5,1061 " fill="none" style="stroke:#000000;stroke-width:1.5;"/><line style="stroke:#000000;stroke-width:1.5;" x1="1089" x2="1202.3857" y1="1083.0986" y2="1083.0986"/><text fill="#000000" font-family="sans-serif" font-size="14" font-weight="bold" lengthAdjust="spacing" textLength="100.3857" x="1093" y="1076.1318">Utility Services</text></g><!--cluster Storage--><g id="cluster_Storage"><path d="M591.5,1263 L644.624,1263 A3.75,3.75 0 0 1 647.124,1265.5 L654.124,1285.0986 L820.5,1285.0986 A2.5,2.5 0 0 1 823,1287.5986 L823,1356.5 A2.5,2.5 0 0 1 820.5,1359 L591.5,1359 A2.5,2.5 0 0 1 589,1356.5 L589,1265.5 A2.5,2.5 0 0 1 591.5,1263 " fill="none" style="stroke:#000000;stroke-width:1.5;"/><line style="stroke:#000000;stroke-width:1.5;" x1="589" x2="654.124" y1="1285.0986" y2="1285.0986"/><text fill="#000000" font-family="sans-serif" font-size="14" font-weight="bold" lengthAdjust="spacing" textLength="52.124" x="593" y="1278.1318">Storage</text></g><!--cluster External Services--><g id="cluster_External Services"><path d="M1847.5,1055 L1965.2441,1055 A3.75,3.75 0 0 1 1967.7441,1057.5 L1974.7441,1077.0986 L2114.5,1077.0986 A2.5,2.5 0 0 1 2117,1079.5986 L2117,1161.5 A2.5,2.5 0 0 1 2114.5,1164 L1847.5,1164 A2.5,2.5 0 0 1 1845,1161.5 L1845,1057.5 A2.5,2.5 0 0 1 1847.5,1055 " fill="none" style="stroke:#000000;stroke-width:1.5;"/><line style="stroke:#000000;stroke-width:1.5;" x1="1845" x2="1974.7441" y1="1077.0986" y2="1077.0986"/><text fill="#000000" font-family="sans-serif" font-size="14" font-weight="bold" lengthAdjust="spacing" textLength="116.7441" x="1849" y="1070.1318">External Services</text></g><!--entity chat_ui--><g id="elem_chat_ui"><rect fill="#F1F1F1" height="46.0986" rx="2.5" ry="2.5" style="stroke:#181818;stroke-width:0.5;" width="87.4619" x="1396.5" y="41"/><rect fill="#F1F1F1" height="10" style="stroke:#181818;stroke-width:0.5;" width="15" x="1463.9619" y="46"/><rect fill="#F1F1F1" height="2" style="stroke:#181818;stroke-width:0.5;" width="4" x="1461.9619" y="48"/><rect fill="#F1F1F1" height="2" style="stroke:#181818;stroke-width:0.5;" width="4" x="1461.9619" y="52"/><text fill="#000000" font-family="sans-serif" font-size="14" lengthAdjust="spacing" textLength="47.4619" x="1411.5" y="74.1318">Chat UI</text></g><!--entity recipe_browser--><g id="elem_recipe_browser"><rect fill="#F1F1F1" height="46.0986" rx="2.5" ry="2.5" style="stroke:#181818;stroke-width:0.5;" width="138.8135" x="1207.5" y="41"/><rect fill="#F1F1F1" height="10" style="stroke:#181818;stroke-width:0.5;" width="15" x="1326.3135" y="46"/><rect fill="#F1F1F1" height="2" style="stroke:#181818;stroke-width:0.5;" width="4" x="1324.3135" y="48"/><rect fill="#F1F1F1" height="2" style="stroke:#181818;stroke-width:0.5;" width="4" x="1324.3135" y="52"/><text fill="#000000" font-family="sans-serif" font-size="14" lengthAdjust="spacing" textLength="98.8135" x="1222.5" y="74.1318">Recipe Browser</text></g><!--entity plan_viewer--><g id="elem_plan_viewer"><rect fill="#F1F1F1" height="46.0986" rx="2.5" ry="2.5" style="stroke:#181818;stroke-width:0.5;" width="148.9375" x="1008.5" y="41"/><rect fill="#F1F1F1" height="10" style="stroke:#181818;stroke-width:0.5;" width="15" x="1137.4375" y="46"/><rect fill="#F1F1F1" height="2" style="stroke:#181818;stroke-width:0.5;" width="4" x="1135.4375" y="48"/><rect fill="#F1F1F1" height="2" style="stroke:#181818;stroke-width:0.5;" width="4" x="1135.4375" y="52"/><text fill="#000000" font-family="sans-serif" font-size="14" lengthAdjust="spacing" textLength="108.9375" x="1023.5" y="74.1318">Meal Plan Viewer</text></g><!--entity image_uploader--><g id="elem_image_uploader"><rect fill="#F1F1F1" height="46.0986" rx="2.5" ry="2.5" style="stroke:#181818;stroke-width:0.5;" width="139.6133" x="818" y="41"/><rect fill="#F1F1F1" height="10" style="stroke:#181818;stroke-width:0.5;" width="15" x="937.6133" y="46"/><rect fill="#F1F1F1" height="2" style="stroke:#181818;stroke-width:0.5;" width="4" x="935.6133" y="48"/><rect fill="#F1F1F1" height="2" style="stroke:#181818;stroke-width:0.5;" width="4" x="935.6133" y="52"/><text fill="#000000" font-family="sans-serif" font-size="14" lengthAdjust="spacing" textLength="99.6133" x="833" y="74.1318">Image Uploader</text></g><!--entity api_client--><g id="elem_api_client"><rect fill="#F1F1F1" height="46.0986" rx="2.5" ry="2.5" style="stroke:#181818;stroke-width:0.5;" width="102.248" x="1129" y="237"/><rect fill="#F1F1F1" height="10" style="stroke:#181818;stroke-width:0.5;" width="15" x="1211.248" y="242"/><rect fill="#F1F1F1" height="2" style="stroke:#181818;stroke-width:0.5;" width="4" x="1209.248" y="244"/><rect fill="#F1F1F1" height="2" style="stroke:#181818;stroke-width:0.5;" width="4" x="1209.248" y="248"/><text fill="#000000" font-family="sans-serif" font-size="14" lengthAdjust="spacing" textLength="62.248" x="1144" y="270.1318">API Client</text></g><!--entity api_gateway--><g id="elem_api_gateway"><rect fill="#F1F1F1" height="46.0986" rx="2.5" ry="2.5" style="stroke:#181818;stroke-width:0.5;" width="121.7031" x="1119" y="433"/><rect fill="#F1F1F1" height="10" style="stroke:#181818;stroke-width:0.5;" width="15" x="1220.7031" y="438"/><rect fill="#F1F1F1" height="2" style="stroke:#181818;stroke-width:0.5;" width="4" x="1218.7031" y="440"/><rect fill="#F1F1F1" height="2" style="stroke:#181818;stroke-width:0.5;" width="4" x="1218.7031" y="444"/><text fill="#000000" font-family="sans-serif" font-size="14" lengthAdjust="spacing" textLength="81.7031" x="1134" y="466.1318">API Gateway</text></g><!--entity recipe_service--><g id="elem_recipe_service"><rect fill="#F1F1F1" height="46.0986" rx="2.5" ry="2.5" style="stroke:#181818;stroke-width:0.5;" width="134.1514" x="1010" y="859.5"/><rect fill="#F1F1F1" height="10" style="stroke:#181818;stroke-width:0.5;" width="15" x="1124.1514" y="864.5"/><rect fill="#F1F1F1" height="2" style="stroke:#181818;stroke-width:0.5;" width="4" x="1122.1514" y="866.5"/><rect fill="#F1F1F1" height="2" style="stroke:#181818;stroke-width:0.5;" width="4" x="1122.1514" y="870.5"/><text fill="#000000" font-family="sans-serif" font-size="14" lengthAdjust="spacing" textLength="94.1514" x="1025" y="892.6318">Recipe Service</text></g><!--entity ocr_service--><g id="elem_ocr_service"><rect fill="#F1F1F1" height="46.0986" rx="2.5" ry="2.5" style="stroke:#181818;stroke-width:0.5;" width="121.6826" x="1384" y="629"/><rect fill="#F1F1F1" height="10" style="stroke:#181818;stroke-width:0.5;" width="15" x="1485.6826" y="634"/><rect fill="#F1F1F1" height="2" style="stroke:#181818;stroke-width:0.5;" width="4" x="1483.6826" y="636"/><rect fill="#F1F1F1" height="2" style="stroke:#181818;stroke-width:0.5;" width="4" x="1483.6826" y="640"/><text fill="#000000" font-family="sans-serif" font-size="14" lengthAdjust="spacing" textLength="81.6826" x="1399" y="662.1318">OCR Service</text></g><!--entity chat_service--><g id="elem_chat_service"><rect fill="#F1F1F1" height="46.0986" rx="2.5" ry="2.5" style="stroke:#181818;stroke-width:0.5;" width="120.1445" x="1214" y="629"/><rect fill="#F1F1F1" height="10" style="stroke:#181818;stroke-width:0.5;" width="15" x="1314.1445" y="634"/><rect fill="#F1F1F1" height="2" style="stroke:#181818;stroke-width:0.5;" width="4" x="1312.1445" y="636"/><rect fill="#F1F1F1" height="2" style="stroke:#181818;stroke-width:0.5;" width="4" x="1312.1445" y="640"/><text fill="#000000" font-family="sans-serif" font-size="14" lengthAdjust="spacing" textLength="80.1445" x="1229" y="662.1318">Chat Service</text></g><!--entity plan_service--><g id="elem_plan_service"><rect fill="#F1F1F1" height="46.0986" rx="2.5" ry="2.5" style="stroke:#181818;stroke-width:0.5;" width="152.8271" x="1010.5" y="629"/><rect fill="#F1F1F1" height="10" style="stroke:#181818;stroke-width:0.5;" width="15" x="1143.3271" y="634"/><rect fill="#F1F1F1" height="2" style="stroke:#181818;stroke-width:0.5;" width="4" x="1141.3271" y="636"/><rect fill="#F1F1F1" height="2" style="stroke:#181818;stroke-width:0.5;" width="4" x="1141.3271" y="640"/><text fill="#000000" font-family="sans-serif" font-size="14" lengthAdjust="spacing" textLength="112.8271" x="1025.5" y="662.1318">Meal Plan Service</text></g><!--entity langgraph--><g id="elem_langgraph"><rect fill="#F1F1F1" height="46.0986" rx="2.5" ry="2.5" style="stroke:#181818;stroke-width:0.5;" width="174.6338" x="649.5" y="433"/><rect fill="#F1F1F1" height="10" style="stroke:#181818;stroke-width:0.5;" width="15" x="804.1338" y="438"/><rect fill="#F1F1F1" height="2" style="stroke:#181818;stroke-width:0.5;" width="4" x="802.1338" y="440"/><rect fill="#F1F1F1" height="2" style="stroke:#181818;stroke-width:0.5;" width="4" x="802.1338" y="444"/><text fill="#000000" font-family="sans-serif" font-size="14" lengthAdjust="spacing" textLength="134.6338" x="664.5" y="466.1318">LangGraph Controller</text></g><!--entity qa_node--><g id="elem_qa_node"><rect fill="#F1F1F1" height="46.0986" rx="2.5" ry="2.5" style="stroke:#181818;stroke-width:0.5;" width="145.0547" x="582.5" y="629"/><rect fill="#F1F1F1" height="10" style="stroke:#181818;stroke-width:0.5;" width="15" x="707.5547" y="634"/><rect fill="#F1F1F1" height="2" style="stroke:#181818;stroke-width:0.5;" width="4" x="705.5547" y="636"/><rect fill="#F1F1F1" height="2" style="stroke:#181818;stroke-width:0.5;" width="4" x="705.5547" y="640"/><text fill="#000000" font-family="sans-serif" font-size="14" lengthAdjust="spacing" textLength="105.0547" x="597.5" y="662.1318">Recipe QA Node</text></g><!--entity planning_node--><g id="elem_planning_node"><rect fill="#F1F1F1" height="46.0986" rx="2.5" ry="2.5" style="stroke:#181818;stroke-width:0.5;" width="166.082" x="366" y="629"/><rect fill="#F1F1F1" height="10" style="stroke:#181818;stroke-width:0.5;" width="15" x="512.082" y="634"/><rect fill="#F1F1F1" height="2" style="stroke:#181818;stroke-width:0.5;" width="4" x="510.082" y="636"/><rect fill="#F1F1F1" height="2" style="stroke:#181818;stroke-width:0.5;" width="4" x="510.082" y="640"/><text fill="#000000" font-family="sans-serif" font-size="14" lengthAdjust="spacing" textLength="126.082" x="381" y="662.1318">Meal Planning Node</text></g><!--entity approval_loop--><g id="elem_approval_loop"><rect fill="#F1F1F1" height="46.0986" rx="2.5" ry="2.5" style="stroke:#181818;stroke-width:0.5;" width="130.2891" x="778" y="629"/><rect fill="#F1F1F1" height="10" style="stroke:#181818;stroke-width:0.5;" width="15" x="888.2891" y="634"/><rect fill="#F1F1F1" height="2" style="stroke:#181818;stroke-width:0.5;" width="4" x="886.2891" y="636"/><rect fill="#F1F1F1" height="2" style="stroke:#181818;stroke-width:0.5;" width="4" x="886.2891" y="640"/><text fill="#000000" font-family="sans-serif" font-size="14" lengthAdjust="spacing" textLength="90.2891" x="793" y="662.1318">Approval Loop</text></g><!--entity rag_system--><g id="elem_rag_system"><rect fill="#F1F1F1" height="46.0986" rx="2.5" ry="2.5" style="stroke:#181818;stroke-width:0.5;" width="120.9033" x="544.5" y="859.5"/><rect fill="#F1F1F1" height="10" style="stroke:#181818;stroke-width:0.5;" width="15" x="645.4033" y="864.5"/><rect fill="#F1F1F1" height="2" style="stroke:#181818;stroke-width:0.5;" width="4" x="643.4033" y="866.5"/><rect fill="#F1F1F1" height="2" style="stroke:#181818;stroke-width:0.5;" width="4" x="643.4033" y="870.5"/><text fill="#000000" font-family="sans-serif" font-size="14" lengthAdjust="spacing" textLength="80.9033" x="559.5" y="892.6318">RAG System</text></g><!--entity optimizer--><g id="elem_optimizer"><rect fill="#F1F1F1" height="46.0986" rx="2.5" ry="2.5" style="stroke:#181818;stroke-width:0.5;" width="190.1514" x="46" y="859.5"/><rect fill="#F1F1F1" height="10" style="stroke:#181818;stroke-width:0.5;" width="15" x="216.1514" y="864.5"/><rect fill="#F1F1F1" height="2" style="stroke:#181818;stroke-width:0.5;" width="4" x="214.1514" y="866.5"/><rect fill="#F1F1F1" height="2" style="stroke:#181818;stroke-width:0.5;" width="4" x="214.1514" y="870.5"/><text fill="#000000" font-family="sans-serif" font-size="14" lengthAdjust="spacing" textLength="150.1514" x="61" y="892.6318">Nutrient/Effort Optimizer</text></g><!--entity solver--><g id="elem_solver"><rect fill="#F1F1F1" height="46.0986" rx="2.5" ry="2.5" style="stroke:#181818;stroke-width:0.5;" width="185.5166" x="48" y="1096"/><rect fill="#F1F1F1" height="10" style="stroke:#181818;stroke-width:0.5;" width="15" x="213.5166" y="1101"/><rect fill="#F1F1F1" height="2" style="stroke:#181818;stroke-width:0.5;" width="4" x="211.5166" y="1103"/><rect fill="#F1F1F1" height="2" style="stroke:#181818;stroke-width:0.5;" width="4" x="211.5166" y="1107"/><text fill="#000000" font-family="sans-serif" font-size="14" lengthAdjust="spacing" textLength="145.5166" x="63" y="1129.1318">OR-Tools/PuLP Engine</text></g><!--entity recipe_repo--><g id="elem_recipe_repo"><rect fill="#F1F1F1" height="46.0986" rx="2.5" ry="2.5" style="stroke:#181818;stroke-width:0.5;" width="154.3857" x="292" y="1096"/><rect fill="#F1F1F1" height="10" style="stroke:#181818;stroke-width:0.5;" width="15" x="426.3857" y="1101"/><rect fill="#F1F1F1" height="2" style="stroke:#181818;stroke-width:0.5;" width="4" x="424.3857" y="1103"/><rect fill="#F1F1F1" height="2" style="stroke:#181818;stroke-width:0.5;" width="4" x="424.3857" y="1107"/><text fill="#000000" font-family="sans-serif" font-size="14" lengthAdjust="spacing" textLength="114.3857" x="307" y="1129.1318">Recipe Repository</text></g><!--entity plan_repo--><g id="elem_plan_repo"><rect fill="#F1F1F1" height="46.0986" rx="2.5" ry="2.5" style="stroke:#181818;stroke-width:0.5;" width="173.0615" x="664.5" y="1096"/><rect fill="#F1F1F1" height="10" style="stroke:#181818;stroke-width:0.5;" width="15" x="817.5615" y="1101"/><rect fill="#F1F1F1" height="2" style="stroke:#181818;stroke-width:0.5;" width="4" x="815.5615" y="1103"/><rect fill="#F1F1F1" height="2" style="stroke:#181818;stroke-width:0.5;" width="4" x="815.5615" y="1107"/><text fill="#000000" font-family="sans-serif" font-size="14" lengthAdjust="spacing" textLength="133.0615" x="679.5" y="1129.1318">Meal Plan Repository</text></g><!--entity session_repo--><g id="elem_session_repo"><rect fill="#F1F1F1" height="46.0986" rx="2.5" ry="2.5" style="stroke:#181818;stroke-width:0.5;" width="160.6133" x="887.5" y="1096"/><rect fill="#F1F1F1" height="10" style="stroke:#181818;stroke-width:0.5;" width="15" x="1028.1133" y="1101"/><rect fill="#F1F1F1" height="2" style="stroke:#181818;stroke-width:0.5;" width="4" x="1026.1133" y="1103"/><rect fill="#F1F1F1" height="2" style="stroke:#181818;stroke-width:0.5;" width="4" x="1026.1133" y="1107"/><text fill="#000000" font-family="sans-serif" font-size="14" lengthAdjust="spacing" textLength="120.6133" x="902.5" y="1129.1318">Session Repository</text></g><!--entity vector_store--><g id="elem_vector_store"><rect fill="#F1F1F1" height="46.0986" rx="2.5" ry="2.5" style="stroke:#181818;stroke-width:0.5;" width="117.8135" x="496" y="1096"/><rect fill="#F1F1F1" height="10" style="stroke:#181818;stroke-width:0.5;" width="15" x="593.8135" y="1101"/><rect fill="#F1F1F1" height="2" style="stroke:#181818;stroke-width:0.5;" width="4" x="591.8135" y="1103"/><rect fill="#F1F1F1" height="2" style="stroke:#181818;stroke-width:0.5;" width="4" x="591.8135" y="1107"/><text fill="#000000" font-family="sans-serif" font-size="14" lengthAdjust="spacing" textLength="77.8135" x="511" y="1129.1318">Vector Store</text></g><!--entity nutrition_calc--><g id="elem_nutrition_calc"><rect fill="#F1F1F1" height="46.0986" rx="2.5" ry="2.5" style="stroke:#181818;stroke-width:0.5;" width="159.0479" x="1104.5" y="1096"/><rect fill="#F1F1F1" height="10" style="stroke:#181818;stroke-width:0.5;" width="15" x="1243.5479" y="1101"/><rect fill="#F1F1F1" height="2" style="stroke:#181818;stroke-width:0.5;" width="4" x="1241.5479" y="1103"/><rect fill="#F1F1F1" height="2" style="stroke:#181818;stroke-width:0.5;" width="4" x="1241.5479" y="1107"/><text fill="#000000" font-family="sans-serif" font-size="14" lengthAdjust="spacing" textLength="119.0479" x="1119.5" y="1129.1318">Nutrition Calculator</text></g><!--entity shopping_list--><g id="elem_shopping_list"><rect fill="#F1F1F1" height="46.0986" rx="2.5" ry="2.5" style="stroke:#181818;stroke-width:0.5;" width="191.7646" x="1314" y="1096"/><rect fill="#F1F1F1" height="10" style="stroke:#181818;stroke-width:0.5;" width="15" x="1485.7646" y="1101"/><rect fill="#F1F1F1" height="2" style="stroke:#181818;stroke-width:0.5;" width="4" x="1483.7646" y="1103"/><rect fill="#F1F1F1" height="2" style="stroke:#181818;stroke-width:0.5;" width="4" x="1483.7646" y="1107"/><text fill="#000000" font-family="sans-serif" font-size="14" lengthAdjust="spacing" textLength="151.7646" x="1329" y="1129.1318">Shopping List Generator</text></g><!--entity postgres--><g id="elem_postgres"><path d="M605,1308 C605,1298 653.1309,1298 653.1309,1298 C653.1309,1298 701.2617,1298 701.2617,1308 L701.2617,1333.0986 C701.2617,1343.0986 653.1309,1343.0986 653.1309,1343.0986 C653.1309,1343.0986 605,1343.0986 605,1333.0986 L605,1308 " fill="#F1F1F1" style="stroke:#181818;stroke-width:0.5;"/><path d="M605,1308 C605,1318 653.1309,1318 653.1309,1318 C653.1309,1318 701.2617,1318 701.2617,1308 " fill="none" style="stroke:#181818;stroke-width:0.5;"/><text fill="#000000" font-family="sans-serif" font-size="14" lengthAdjust="spacing" textLength="76.2617" x="615" y="1335.1318">PostgreSQL</text></g><!--entity redis--><g id="elem_redis"><path d="M751,1308 C751,1298 778.8965,1298 778.8965,1298 C778.8965,1298 806.793,1298 806.793,1308 L806.793,1333.0986 C806.793,1343.0986 778.8965,1343.0986 778.8965,1343.0986 C778.8965,1343.0986 751,1343.0986 751,1333.0986 L751,1308 " fill="#F1F1F1" style="stroke:#181818;stroke-width:0.5;"/><path d="M751,1308 C751,1318 778.8965,1318 778.8965,1318 C778.8965,1318 806.793,1318 806.793,1308 " fill="none" style="stroke:#181818;stroke-width:0.5;"/><text fill="#000000" font-family="sans-serif" font-size="14" lengthAdjust="spacing" textLength="35.793" x="761" y="1335.1318">Redis</text></g><!--entity google_ocr--><g id="elem_google_ocr"><ellipse cx="2040" cy="1119" fill="#F1F1F1" rx="8" ry="8" style="stroke:#181818;stroke-width:0.5;"/><text fill="#000000" font-family="sans-serif" font-size="14" lengthAdjust="spacing" textLength="106.5996" x="1986.7002" y="1149.1318">Google OCR API</text></g><!--entity llm_api--><g id="elem_llm_api"><ellipse cx="1895" cy="1119" fill="#F1F1F1" rx="8" ry="8" style="stroke:#181818;stroke-width:0.5;"/><text fill="#000000" font-family="sans-serif" font-size="14" lengthAdjust="spacing" textLength="53.6895" x="1868.1553" y="1149.1318">LLM API</text></g><g id="elem_GMN76"><path d="M1562.5,825 L1562.5,884 L1144.26,888 L1562.5,892 L1562.5,939.6411 A0,0 0 0 0 1562.5,939.6411 L1789.4561,939.6411 A0,0 0 0 0 1789.4561,939.6411 L1789.4561,835 L1779.4561,825 L1562.5,825 A0,0 0 0 0 1562.5,825 " fill="#FEFFDD" style="stroke:#181818;stroke-width:0.5;"/><path d="M1779.4561,825 L1779.4561,835 L1789.4561,835 L1779.4561,825 " fill="#FEFFDD" style="stroke:#181818;stroke-width:0.5;"/><text fill="#000000" font-family="sans-serif" font-size="13" lengthAdjust="spacing" textLength="205.9561" x="1568.5" y="842.1938">Central component that coordinates</text><text fill="#000000" font-family="sans-serif" font-size="13" lengthAdjust="spacing" textLength="171.9771" x="1568.5" y="857.1426">all recipe-related functionality:</text><ellipse cx="1574" cy="867.3462" fill="#000000" rx="2.5" ry="2.5" style="stroke:#000000;stroke-width:0.0;"/><text fill="#000000" font-family="sans-serif" font-size="13" lengthAdjust="spacing" textLength="120.6816" x="1580.5" y="872.0913">Storage and retrieval</text><ellipse cx="1574" cy="882.2949" fill="#000000" rx="2.5" ry="2.5" style="stroke:#000000;stroke-width:0.0;"/><text fill="#000000" font-family="sans-serif" font-size="13" lengthAdjust="spacing" textLength="130.8188" x="1580.5" y="887.04">Embedding generation</text><ellipse cx="1574" cy="897.2437" fill="#000000" rx="2.5" ry="2.5" style="stroke:#000000;stroke-width:0.0;"/><text fill="#000000" font-family="sans-serif" font-size="13" lengthAdjust="spacing" textLength="140.2007" x="1580.5" y="901.9888">AI-enhanced processing</text><ellipse cx="1574" cy="912.1924" fill="#000000" rx="2.5" ry="2.5" style="stroke:#000000;stroke-width:0.0;"/><text fill="#000000" font-family="sans-serif" font-size="13" lengthAdjust="spacing" textLength="113.4453" x="1580.5" y="916.9375">Nutrition calculation</text><ellipse cx="1574" cy="927.1411" fill="#000000" rx="2.5" ry="2.5" style="stroke:#000000;stroke-width:0.0;"/><text fill="#000000" font-family="sans-serif" font-size="13" lengthAdjust="spacing" textLength="151.7534" x="1580.5" y="931.8862">Serving other components</text></g><!--link chat_ui to api_client--><g id="link_chat_ui_api_client"><path d="M1440,87.25 C1440,139.17 1440,260 1440,260 C1440,260 1312.78,260 1237.06,260 " fill="none" id="chat_ui-to-api_client" style="stroke:#181818;stroke-width:1.0;"/><polygon fill="#181818" points="1231.06,260,1240.06,264,1236.06,260,1240.06,256,1231.06,260" style="stroke:#181818;stroke-width:1.0;"/></g><!--link recipe_browser to api_client--><g id="link_recipe_browser_api_client"><path d="M1219.25,87.25 C1219.25,124.98 1219.25,193.07 1219.25,230.78 " fill="none" id="recipe_browser-to-api_client" style="stroke:#181818;stroke-width:1.0;"/><polygon fill="#181818" points="1219.25,236.78,1223.25,227.78,1219.25,231.78,1215.25,227.78,1219.25,236.78" style="stroke:#181818;stroke-width:1.0;"/></g><!--link plan_viewer to api_client--><g id="link_plan_viewer_api_client"><path d="M1143.25,87.25 C1143.25,124.98 1143.25,193.07 1143.25,230.78 " fill="none" id="plan_viewer-to-api_client" style="stroke:#181818;stroke-width:1.0;"/><polygon fill="#181818" points="1143.25,236.78,1147.25,227.78,1143.25,231.78,1139.25,227.78,1143.25,236.78" style="stroke:#181818;stroke-width:1.0;"/></g><!--link image_uploader to api_client--><g id="link_image_uploader_api_client"><path d="M933,87.25 C933,139.17 933,260 933,260 C933,260 1050.47,260 1122.82,260 " fill="none" id="image_uploader-to-api_client" style="stroke:#181818;stroke-width:1.0;"/><polygon fill="#181818" points="1128.82,260,1119.82,256,1123.82,260,1119.82,264,1128.82,260" style="stroke:#181818;stroke-width:1.0;"/></g><!--link api_client to api_gateway--><g id="link_api_client_api_gateway"><path d="M1180,283.25 C1180,320.98 1180,389.07 1180,426.78 " fill="none" id="api_client-to-api_gateway" style="stroke:#181818;stroke-width:1.0;"/><polygon fill="#181818" points="1180,432.78,1184,423.78,1180,427.78,1176,423.78,1180,432.78" style="stroke:#181818;stroke-width:1.0;"/></g><!--link api_gateway to recipe_service--><g id="link_api_gateway_recipe_service"><path d="M1188.75,479.09 C1188.75,566.07 1188.75,869 1188.75,869 C1188.75,869 1173.93,869 1150.26,869 " fill="none" id="api_gateway-to-recipe_service" style="stroke:#181818;stroke-width:1.0;"/><polygon fill="#181818" points="1144.26,869,1153.26,873,1149.26,869,1153.26,865,1144.26,869" style="stroke:#181818;stroke-width:1.0;"/></g><!--link api_gateway to chat_service--><g id="link_api_gateway_chat_service"><path d="M1232,479.25 C1232,516.98 1232,585.07 1232,622.78 " fill="none" id="api_gateway-to-chat_service" style="stroke:#181818;stroke-width:1.0;"/><polygon fill="#181818" points="1232,628.78,1236,619.78,1232,623.78,1228,619.78,1232,628.78" style="stroke:#181818;stroke-width:1.0;"/></g><!--link api_gateway to plan_service--><g id="link_api_gateway_plan_service"><path d="M1141.25,479.25 C1141.25,516.98 1141.25,585.07 1141.25,622.78 " fill="none" id="api_gateway-to-plan_service" style="stroke:#181818;stroke-width:1.0;"/><polygon fill="#181818" points="1141.25,628.78,1145.25,619.78,1141.25,623.78,1137.25,619.78,1141.25,628.78" style="stroke:#181818;stroke-width:1.0;"/></g><!--link api_gateway to ocr_service--><g id="link_api_gateway_ocr_service"><path d="M1241.1,456 C1303.17,456 1390.25,456 1390.25,456 C1390.25,456 1390.25,570.83 1390.25,622.75 " fill="none" id="api_gateway-to-ocr_service" style="stroke:#181818;stroke-width:1.0;"/><polygon fill="#181818" points="1390.25,628.75,1394.25,619.75,1390.25,623.75,1386.25,619.75,1390.25,628.75" style="stroke:#181818;stroke-width:1.0;"/></g><!--link recipe_service to recipe_repo--><g id="link_recipe_service_recipe_repo"><path d="M1019.62,905.59 C1019.62,914.68 1019.62,923 1019.62,923 C1019.62,923 392.67,923 392.67,923 C392.67,923 392.67,1037.83 392.67,1089.75 " fill="none" id="recipe_service-to-recipe_repo" style="stroke:#181818;stroke-width:1.0;"/><polygon fill="#181818" points="392.67,1095.75,396.67,1086.75,392.67,1090.75,388.67,1086.75,392.67,1095.75" style="stroke:#181818;stroke-width:1.0;"/></g><!--link plan_service to plan_repo--><g id="link_plan_service_plan_repo"><path d="M1077.25,675.22 C1077.25,704.2 1077.25,750 1077.25,750 C1077.25,750 807.75,750 807.75,750 C807.75,750 807.75,1009.13 807.75,1089.92 " fill="none" id="plan_service-to-plan_repo" style="stroke:#181818;stroke-width:1.0;"/><polygon fill="#181818" points="807.75,1095.92,811.75,1086.92,807.75,1090.92,803.75,1086.92,807.75,1095.92" style="stroke:#181818;stroke-width:1.0;"/></g><!--link chat_service to session_repo--><g id="link_chat_service_session_repo"><path d="M1238.75,675.09 C1238.75,762.07 1238.75,1065 1238.75,1065 C1238.75,1065 1038.88,1065 1038.88,1065 C1038.88,1065 1038.88,1075.15 1038.88,1089.79 " fill="none" id="chat_service-to-session_repo" style="stroke:#181818;stroke-width:1.0;"/><polygon fill="#181818" points="1038.88,1095.79,1042.88,1086.79,1038.88,1090.79,1034.88,1086.79,1038.88,1095.79" style="stroke:#181818;stroke-width:1.0;"/></g><!--link recipe_service to vector_store--><g id="link_recipe_service_vector_store"><path d="M1029.25,905.74 C1029.25,949.55 1029.25,1040 1029.25,1040 C1029.25,1040 590.83,1040 590.83,1040 C590.83,1040 590.83,1066.42 590.83,1089.72 " fill="none" id="recipe_service-to-vector_store" style="stroke:#181818;stroke-width:1.0;"/><polygon fill="#181818" points="590.83,1095.72,594.83,1086.72,590.83,1090.72,586.83,1086.72,590.83,1095.72" style="stroke:#181818;stroke-width:1.0;"/></g><!--link recipe_repo to postgres--><g id="link_recipe_repo_postgres"><path d="M369,1142.17 C369,1195.23 369,1321 369,1321 C369,1321 517.8,1321 598.82,1321 " fill="none" id="recipe_repo-to-postgres" style="stroke:#181818;stroke-width:1.0;"/><polygon fill="#181818" points="604.82,1321,595.82,1317,599.82,1321,595.82,1325,604.82,1321" style="stroke:#181818;stroke-width:1.0;"/></g><!--link plan_repo to postgres--><g id="link_plan_repo_postgres"><path d="M682.75,1142.11 C682.75,1181.09 682.75,1253.38 682.75,1291.96 " fill="none" id="plan_repo-to-postgres" style="stroke:#181818;stroke-width:1.0;"/><polygon fill="#181818" points="682.75,1297.96,686.75,1288.96,682.75,1292.96,678.75,1288.96,682.75,1297.96" style="stroke:#181818;stroke-width:1.0;"/></g><!--link vector_store to postgres--><g id="link_vector_store_postgres"><path d="M609.5,1142.11 C609.5,1181.09 609.5,1253.38 609.5,1291.96 " fill="none" id="vector_store-to-postgres" style="stroke:#181818;stroke-width:1.0;"/><polygon fill="#181818" points="609.5,1297.96,613.5,1288.96,609.5,1292.96,605.5,1288.96,609.5,1297.96" style="stroke:#181818;stroke-width:1.0;"/></g><!--link session_repo to redis--><g id="link_session_repo_redis"><path d="M968,1142.17 C968,1195.23 968,1321 968,1321 C968,1321 866.02,1321 813.3,1321 " fill="none" id="session_repo-to-redis" style="stroke:#181818;stroke-width:1.0;"/><polygon fill="#181818" points="807.3,1321,816.3,1325,812.3,1321,816.3,1317,807.3,1321" style="stroke:#181818;stroke-width:1.0;"/></g><!--link chat_service to langgraph--><g id="link_chat_service_langgraph"><path d="M1223,628.78 C1223,599.8 1223,554 1223,554 C1223,554 809,554 809,554 C809,554 809,514.2 809,485.22 " fill="none" id="chat_service-to-langgraph" style="stroke:#181818;stroke-width:1.0;"/><polygon fill="#181818" points="809,479.22,805,488.22,809,484.22,813,488.22,809,479.22" style="stroke:#181818;stroke-width:1.0;"/></g><!--link langgraph to qa_node--><g id="link_langgraph_qa_node"><path d="M688.5,479.25 C688.5,516.98 688.5,585.07 688.5,622.78 " fill="none" id="langgraph-to-qa_node" style="stroke:#181818;stroke-width:1.0;"/><polygon fill="#181818" points="688.5,628.78,692.5,619.78,688.5,623.78,684.5,619.78,688.5,628.78" style="stroke:#181818;stroke-width:1.0;"/></g><!--link langgraph to planning_node--><g id="link_langgraph_planning_node"><path d="M649.42,456 C564.69,456 449,456 449,456 C449,456 449,570.83 449,622.75 " fill="none" id="langgraph-to-planning_node" style="stroke:#181818;stroke-width:1.0;"/><polygon fill="#181818" points="449,628.75,453,619.75,449,623.75,445,619.75,449,628.75" style="stroke:#181818;stroke-width:1.0;"/></g><!--link langgraph to approval_loop--><g id="link_langgraph_approval_loop"><path d="M793.5,479.25 C793.5,516.98 793.5,585.07 793.5,622.78 " fill="none" id="langgraph-to-approval_loop" style="stroke:#181818;stroke-width:1.0;"/><polygon fill="#181818" points="793.5,628.78,797.5,619.78,793.5,623.78,789.5,619.78,793.5,628.78" style="stroke:#181818;stroke-width:1.0;"/></g><!--link qa_node to rag_system--><g id="link_qa_node_rag_system"><path d="M624,675.37 C624,719.66 624,809.34 624,853.41 " fill="none" id="qa_node-to-rag_system" style="stroke:#181818;stroke-width:1.0;"/><polygon fill="#181818" points="624,859.41,628,850.41,624,854.41,620,850.41,624,859.41" style="stroke:#181818;stroke-width:1.0;"/></g><!--link qa_node to recipe_service--><g id="link_qa_node_recipe_service"><path d="M706.83,675.42 C706.83,734.15 706.83,883 706.83,883 C706.83,883 897.29,883 1003.97,883 " fill="none" id="qa_node-to-recipe_service" style="stroke:#181818;stroke-width:1.0;"/><polygon fill="#181818" points="1009.97,883,1000.97,879,1004.97,883,1000.97,887,1009.97,883" style="stroke:#181818;stroke-width:1.0;"/></g><!--link rag_system to vector_store--><g id="link_rag_system_vector_store"><path d="M567.67,905.61 C567.67,950.82 567.67,1044.51 567.67,1089.8 " fill="none" id="rag_system-to-vector_store" style="stroke:#181818;stroke-width:1.0;"/><polygon fill="#181818" points="567.67,1095.8,571.67,1086.8,567.67,1090.8,563.67,1086.8,567.67,1095.8" style="stroke:#181818;stroke-width:1.0;"/></g><!--link planning_node to optimizer--><g id="link_planning_node_optimizer"><path d="M419.33,675.02 C419.33,732 419.33,875 419.33,875 C419.33,875 322.64,875 242.01,875 " fill="none" id="planning_node-to-optimizer" style="stroke:#181818;stroke-width:1.0;"/><polygon fill="#181818" points="236.01,875,245.01,879,241.01,875,245.01,871,236.01,875" style="stroke:#181818;stroke-width:1.0;"/></g><!--link optimizer to solver--><g id="link_optimizer_solver"><path d="M141,905.61 C141,950.82 141,1044.51 141,1089.8 " fill="none" id="optimizer-to-solver" style="stroke:#181818;stroke-width:1.0;"/><polygon fill="#181818" points="141,1095.8,145,1086.8,141,1090.8,137,1086.8,141,1095.8" style="stroke:#181818;stroke-width:1.0;"/></g><!--link optimizer to recipe_repo--><g id="link_optimizer_recipe_repo"><path d="M236.1,891 C282.73,891 329,891 329,891 C329,891 329,1031.92 329,1089.88 " fill="none" id="optimizer-to-recipe_repo" style="stroke:#181818;stroke-width:1.0;"/><polygon fill="#181818" points="329,1095.88,333,1086.88,329,1090.88,325,1086.88,329,1095.88" style="stroke:#181818;stroke-width:1.0;"/></g><!--link planning_node to nutrition_calc--><g id="link_planning_node_nutrition_calc"><path d="M505,675.26 C505,755.38 505,1015 505,1015 C505,1015 1117.67,1015 1117.67,1015 C1117.67,1015 1117.67,1059.28 1117.67,1089.92 " fill="none" id="planning_node-to-nutrition_calc" style="stroke:#181818;stroke-width:1.0;"/><polygon fill="#181818" points="1117.67,1095.92,1121.67,1086.92,1117.67,1090.92,1113.67,1086.92,1117.67,1095.92" style="stroke:#181818;stroke-width:1.0;"/></g><!--link recipe_service to nutrition_calc--><g id="link_recipe_service_nutrition_calc"><path d="M1130.83,905.61 C1130.83,950.82 1130.83,1044.51 1130.83,1089.8 " fill="none" id="recipe_service-to-nutrition_calc" style="stroke:#181818;stroke-width:1.0;"/><polygon fill="#181818" points="1130.83,1095.8,1134.83,1086.8,1130.83,1090.8,1126.83,1086.8,1130.83,1095.8" style="stroke:#181818;stroke-width:1.0;"/></g><!--link plan_service to shopping_list--><g id="link_plan_service_shopping_list"><path d="M1153.75,675.07 C1153.75,713.87 1153.75,788 1153.75,788 C1153.75,788 1324,788 1324,788 C1324,788 1324,1014.92 1324,1089.99 " fill="none" id="plan_service-to-shopping_list" style="stroke:#181818;stroke-width:1.0;"/><polygon fill="#181818" points="1324,1095.99,1328,1086.99,1324,1090.99,1320,1086.99,1324,1095.99" style="stroke:#181818;stroke-width:1.0;"/></g><!--link ocr_service to google_ocr--><g id="link_ocr_service_google_ocr"><path d="M1506.16,652 C1657.99,652 2040,652 2040,652 C2040,652 2040,1037.85 2040,1103.67 " fill="none" id="ocr_service-to-google_ocr" style="stroke:#181818;stroke-width:1.0;"/><polygon fill="#181818" points="2040,1109.67,2044,1100.67,2040,1104.67,2036,1100.67,2040,1109.67" style="stroke:#181818;stroke-width:1.0;"/></g><!--link ocr_service to recipe_service--><g id="link_ocr_service_recipe_service"><path d="M1445,675.33 C1445,733.08 1445,878 1445,878 C1445,878 1256.21,878 1150.07,878 " fill="none" id="ocr_service-to-recipe_service" style="stroke:#181818;stroke-width:1.0;"/><polygon fill="#181818" points="1144.07,878,1153.07,882,1149.07,878,1153.07,874,1144.07,878" style="stroke:#181818;stroke-width:1.0;"/></g><!--link qa_node to llm_api--><g id="link_qa_node_llm_api"><path d="M686.17,675.02 C686.17,747.3 686.17,965 686.17,965 C686.17,965 1906.33,965 1906.33,965 C1906.33,965 1906.33,1108.23 1906.33,1112.89 " fill="none" id="qa_node-to-llm_api" style="stroke:#181818;stroke-width:1.0;"/><polygon fill="#181818" points="1906.33,1118.89,1910.33,1109.89,1906.33,1113.89,1902.33,1109.89,1906.33,1118.89" style="stroke:#181818;stroke-width:1.0;"/></g><!--link recipe_service to llm_api--><g id="link_recipe_service_llm_api"><path d="M1144.47,897 C1271.66,897 1534.25,897 1534.25,897 C1534.25,897 1534.25,1119 1534.25,1119 C1534.25,1119 1823.25,1119 1879.72,1119 " fill="none" id="recipe_service-to-llm_api" style="stroke:#181818;stroke-width:1.0;"/><polygon fill="#181818" points="1885.72,1119,1876.72,1115,1880.72,1119,1876.72,1123,1885.72,1119" style="stroke:#181818;stroke-width:1.0;"/></g><!--link planning_node to llm_api--><g id="link_planning_node_llm_api"><path d="M514,675.23 C514,751.6 514,990 514,990 C514,990 1883.67,990 1883.67,990 C1883.67,990 1883.67,1109 1883.67,1112.91 " fill="none" id="planning_node-to-llm_api" style="stroke:#181818;stroke-width:1.0;"/><polygon fill="#181818" points="1883.67,1118.91,1887.67,1109.91,1883.67,1113.91,1879.67,1109.91,1883.67,1118.91" style="stroke:#181818;stroke-width:1.0;"/></g><!--link planning_node to recipe_service--><g id="link_planning_node_recipe_service"><path d="M523,675.06 C523,692.34 523,713 523,713 C523,713 1043.88,713 1043.88,713 C1043.88,713 1043.88,806.87 1043.88,853.29 " fill="none" id="planning_node-to-recipe_service" style="stroke:#181818;stroke-width:1.0;"/><polygon fill="#181818" points="1043.88,859.29,1047.88,850.29,1043.88,854.29,1039.88,850.29,1043.88,859.29" style="stroke:#181818;stroke-width:1.0;"/></g><!--link plan_service to recipe_service--><g id="link_plan_service_recipe_service"><path d="M1110.62,675.37 C1110.62,719.66 1110.62,809.34 1110.62,853.41 " fill="none" id="plan_service-to-recipe_service" style="stroke:#181818;stroke-width:1.0;"/><polygon fill="#181818" points="1110.62,859.41,1114.62,850.41,1110.62,854.41,1106.62,850.41,1110.62,859.41" style="stroke:#181818;stroke-width:1.0;"/></g><rect fill="#DDDDDD" height="106.5918" id="_legend" rx="7.5" ry="7.5" style="stroke:#000000;stroke-width:1.0;" width="359.4121" x="1738.5879" y="1377"/><text fill="#000000" font-family="sans-serif" font-size="14" lengthAdjust="spacing" textLength="349.4121" x="1743.5879" y="1395.1318">Recipe Service serves as a central component handling:</text><ellipse cx="1749.0879" cy="1406.6973" fill="#000000" rx="2.5" ry="2.5" style="stroke:#000000;stroke-width:0.0;"/><text fill="#000000" font-family="sans-serif" font-size="14" lengthAdjust="spacing" textLength="235.0332" x="1755.5879" y="1411.2305">Recipe data access and management</text><ellipse cx="1749.0879" cy="1422.7959" fill="#000000" rx="2.5" ry="2.5" style="stroke:#000000;stroke-width:0.0;"/><text fill="#000000" font-family="sans-serif" font-size="14" lengthAdjust="spacing" textLength="281.6748" x="1755.5879" y="1427.3291">Integration with RAG system and vector store</text><ellipse cx="1749.0879" cy="1438.8945" fill="#000000" rx="2.5" ry="2.5" style="stroke:#000000;stroke-width:0.0;"/><text fill="#000000" font-family="sans-serif" font-size="14" lengthAdjust="spacing" textLength="202.3369" x="1755.5879" y="1443.4277">Nutrition calculation coordination</text><ellipse cx="1749.0879" cy="1454.9932" fill="#000000" rx="2.5" ry="2.5" style="stroke:#000000;stroke-width:0.0;"/><text fill="#000000" font-family="sans-serif" font-size="14" lengthAdjust="spacing" textLength="201.5234" x="1755.5879" y="1459.5264">Recipe parsing from OCR inputs</text><ellipse cx="1749.0879" cy="1471.0918" fill="#000000" rx="2.5" ry="2.5" style="stroke:#000000;stroke-width:0.0;"/><text fill="#000000" font-family="sans-serif" font-size="14" lengthAdjust="spacing" textLength="245.916" x="1755.5879" y="1475.625">AI-enhanced recipe processing via LLM</text><!--SRC=[VLVTRzis47_NNy7cnUkm8Dk0lUnXWEkwWG7detRILu6HQ9c8HAeavTGR-h_lZgGaab9S5ArrttUy-ntveMG7BXXPFTmzFjolxvz88PjM2YPCzi7pFY-Vbf-M-pKfgQ4lLBE1ixb_Mk- -B5ThmeLXwa0BbcNwbOkMAjgCflRcN3FIDVMV0RS62-RSCYALESg08MJ9D6l9Nxy7H4N5AnB_06fMiug9aYXU7Kr6o8uL7EpicJhnWX4D_pDDAFmb1NXNj1v38KSgId1T_GsAl_Qgc1cXHS4qA87bXWfQiGQhW58RoAvIr70fo1itHx9RtX9zreOrLlp42YCLqV0FimhtdL7SYXUqBhhQgHPIgf8B-n5wXmmrH4GEIZRaORM3QhQTqLPakRbc0c8k6EJhnPN4G57Zn2dPRkyog8QhIPQrj7Y5sCdL5oKXR55UaV_04WcE-6frf8OyRwwmHWNypZkUYlZGFYdv1lMqaivz_k98gS8TWp8_rbIGRvozUPKMllEJ_KxbDmr6-TpMafPUcYCfxpmfLLW-RiYgvd0cLfYsF2_iP_OpoFeJ_0YI9WC3rRVqZAuyo_z9NDnImzxeUV1HkM-h0euYctt7JUmko0fQeJ-mg9icJkFk3Ikj7IaBp6wmCu8Ec3E87HHQauMQC_KCD3UtjF0TEJ5b6oMqPRjbnjX3Pp0mQ46cw7lMnXO9JTeUwKtELNbPuTpkxRXXaUTCRwceRXLjZr1uc7XPrxwdm7XL8IFBBXJ_wvBS0-fOZUyqHmIwc830uHiqMazvLs_PmecTG7ShPUixor7o6YYpWG72z2bZHz0gTu0pMo98MWFESQoJh4z1CmOcBIX1AM_MXmDWBdbe3M_ulxvGil-QhTF3xlf9obhVF7RRHx8M5O2tLTFMtMnGdn5KbmvK9nCoFOCTQwNc0A7dS0OKKBFBpPGesdwoQZDQUnmRET7HZloksZS7y7i4UAlW43_l4N-Q_BFXDJVdljFrExcFYsBb5uLqno5wHeuRP3QLesnRxCCjruRSkidpsjhpyXfuFhuG9J4H-D47DMpugqUfJQNO_klMrT9zwaHgnqgk_Id1hyZq-WSWYe2pIJCVBmjNjr9MS250e0B8jOOgIye1gr9Xs6-3L5qtEO0oEboGVi71NXM2MGpJcLzdvFhwdt15PF7oIjd1dafPyLAQs5sGOR54SOmoWqg_IL0fsXoX8la5T_fmdT8Viq3LcagMGygE43fbHbYRCgCz0J6ECp8DaBuWtbZAnooEA0pIpbFeT8p2ii9WBIiQn1cxqTp5CHf9FliBQdGIGIZEUz_JGnWnENGHSyBWV9RO_TW3mOgwV9gJZCS5DVooz7uDnTHurSIyUATuVHVdk3qYSjn9ezIqr95VrotZli3RJh9_eXCOHDqHkuqH4oEqXxk9Hy_GoZI412DdsYMHc7HYZ9FWU42lNYhAOnmGgnrWLifAIXjMlSUmcN1xrZJLdcDRFdhjuALiyiYvNBSak4bLqkldmWuMETJoZS3Jh52yjLUyXP26kLSOaOVq-huWxehf2Fr2Tr8QkN098IzT_Ghp0HHd4U4ShMQBr7h_JkdDuhV6eLViUmVgfC4B0UPYZUEpp0q4ksbaoGzdehlA-z6N78Km28QW8n3em1NxOTmJRKm1lMWmvGCPNdEO_liUuY46Col508Tra09162i9beICNGnSp9Oh-vZGlo4J7fMlU0k0QRBTwkVGCJ4-7nRynqHnlXHN322WlZ7sDdzYzHdqySaVn8W2dO119HsUXozsNDhOVj9NaFUaSGq-E8PtihruqBhscjUAmGK9odBeHE7g0I3X7lB-HkCpneik968vw-Q5bIMMA7gTn4_hw4NrpllT-S7WmPOqHujoFd2T3Ld_3m00]--></g></svg>