<svg xmlns="http://www.w3.org/2000/svg" xmlns:xlink="http://www.w3.org/1999/xlink" contentStyleType="text/css" height="607px" preserveAspectRatio="none" style="width:593px;height:607px;background:#FFFFFF;" version="1.1" viewBox="0 0 593 607" width="593px" zoomAndPan="magnify"><defs/><g><!--cluster productworld--><g id="cluster_productworld"><path d="M8.5,6 L98.9346,6 A3.75,3.75 0 0 1 101.4346,8.5 L108.4346,28.0986 L583.5,28.0986 A2.5,2.5 0 0 1 586,30.5986 L586,579.5 A2.5,2.5 0 0 1 583.5,582 L8.5,582 A2.5,2.5 0 0 1 6,579.5 L6,8.5 A2.5,2.5 0 0 1 8.5,6 " fill="none" style="stroke:#000000;stroke-width:1.5;"/><line style="stroke:#000000;stroke-width:1.5;" x1="6" x2="108.4346" y1="28.0986" y2="28.0986"/><text fill="#000000" font-family="sans-serif" font-size="14" font-weight="bold" lengthAdjust="spacing" textLength="89.4346" x="10" y="21.1318">productworld</text></g><!--cluster base--><g id="cluster_base"><path d="M32.5,49 L65.4102,49 A3.75,3.75 0 0 1 67.9102,51.5 L74.9102,71.0986 L559.5,71.0986 A2.5,2.5 0 0 1 562,73.5986 L562,400.5 A2.5,2.5 0 0 1 559.5,403 L32.5,403 A2.5,2.5 0 0 1 30,400.5 L30,51.5 A2.5,2.5 0 0 1 32.5,49 " fill="none" style="stroke:#000000;stroke-width:1.5;"/><line style="stroke:#000000;stroke-width:1.5;" x1="30" x2="74.9102" y1="71.0986" y2="71.0986"/><text fill="#000000" font-family="sans-serif" font-size="14" font-weight="bold" lengthAdjust="spacing" textLength="31.9102" x="34" y="64.1318">base</text></g><!--cluster base--><g id="cluster_base"><path d="M242.5,92 L275.4102,92 A3.75,3.75 0 0 1 277.9102,94.5 L284.9102,114.0986 L535.5,114.0986 A2.5,2.5 0 0 1 538,116.5986 L538,376.5 A2.5,2.5 0 0 1 535.5,379 L242.5,379 A2.5,2.5 0 0 1 240,376.5 L240,94.5 A2.5,2.5 0 0 1 242.5,92 " fill="none" style="stroke:#000000;stroke-width:1.5;"/><line style="stroke:#000000;stroke-width:1.5;" x1="240" x2="284.9102" y1="114.0986" y2="114.0986"/><text fill="#000000" font-family="sans-serif" font-size="14" font-weight="bold" lengthAdjust="spacing" textLength="31.9102" x="244" y="107.1318">base</text></g><!--cluster customer--><g id="cluster_customer"><path d="M56.5,92 L120.5205,92 A3.75,3.75 0 0 1 123.0205,94.5 L130.0205,114.0986 L213.5,114.0986 A2.5,2.5 0 0 1 216,116.5986 L216,236.5 A2.5,2.5 0 0 1 213.5,239 L56.5,239 A2.5,2.5 0 0 1 54,236.5 L54,94.5 A2.5,2.5 0 0 1 56.5,92 " fill="none" style="stroke:#000000;stroke-width:1.5;"/><line style="stroke:#000000;stroke-width:1.5;" x1="54" x2="130.0205" y1="114.0986" y2="114.0986"/><text fill="#000000" font-family="sans-serif" font-size="14" font-weight="bold" lengthAdjust="spacing" textLength="63.0205" x="58" y="107.1318">customer</text></g><!--cluster products--><g id="cluster_products"><path d="M55.5,427 L180.1689,427 A3.75,3.75 0 0 1 182.6689,429.5 L189.6689,449.0986 L526.5,449.0986 A2.5,2.5 0 0 1 529,451.5986 L529,555.5 A2.5,2.5 0 0 1 526.5,558 L55.5,558 A2.5,2.5 0 0 1 53,555.5 L53,429.5 A2.5,2.5 0 0 1 55.5,427 " fill="none" style="stroke:#000000;stroke-width:1.5;"/><line style="stroke:#000000;stroke-width:1.5;" x1="53" x2="189.6689" y1="449.0986" y2="449.0986"/><text fill="#000000" font-family="sans-serif" font-size="14" font-weight="bold" lengthAdjust="spacing" textLength="123.6689" x="57" y="442.1318">products.products</text></g><!--class NewOrder--><g id="elem_NewOrder"><rect codeLine="3" fill="#F1F1F1" height="96.2959" id="NewOrder" rx="2.5" ry="2.5" style="stroke:#181818;stroke-width:0.5;" width="114.7236" x="406.5" y="127"/><ellipse cx="430.0188" cy="143" fill="#ADD1B2" rx="11" ry="11" style="stroke:#181818;stroke-width:1.0;"/><path d="M427.675,142.8438 Q427.675,144.7188 428.2532,145.7344 Q428.8313,146.7344 429.9875,146.7344 Q431.3313,146.7344 431.9875,144.7188 L434.2532,145.1406 Q433.1438,148.6719 429.9719,148.6719 Q427.6282,148.6719 426.4094,147.1875 Q425.1907,145.7031 425.1907,142.8438 Q425.1907,137.125 429.8938,137.125 Q431.4407,137.125 432.4719,137.9375 Q433.5188,138.75 434.0188,140.3594 L431.7532,140.9063 Q431.5188,140.0313 431.0344,139.5469 Q430.55,139.0469 429.925,139.0469 Q427.675,139.0469 427.675,142.8438 Z " fill="#000000"/><text fill="#000000" font-family="sans-serif" font-size="14" lengthAdjust="spacing" textLength="63.793" x="445.9119" y="148.0825">NewOrder</text><line style="stroke:#181818;stroke-width:0.5;" x1="407.5" x2="520.2236" y1="159" y2="159"/><text fill="#000000" font-family="sans-serif" font-size="14" lengthAdjust="spacing" textLength="92.6133" x="412.5" y="176.1318">order_id: None</text><text fill="#000000" font-family="sans-serif" font-size="14" lengthAdjust="spacing" textLength="102.7236" x="412.5" y="192.2305">product: Product</text><text fill="#000000" font-family="sans-serif" font-size="14" lengthAdjust="spacing" textLength="90.2822" x="412.5" y="208.3291">quantity: None</text><line style="stroke:#181818;stroke-width:0.5;" x1="407.5" x2="520.2236" y1="215.2959" y2="215.2959"/></g><!--class Order--><g id="elem_Order"><rect codeLine="8" fill="#F1F1F1" height="96.2959" id="Order" rx="2.5" ry="2.5" style="stroke:#181818;stroke-width:0.5;" width="114.7236" x="256.5" y="127"/><ellipse cx="292.6219" cy="143" fill="#ADD1B2" rx="11" ry="11" style="stroke:#181818;stroke-width:1.0;"/><path d="M290.2781,142.8438 Q290.2781,144.7188 290.8563,145.7344 Q291.4344,146.7344 292.5906,146.7344 Q293.9344,146.7344 294.5906,144.7188 L296.8563,145.1406 Q295.7469,148.6719 292.575,148.6719 Q290.2313,148.6719 289.0125,147.1875 Q287.7938,145.7031 287.7938,142.8438 Q287.7938,137.125 292.4969,137.125 Q294.0438,137.125 295.075,137.9375 Q296.1219,138.75 296.6219,140.3594 L294.3563,140.9063 Q294.1219,140.0313 293.6375,139.5469 Q293.1531,139.0469 292.5281,139.0469 Q290.2781,139.0469 290.2781,142.8438 Z " fill="#000000"/><text fill="#000000" font-family="sans-serif" font-size="14" lengthAdjust="spacing" textLength="35.7861" x="311.3156" y="148.0825">Order</text><line style="stroke:#181818;stroke-width:0.5;" x1="257.5" x2="370.2236" y1="159" y2="159"/><text fill="#000000" font-family="sans-serif" font-size="14" lengthAdjust="spacing" textLength="92.6133" x="262.5" y="176.1318">order_id: None</text><text fill="#000000" font-family="sans-serif" font-size="14" lengthAdjust="spacing" textLength="102.7236" x="262.5" y="192.2305">product: Product</text><text fill="#000000" font-family="sans-serif" font-size="14" lengthAdjust="spacing" textLength="90.2822" x="262.5" y="208.3291">quantity: None</text><line style="stroke:#181818;stroke-width:0.5;" x1="257.5" x2="370.2236" y1="215.2959" y2="215.2959"/></g><!--class Product--><g id="elem_Product"><rect codeLine="13" fill="#F1F1F1" height="80.1973" id="Product" rx="2.5" ry="2.5" style="stroke:#181818;stroke-width:0.5;" width="118.627" x="324.5" y="283"/><ellipse cx="356.7705" cy="299" fill="#A9DCDF" rx="11" ry="11" style="stroke:#181818;stroke-width:1.0;"/><path d="M361.9736,303.5 L359.5361,303.5 L358.7705,300.7656 L354.9893,300.7656 L354.2236,303.5 L351.7705,303.5 L355.4424,292.2969 L358.3018,292.2969 L361.9736,303.5 Z M356.8799,293.8125 Q356.8018,294.1563 356.6299,294.8594 Q356.458,295.5469 355.5049,298.9219 L358.2549,298.9219 Q357.2861,295.5 357.1143,294.8281 Q356.9424,294.1563 356.8799,293.8125 Z " fill="#000000"/><text fill="#000000" font-family="sans-serif" font-size="14" font-style="italic" lengthAdjust="spacing" textLength="48.248" x="374.6084" y="304.0825">Product</text><line style="stroke:#181818;stroke-width:0.5;" x1="325.5" x2="442.127" y1="315" y2="315"/><text fill="#000000" font-family="sans-serif" font-size="14" lengthAdjust="spacing" textLength="106.627" x="330.5" y="332.1318">product_id: None</text><text fill="#000000" font-family="sans-serif" font-size="14" lengthAdjust="spacing" textLength="76.2686" x="330.5" y="348.2305">name: None</text><line style="stroke:#181818;stroke-width:0.5;" x1="325.5" x2="442.127" y1="355.1973" y2="355.1973"/></g><!--class Customer--><g id="elem_Customer"><rect codeLine="17" fill="#F1F1F1" height="96.2959" id="Customer" rx="2.5" ry="2.5" style="stroke:#181818;stroke-width:0.5;" width="129.5029" x="70" y="127"/><ellipse cx="101.5691" cy="143" fill="#ADD1B2" rx="11" ry="11" style="stroke:#181818;stroke-width:1.0;"/><path d="M99.2254,142.8438 Q99.2254,144.7188 99.8035,145.7344 Q100.3816,146.7344 101.5379,146.7344 Q102.8816,146.7344 103.5379,144.7188 L105.8035,145.1406 Q104.6941,148.6719 101.5223,148.6719 Q99.1785,148.6719 97.9598,147.1875 Q96.741,145.7031 96.741,142.8438 Q96.741,137.125 101.4441,137.125 Q102.991,137.125 104.0223,137.9375 Q105.0691,138.75 105.5691,140.3594 L103.3035,140.9063 Q103.0691,140.0313 102.5848,139.5469 Q102.1004,139.0469 101.4754,139.0469 Q99.2254,139.0469 99.2254,142.8438 Z " fill="#000000"/><text fill="#000000" font-family="sans-serif" font-size="14" lengthAdjust="spacing" textLength="60.6826" x="119.2512" y="148.0825">Customer</text><line style="stroke:#181818;stroke-width:0.5;" x1="71" x2="198.5029" y1="159" y2="159"/><text fill="#000000" font-family="sans-serif" font-size="14" lengthAdjust="spacing" textLength="117.5029" x="76" y="176.1318">customer_id: None</text><text fill="#000000" font-family="sans-serif" font-size="14" lengthAdjust="spacing" textLength="76.2686" x="76" y="192.2305">name: None</text><text fill="#000000" font-family="sans-serif" font-size="14" lengthAdjust="spacing" textLength="80.9307" x="76" y="208.3291">orders: None</text><line style="stroke:#181818;stroke-width:0.5;" x1="71" x2="198.5029" y1="215.2959" y2="215.2959"/></g><!--class DigitalProduct--><g id="elem_DigitalProduct"><rect codeLine="22" fill="#F1F1F1" height="80.1973" id="DigitalProduct" rx="2.5" ry="2.5" style="stroke:#181818;stroke-width:0.5;" width="119.1514" x="393.5" y="462"/><ellipse cx="408.5" cy="478" fill="#ADD1B2" rx="11" ry="11" style="stroke:#181818;stroke-width:1.0;"/><path d="M406.1563,477.8438 Q406.1563,479.7188 406.7344,480.7344 Q407.3125,481.7344 408.4688,481.7344 Q409.8125,481.7344 410.4688,479.7188 L412.7344,480.1406 Q411.625,483.6719 408.4531,483.6719 Q406.1094,483.6719 404.8906,482.1875 Q403.6719,480.7031 403.6719,477.8438 Q403.6719,472.125 408.375,472.125 Q409.9219,472.125 410.9531,472.9375 Q412,473.75 412.5,475.3594 L410.2344,475.9063 Q410,475.0313 409.5156,474.5469 Q409.0313,474.0469 408.4063,474.0469 Q406.1563,474.0469 406.1563,477.8438 Z " fill="#000000"/><text fill="#000000" font-family="sans-serif" font-size="14" lengthAdjust="spacing" textLength="87.1514" x="422.5" y="483.0825">DigitalProduct</text><line style="stroke:#181818;stroke-width:0.5;" x1="394.5" x2="511.6514" y1="494" y2="494"/><text fill="#000000" font-family="sans-serif" font-size="14" lengthAdjust="spacing" textLength="71.5928" x="399.5" y="511.1318">price: None</text><text fill="#000000" font-family="sans-serif" font-size="14" lengthAdjust="spacing" textLength="93.3926" x="399.5" y="527.2305">discount: None</text><line style="stroke:#181818;stroke-width:0.5;" x1="394.5" x2="511.6514" y1="534.1973" y2="534.1973"/></g><!--class PhysicalProduct--><g id="elem_PhysicalProduct"><rect codeLine="26" fill="#F1F1F1" height="64.0986" id="PhysicalProduct" rx="2.5" ry="2.5" style="stroke:#181818;stroke-width:0.5;" width="132.3789" x="226" y="470"/><ellipse cx="241" cy="486" fill="#ADD1B2" rx="11" ry="11" style="stroke:#181818;stroke-width:1.0;"/><path d="M238.6563,485.8438 Q238.6563,487.7188 239.2344,488.7344 Q239.8125,489.7344 240.9688,489.7344 Q242.3125,489.7344 242.9688,487.7188 L245.2344,488.1406 Q244.125,491.6719 240.9531,491.6719 Q238.6094,491.6719 237.3906,490.1875 Q236.1719,488.7031 236.1719,485.8438 Q236.1719,480.125 240.875,480.125 Q242.4219,480.125 243.4531,480.9375 Q244.5,481.75 245,483.3594 L242.7344,483.9063 Q242.5,483.0313 242.0156,482.5469 Q241.5313,482.0469 240.9063,482.0469 Q238.6563,482.0469 238.6563,485.8438 Z " fill="#000000"/><text fill="#000000" font-family="sans-serif" font-size="14" lengthAdjust="spacing" textLength="100.3789" x="255" y="491.0825">PhysicalProduct</text><line style="stroke:#181818;stroke-width:0.5;" x1="227" x2="357.3789" y1="502" y2="502"/><text fill="#000000" font-family="sans-serif" font-size="14" lengthAdjust="spacing" textLength="71.5928" x="232" y="519.1318">price: None</text><line style="stroke:#181818;stroke-width:0.5;" x1="227" x2="357.3789" y1="526.0986" y2="526.0986"/></g><!--class Productfactory--><g id="elem_Productfactory"><rect codeLine="29" fill="#F1F1F1" height="48" id="Productfactory" rx="2.5" ry="2.5" style="stroke:#181818;stroke-width:0.5;" width="122.2617" x="69" y="478"/><ellipse cx="84" cy="494" fill="#ADD1B2" rx="11" ry="11" style="stroke:#181818;stroke-width:1.0;"/><path d="M81.6563,493.8438 Q81.6563,495.7188 82.2344,496.7344 Q82.8125,497.7344 83.9688,497.7344 Q85.3125,497.7344 85.9688,495.7188 L88.2344,496.1406 Q87.125,499.6719 83.9531,499.6719 Q81.6094,499.6719 80.3906,498.1875 Q79.1719,496.7031 79.1719,493.8438 Q79.1719,488.125 83.875,488.125 Q85.4219,488.125 86.4531,488.9375 Q87.5,489.75 88,491.3594 L85.7344,491.9063 Q85.5,491.0313 85.0156,490.5469 Q84.5313,490.0469 83.9063,490.0469 Q81.6563,490.0469 81.6563,493.8438 Z " fill="#000000"/><text fill="#000000" font-family="sans-serif" font-size="14" lengthAdjust="spacing" textLength="90.2617" x="98" y="499.0825">Productfactory</text><line style="stroke:#181818;stroke-width:0.5;" x1="70" x2="190.2617" y1="510" y2="510"/><line style="stroke:#181818;stroke-width:0.5;" x1="70" x2="190.2617" y1="518" y2="518"/></g><!--reverse link NewOrder to Product--><g id="link_NewOrder_Product"><path codeLine="31" d="M432.2607,233.9221 C421.7607,253.0721 415.56,264.39 405.56,282.65 " fill="none" id="NewOrder-backto-Product" style="stroke:#181818;stroke-width:1.0;"/><polygon fill="#181818" points="438.03,223.4,431.638,226.738,432.2607,233.9221,438.6527,230.5842,438.03,223.4" style="stroke:#181818;stroke-width:1.0;"/></g><!--reverse link Order to Product--><g id="link_Order_Product"><path codeLine="32" d="M341.9173,234.2209 C351.0973,253.3709 356.38,264.39 365.13,282.65 " fill="none" id="Order-backto-Product" style="stroke:#181818;stroke-width:1.0;"/><polygon fill="#181818" points="336.73,223.4,335.7167,230.5395,341.9173,234.2209,342.9306,227.0814,336.73,223.4" style="stroke:#181818;stroke-width:1.0;"/></g><!--reverse link Product to DigitalProduct--><g id="link_Product_DigitalProduct"><path codeLine="33" d="M405.8509,380.0495 C417.2909,409.3795 426.31,432.52 437.73,461.83 " fill="none" id="Product-backto-DigitalProduct" style="stroke:#181818;stroke-width:1.0;"/><polygon fill="none" points="399.31,363.28,400.261,382.2298,411.4407,377.8692,399.31,363.28" style="stroke:#181818;stroke-width:1.0;"/></g><!--reverse link Product to PhysicalProduct--><g id="link_Product_PhysicalProduct"><path codeLine="34" d="M355.2802,379.2523 C338.6102,411.3323 323.66,440.1 308.23,469.77 " fill="none" id="Product-backto-PhysicalProduct" style="stroke:#181818;stroke-width:1.0;"/><polygon fill="none" points="363.58,363.28,349.9561,376.4857,360.6043,382.0189,363.58,363.28" style="stroke:#181818;stroke-width:1.0;"/></g><text fill="#888888" font-family="sans-serif" font-size="10" lengthAdjust="spacing" textLength="60.5957" x="238.9141" y="597.3799">Generated by</text><text fill="#888888" font-family="sans-serif" font-size="10" font-style="italic" lengthAdjust="spacing" textLength="37.7979" x="302.2881" y="597.3799">py2puml</text><!--SRC=[hPFDJiCm3CVlUGfpdRHLuZXn0mbn6Nq3v2PkYMYI4YUQeh5t9woP1fFMydM9_h7idp_YN0qUEuCGcHvi86z8QGnKetp1ZXXQx9c4a3qom-2TYZ9idU_Lga6cyTZGzj4hyh0J0Ev3FMcrXespb0qbQ0trABBfDQ8DEgJYiv_6_v6D3GUFCi1aaW8uf2akdnDPD3HRhOmSd26_kYtYG3jQB-1ALpn5BnS-YJlTwO3zrwgrF46LPkcY3J_3ri-9jRpC_Ivc56sUklCfK_PYRdKMo-NCquZ9zVXz_B7NcxTpnDpO_uDuDd7HEfT_8ToJ9P__eO8cGLKDwNg8fg-gTm00]--></g></svg>