<svg xmlns="http://www.w3.org/2000/svg" xmlns:xlink="http://www.w3.org/1999/xlink" contentStyleType="text/css" height="930px" preserveAspectRatio="none" style="width:1996px;height:930px;background:#FFFFFF;" version="1.1" viewBox="0 0 1996 930" width="1996px" zoomAndPan="magnify"><defs/><g><!--cluster productworld--><g id="cluster_productworld"><path d="M8.5,6 L98.9346,6 A3.75,3.75 0 0 1 101.4346,8.5 L108.4346,28.0986 L1986.5,28.0986 A2.5,2.5 0 0 1 1989,30.5986 L1989,902.5 A2.5,2.5 0 0 1 1986.5,905 L8.5,905 A2.5,2.5 0 0 1 6,902.5 L6,8.5 A2.5,2.5 0 0 1 8.5,6 " fill="none" style="stroke:#000000;stroke-width:1.5;"/><line style="stroke:#000000;stroke-width:1.5;" x1="6" x2="108.4346" y1="28.0986" y2="28.0986"/><text fill="#000000" font-family="sans-serif" font-size="14" font-weight="bold" lengthAdjust="spacing" textLength="89.4346" x="10" y="21.1318">productworld</text></g><!--cluster base--><g id="cluster_base"><path d="M945.5,49 L978.4102,49 A3.75,3.75 0 0 1 980.9102,51.5 L987.9102,71.0986 L1962.5,71.0986 A2.5,2.5 0 0 1 1965,73.5986 L1965,688.5 A2.5,2.5 0 0 1 1962.5,691 L945.5,691 A2.5,2.5 0 0 1 943,688.5 L943,51.5 A2.5,2.5 0 0 1 945.5,49 " fill="none" style="stroke:#000000;stroke-width:1.5;"/><line style="stroke:#000000;stroke-width:1.5;" x1="943" x2="987.9102" y1="71.0986" y2="71.0986"/><text fill="#000000" font-family="sans-serif" font-size="14" font-weight="bold" lengthAdjust="spacing" textLength="31.9102" x="947" y="64.1318">base</text></g><!--cluster base--><g id="cluster_base"><path d="M1245.5,124.5 L1278.4102,124.5 A3.75,3.75 0 0 1 1280.9102,127 L1287.9102,146.5986 L1938.5,146.5986 A2.5,2.5 0 0 1 1941,149.0986 L1941,664.5 A2.5,2.5 0 0 1 1938.5,667 L1245.5,667 A2.5,2.5 0 0 1 1243,664.5 L1243,127 A2.5,2.5 0 0 1 1245.5,124.5 " fill="none" style="stroke:#000000;stroke-width:1.5;"/><line style="stroke:#000000;stroke-width:1.5;" x1="1243" x2="1287.9102" y1="146.5986" y2="146.5986"/><text fill="#000000" font-family="sans-serif" font-size="14" font-weight="bold" lengthAdjust="spacing" textLength="31.9102" x="1247" y="139.6318">base</text></g><!--cluster customer--><g id="cluster_customer"><path d="M969.5,92 L1033.5205,92 A3.75,3.75 0 0 1 1036.0205,94.5 L1043.0205,114.0986 L1216.5,114.0986 A2.5,2.5 0 0 1 1219,116.5986 L1219,285.5 A2.5,2.5 0 0 1 1216.5,288 L969.5,288 A2.5,2.5 0 0 1 967,285.5 L967,94.5 A2.5,2.5 0 0 1 969.5,92 " fill="none" style="stroke:#000000;stroke-width:1.5;"/><line style="stroke:#000000;stroke-width:1.5;" x1="967" x2="1043.0205" y1="114.0986" y2="114.0986"/><text fill="#000000" font-family="sans-serif" font-size="14" font-weight="bold" lengthAdjust="spacing" textLength="63.0205" x="971" y="107.1318">customer</text></g><!--cluster products--><g id="cluster_products"><path d="M32.5,528 L157.1689,528 A3.75,3.75 0 0 1 159.6689,530.5 L166.6689,550.0986 L916.5,550.0986 A2.5,2.5 0 0 1 919,552.5986 L919,878.5 A2.5,2.5 0 0 1 916.5,881 L32.5,881 A2.5,2.5 0 0 1 30,878.5 L30,530.5 A2.5,2.5 0 0 1 32.5,528 " fill="none" style="stroke:#000000;stroke-width:1.5;"/><line style="stroke:#000000;stroke-width:1.5;" x1="30" x2="166.6689" y1="550.0986" y2="550.0986"/><text fill="#000000" font-family="sans-serif" font-size="14" font-weight="bold" lengthAdjust="spacing" textLength="123.6689" x="34" y="543.1318">products.products</text></g><!--class NewOrder--><g id="elem_NewOrder"><rect codeLine="3" fill="#F1F1F1" height="128.4932" id="NewOrder" rx="2.5" ry="2.5" style="stroke:#181818;stroke-width:0.5;" width="314.7227" x="1609.5" y="350"/><ellipse cx="1730.7148" cy="366" fill="#ADD1B2" rx="11" ry="11" style="stroke:#181818;stroke-width:1.0;"/><path d="M1728.3711,365.8438 Q1728.3711,367.7188 1728.9492,368.7344 Q1729.5273,369.7344 1730.6836,369.7344 Q1732.0273,369.7344 1732.6836,367.7188 L1734.9492,368.1406 Q1733.8398,371.6719 1730.668,371.6719 Q1728.3242,371.6719 1727.1055,370.1875 Q1725.8867,368.7031 1725.8867,365.8438 Q1725.8867,360.125 1730.5898,360.125 Q1732.1367,360.125 1733.168,360.9375 Q1734.2148,361.75 1734.7148,363.3594 L1732.4492,363.9063 Q1732.2148,363.0313 1731.7305,362.5469 Q1731.2461,362.0469 1730.6211,362.0469 Q1728.3711,362.0469 1728.3711,365.8438 Z " fill="#000000"/><text fill="#000000" font-family="sans-serif" font-size="14" lengthAdjust="spacing" textLength="63.793" x="1751.2148" y="371.0825">NewOrder</text><line style="stroke:#181818;stroke-width:0.5;" x1="1610.5" x2="1923.2227" y1="382" y2="382"/><text fill="#000000" font-family="sans-serif" font-size="14" lengthAdjust="spacing" textLength="92.6133" x="1615.5" y="399.1318">order_id: None</text><text fill="#000000" font-family="sans-serif" font-size="14" lengthAdjust="spacing" textLength="102.7236" x="1615.5" y="415.2305">product: Product</text><text fill="#000000" font-family="sans-serif" font-size="14" lengthAdjust="spacing" textLength="90.2822" x="1615.5" y="431.3291">quantity: None</text><line style="stroke:#181818;stroke-width:0.5;" x1="1610.5" x2="1923.2227" y1="438.2959" y2="438.2959"/><text fill="#000000" font-family="sans-serif" font-size="14" lengthAdjust="spacing" textLength="302.7227" x="1615.5" y="455.4277">__init__(self, order_id, Product product, quantity)</text><text fill="#000000" font-family="sans-serif" font-size="14" lengthAdjust="spacing" textLength="139.2891" x="1615.5" y="471.5264">int calculate_total(self)</text></g><!--class Order--><g id="elem_Order"><rect codeLine="10" fill="#F1F1F1" height="128.4932" id="Order" rx="2.5" ry="2.5" style="stroke:#181818;stroke-width:0.5;" width="314.7227" x="1259.5" y="350"/><ellipse cx="1394.7183" cy="366" fill="#ADD1B2" rx="11" ry="11" style="stroke:#181818;stroke-width:1.0;"/><path d="M1392.3745,365.8438 Q1392.3745,367.7188 1392.9526,368.7344 Q1393.5308,369.7344 1394.687,369.7344 Q1396.0308,369.7344 1396.687,367.7188 L1398.9526,368.1406 Q1397.8433,371.6719 1394.6714,371.6719 Q1392.3276,371.6719 1391.1089,370.1875 Q1389.8901,368.7031 1389.8901,365.8438 Q1389.8901,360.125 1394.5933,360.125 Q1396.1401,360.125 1397.1714,360.9375 Q1398.2183,361.75 1398.7183,363.3594 L1396.4526,363.9063 Q1396.2183,363.0313 1395.7339,362.5469 Q1395.2495,362.0469 1394.6245,362.0469 Q1392.3745,362.0469 1392.3745,365.8438 Z " fill="#000000"/><text fill="#000000" font-family="sans-serif" font-size="14" lengthAdjust="spacing" textLength="35.7861" x="1415.2183" y="371.0825">Order</text><line style="stroke:#181818;stroke-width:0.5;" x1="1260.5" x2="1573.2227" y1="382" y2="382"/><text fill="#000000" font-family="sans-serif" font-size="14" lengthAdjust="spacing" textLength="92.6133" x="1265.5" y="399.1318">order_id: None</text><text fill="#000000" font-family="sans-serif" font-size="14" lengthAdjust="spacing" textLength="102.7236" x="1265.5" y="415.2305">product: Product</text><text fill="#000000" font-family="sans-serif" font-size="14" lengthAdjust="spacing" textLength="90.2822" x="1265.5" y="431.3291">quantity: None</text><line style="stroke:#181818;stroke-width:0.5;" x1="1260.5" x2="1573.2227" y1="438.2959" y2="438.2959"/><text fill="#000000" font-family="sans-serif" font-size="14" lengthAdjust="spacing" textLength="302.7227" x="1265.5" y="455.4277">__init__(self, order_id, Product product, quantity)</text><text fill="#000000" font-family="sans-serif" font-size="14" lengthAdjust="spacing" textLength="139.2891" x="1265.5" y="471.5264">int calculate_total(self)</text></g><!--class Product--><g id="elem_Product"><rect codeLine="17" fill="#F1F1F1" height="112.3945" id="Product" rx="2.5" ry="2.5" style="stroke:#181818;stroke-width:0.5;" width="208.1094" x="1286" y="539"/><ellipse cx="1361.6807" cy="555" fill="#A9DCDF" rx="11" ry="11" style="stroke:#181818;stroke-width:1.0;"/><path d="M1366.8838,559.5 L1364.4463,559.5 L1363.6807,556.7656 L1359.8994,556.7656 L1359.1338,559.5 L1356.6807,559.5 L1360.3525,548.2969 L1363.2119,548.2969 L1366.8838,559.5 Z M1361.79,549.8125 Q1361.7119,550.1563 1361.54,550.8594 Q1361.3682,551.5469 1360.415,554.9219 L1363.165,554.9219 Q1362.1963,551.5 1362.0244,550.8281 Q1361.8525,550.1563 1361.79,549.8125 Z " fill="#000000"/><text fill="#000000" font-family="sans-serif" font-size="14" font-style="italic" lengthAdjust="spacing" textLength="48.248" x="1382.1807" y="560.0825">Product</text><line style="stroke:#181818;stroke-width:0.5;" x1="1287" x2="1493.1094" y1="571" y2="571"/><text fill="#000000" font-family="sans-serif" font-size="14" lengthAdjust="spacing" textLength="106.627" x="1292" y="588.1318">product_id: None</text><text fill="#000000" font-family="sans-serif" font-size="14" lengthAdjust="spacing" textLength="76.2686" x="1292" y="604.2305">name: None</text><line style="stroke:#181818;stroke-width:0.5;" x1="1287" x2="1493.1094" y1="611.1973" y2="611.1973"/><text fill="#000000" font-family="sans-serif" font-size="14" lengthAdjust="spacing" textLength="196.1094" x="1292" y="628.3291">__init__(self, product_id, name)</text><text fill="#000000" font-family="sans-serif" font-size="14" lengthAdjust="spacing" textLength="88.7031" x="1292" y="644.4277">get_price(self)</text></g><!--class Methods--><g id="elem_Methods"><rect codeLine="45" fill="#F1F1F1" height="80.1973" id="Methods" rx="2.5" ry="2.5" style="stroke:#181818;stroke-width:0.5;" width="164.8311" x="1334.5" y="159.5"/><ellipse cx="1385.8174" cy="175.5" fill="#E3664A" rx="11" ry="11" style="stroke:#181818;stroke-width:1.0;"/><path d="M1390.6924,173.7344 Q1390.6924,176.2031 1390.0049,177.6719 Q1389.3174,179.1406 1388.1611,179.1406 Q1386.9736,179.1406 1386.9736,177.8281 L1386.9736,177.7656 L1386.9893,177.4375 L1386.9424,177.4375 Q1386.6299,178.2188 1386.0986,178.6875 Q1385.583,179.1406 1384.9893,179.1406 Q1384.0986,179.1406 1383.5986,178.3125 Q1383.1143,177.4688 1383.1143,175.9375 Q1383.1143,174.6094 1383.5205,173.4219 Q1383.9268,172.2344 1384.6143,171.5469 Q1385.3018,170.8594 1386.1611,170.8594 Q1386.708,170.8594 1387.0518,171.2188 Q1387.4111,171.5781 1387.5205,172.2969 L1387.5674,172.2969 L1387.833,171.0469 L1388.958,171.0469 L1388.1455,175.25 Q1387.8018,177 1387.8018,177.5625 Q1387.8018,177.8438 1387.8799,177.9844 Q1387.9736,178.125 1388.208,178.125 Q1388.833,178.125 1389.208,176.9375 Q1389.5986,175.7344 1389.5986,173.75 Q1389.5986,171.5 1388.708,170.125 Q1387.833,168.7344 1386.3799,168.7344 Q1385.1455,168.7344 1384.2236,169.6406 Q1383.3018,170.5313 1382.8018,172.1406 Q1382.3174,173.75 1382.3174,175.7344 Q1382.3174,178.2969 1383.2549,179.7969 Q1384.208,181.2813 1385.833,181.2813 Q1386.6143,181.2813 1387.333,180.9844 Q1388.0518,180.7031 1388.8955,179.9688 L1389.4893,180.7813 Q1388.5361,181.6094 1387.6299,181.9688 Q1386.7393,182.3438 1385.7549,182.3438 Q1384.3799,182.3438 1383.333,181.5313 Q1382.3018,180.7344 1381.7393,179.2188 Q1381.1768,177.7031 1381.1768,175.7344 Q1381.1768,173.3594 1381.8174,171.5313 Q1382.458,169.6875 1383.6455,168.6875 Q1384.833,167.6875 1386.3955,167.6875 Q1387.708,167.6875 1388.6768,168.4375 Q1389.6455,169.1875 1390.1611,170.5625 Q1390.6924,171.9375 1390.6924,173.7344 Z M1387.083,173.4844 Q1387.083,171.875 1386.1768,171.875 Q1385.6768,171.875 1385.2705,172.4531 Q1384.8643,173.0156 1384.6299,173.9688 Q1384.4111,174.9219 1384.4111,175.9219 Q1384.4111,178.0938 1385.1768,178.0938 Q1385.7705,178.0938 1386.1924,177.375 Q1386.6143,176.6563 1386.8486,175.3594 Q1387.083,174.0625 1387.083,173.4844 Z " fill="#000000"/><text fill="#000000" font-family="sans-serif" font-size="14" lengthAdjust="spacing" textLength="53.6963" x="1406.3174" y="180.5825">Methods</text><line style="stroke:#181818;stroke-width:0.5;" x1="1335.5" x2="1498.3311" y1="191.5" y2="191.5"/><line style="stroke:#181818;stroke-width:0.5;" x1="1335.5" x2="1498.3311" y1="199.5" y2="199.5"/><text fill="#000000" font-family="sans-serif" font-size="14" lengthAdjust="spacing" textLength="152.8311" x="1340.5" y="216.6318">fancyFunc(order: Order')</text><text fill="#000000" font-family="sans-serif" font-size="14" lengthAdjust="spacing" textLength="73.9102" x="1340.5" y="232.7305">funkyFunc()</text></g><!--class Customer--><g id="elem_Customer"><rect codeLine="23" fill="#F1F1F1" height="144.5918" id="Customer" rx="2.5" ry="2.5" style="stroke:#181818;stroke-width:0.5;" width="218.9854" x="983.5" y="127"/><ellipse cx="1058.4014" cy="143" fill="#ADD1B2" rx="11" ry="11" style="stroke:#181818;stroke-width:1.0;"/><path d="M1056.0576,142.8438 Q1056.0576,144.7188 1056.6357,145.7344 Q1057.2139,146.7344 1058.3701,146.7344 Q1059.7139,146.7344 1060.3701,144.7188 L1062.6357,145.1406 Q1061.5264,148.6719 1058.3545,148.6719 Q1056.0107,148.6719 1054.792,147.1875 Q1053.5732,145.7031 1053.5732,142.8438 Q1053.5732,137.125 1058.2764,137.125 Q1059.8232,137.125 1060.8545,137.9375 Q1061.9014,138.75 1062.4014,140.3594 L1060.1357,140.9063 Q1059.9014,140.0313 1059.417,139.5469 Q1058.9326,139.0469 1058.3076,139.0469 Q1056.0576,139.0469 1056.0576,142.8438 Z " fill="#000000"/><text fill="#000000" font-family="sans-serif" font-size="14" lengthAdjust="spacing" textLength="60.6826" x="1078.9014" y="148.0825">Customer</text><line style="stroke:#181818;stroke-width:0.5;" x1="984.5" x2="1201.4854" y1="159" y2="159"/><text fill="#000000" font-family="sans-serif" font-size="14" lengthAdjust="spacing" textLength="117.5029" x="989.5" y="176.1318">customer_id: None</text><text fill="#000000" font-family="sans-serif" font-size="14" lengthAdjust="spacing" textLength="76.2686" x="989.5" y="192.2305">name: None</text><text fill="#000000" font-family="sans-serif" font-size="14" lengthAdjust="spacing" textLength="80.9307" x="989.5" y="208.3291">orders: None</text><line style="stroke:#181818;stroke-width:0.5;" x1="984.5" x2="1201.4854" y1="215.2959" y2="215.2959"/><text fill="#000000" font-family="sans-serif" font-size="14" lengthAdjust="spacing" textLength="206.9854" x="989.5" y="232.4277">__init__(self, customer_id, name)</text><text fill="#000000" font-family="sans-serif" font-size="14" lengthAdjust="spacing" textLength="175.0752" x="989.5" y="248.5264">add_order(self, Order order)</text><text fill="#000000" font-family="sans-serif" font-size="14" lengthAdjust="spacing" textLength="145.5303" x="989.5" y="264.625">int get_total_spent(self)</text></g><!--class DigitalProduct--><g id="elem_DigitalProduct"><rect codeLine="31" fill="#F1F1F1" height="112.3945" id="DigitalProduct" rx="2.5" ry="2.5" style="stroke:#181818;stroke-width:0.5;" width="306.1572" x="281" y="753"/><ellipse cx="386.2529" cy="769" fill="#ADD1B2" rx="11" ry="11" style="stroke:#181818;stroke-width:1.0;"/><path d="M383.9092,768.8438 Q383.9092,770.7188 384.4873,771.7344 Q385.0654,772.7344 386.2217,772.7344 Q387.5654,772.7344 388.2217,770.7188 L390.4873,771.1406 Q389.3779,774.6719 386.2061,774.6719 Q383.8623,774.6719 382.6436,773.1875 Q381.4248,771.7031 381.4248,768.8438 Q381.4248,763.125 386.1279,763.125 Q387.6748,763.125 388.7061,763.9375 Q389.7529,764.75 390.2529,766.3594 L387.9873,766.9063 Q387.7529,766.0313 387.2686,765.5469 Q386.7842,765.0469 386.1592,765.0469 Q383.9092,765.0469 383.9092,768.8438 Z " fill="#000000"/><text fill="#000000" font-family="sans-serif" font-size="14" lengthAdjust="spacing" textLength="87.1514" x="406.7529" y="774.0825">DigitalProduct</text><line style="stroke:#181818;stroke-width:0.5;" x1="282" x2="586.1572" y1="785" y2="785"/><text fill="#000000" font-family="sans-serif" font-size="14" lengthAdjust="spacing" textLength="71.5928" x="287" y="802.1318">price: None</text><text fill="#000000" font-family="sans-serif" font-size="14" lengthAdjust="spacing" textLength="93.3926" x="287" y="818.2305">discount: None</text><line style="stroke:#181818;stroke-width:0.5;" x1="282" x2="586.1572" y1="825.1973" y2="825.1973"/><text fill="#000000" font-family="sans-serif" font-size="14" lengthAdjust="spacing" textLength="294.1572" x="287" y="842.3291">__init__(self, product_id, name, price, discount)</text><text fill="#000000" font-family="sans-serif" font-size="14" lengthAdjust="spacing" textLength="107.3789" x="287" y="858.4277">int get_price(self)</text></g><!--class PhysicalProduct--><g id="elem_PhysicalProduct"><rect codeLine="37" fill="#F1F1F1" height="96.2959" id="PhysicalProduct" rx="2.5" ry="2.5" style="stroke:#181818;stroke-width:0.5;" width="246.2334" x="622" y="761"/><ellipse cx="690.6772" cy="777" fill="#ADD1B2" rx="11" ry="11" style="stroke:#181818;stroke-width:1.0;"/><path d="M688.3335,776.8438 Q688.3335,778.7188 688.9116,779.7344 Q689.4897,780.7344 690.646,780.7344 Q691.9897,780.7344 692.646,778.7188 L694.9116,779.1406 Q693.8022,782.6719 690.6304,782.6719 Q688.2866,782.6719 687.0679,781.1875 Q685.8491,779.7031 685.8491,776.8438 Q685.8491,771.125 690.5522,771.125 Q692.0991,771.125 693.1304,771.9375 Q694.1772,772.75 694.6772,774.3594 L692.4116,774.9063 Q692.1772,774.0313 691.6929,773.5469 Q691.2085,773.0469 690.5835,773.0469 Q688.3335,773.0469 688.3335,776.8438 Z " fill="#000000"/><text fill="#000000" font-family="sans-serif" font-size="14" lengthAdjust="spacing" textLength="100.3789" x="711.1772" y="782.0825">PhysicalProduct</text><line style="stroke:#181818;stroke-width:0.5;" x1="623" x2="867.2334" y1="793" y2="793"/><text fill="#000000" font-family="sans-serif" font-size="14" lengthAdjust="spacing" textLength="71.5928" x="628" y="810.1318">price: None</text><line style="stroke:#181818;stroke-width:0.5;" x1="623" x2="867.2334" y1="817.0986" y2="817.0986"/><text fill="#000000" font-family="sans-serif" font-size="14" lengthAdjust="spacing" textLength="234.2334" x="628" y="834.2305">__init__(self, product_id, name, price)</text><text fill="#000000" font-family="sans-serif" font-size="14" lengthAdjust="spacing" textLength="88.7031" x="628" y="850.3291">get_price(self)</text></g><!--class Productfactory--><g id="elem_Productfactory"><rect codeLine="42" fill="#F1F1F1" height="64.0986" id="Productfactory" rx="2.5" ry="2.5" style="stroke:#181818;stroke-width:0.5;" width="385.2422" x="517.5" y="563"/><ellipse cx="660.7402" cy="579" fill="#ADD1B2" rx="11" ry="11" style="stroke:#181818;stroke-width:1.0;"/><path d="M658.3965,578.8438 Q658.3965,580.7188 658.9746,581.7344 Q659.5527,582.7344 660.709,582.7344 Q662.0527,582.7344 662.709,580.7188 L664.9746,581.1406 Q663.8652,584.6719 660.6934,584.6719 Q658.3496,584.6719 657.1309,583.1875 Q655.9121,581.7031 655.9121,578.8438 Q655.9121,573.125 660.6152,573.125 Q662.1621,573.125 663.1934,573.9375 Q664.2402,574.75 664.7402,576.3594 L662.4746,576.9063 Q662.2402,576.0313 661.7559,575.5469 Q661.2715,575.0469 660.6465,575.0469 Q658.3965,575.0469 658.3965,578.8438 Z " fill="#000000"/><text fill="#000000" font-family="sans-serif" font-size="14" lengthAdjust="spacing" textLength="90.2617" x="681.2402" y="584.0825">Productfactory</text><line style="stroke:#181818;stroke-width:0.5;" x1="518.5" x2="901.7422" y1="595" y2="595"/><line style="stroke:#181818;stroke-width:0.5;" x1="518.5" x2="901.7422" y1="603" y2="603"/><text fill="#000000" font-family="sans-serif" font-size="14" lengthAdjust="spacing" textLength="373.2422" x="523.5" y="620.1318">PhysicalProduct | DigitalProduct create_product(self, str pid)</text></g><!--class Methods--><g id="elem_Methods"><rect codeLine="49" fill="#F1F1F1" height="64.0986" id="Methods" rx="2.5" ry="2.5" style="stroke:#181818;stroke-width:0.5;" width="435.7256" x="46" y="563"/><ellipse cx="232.7646" cy="579" fill="#E3664A" rx="11" ry="11" style="stroke:#181818;stroke-width:1.0;"/><path d="M237.6396,577.2344 Q237.6396,579.7031 236.9521,581.1719 Q236.2646,582.6406 235.1084,582.6406 Q233.9209,582.6406 233.9209,581.3281 L233.9209,581.2656 L233.9365,580.9375 L233.8896,580.9375 Q233.5771,581.7188 233.0459,582.1875 Q232.5303,582.6406 231.9365,582.6406 Q231.0459,582.6406 230.5459,581.8125 Q230.0615,580.9688 230.0615,579.4375 Q230.0615,578.1094 230.4678,576.9219 Q230.874,575.7344 231.5615,575.0469 Q232.249,574.3594 233.1084,574.3594 Q233.6553,574.3594 233.999,574.7188 Q234.3584,575.0781 234.4678,575.7969 L234.5146,575.7969 L234.7803,574.5469 L235.9053,574.5469 L235.0928,578.75 Q234.749,580.5 234.749,581.0625 Q234.749,581.3438 234.8271,581.4844 Q234.9209,581.625 235.1553,581.625 Q235.7803,581.625 236.1553,580.4375 Q236.5459,579.2344 236.5459,577.25 Q236.5459,575 235.6553,573.625 Q234.7803,572.2344 233.3271,572.2344 Q232.0928,572.2344 231.1709,573.1406 Q230.249,574.0313 229.749,575.6406 Q229.2646,577.25 229.2646,579.2344 Q229.2646,581.7969 230.2021,583.2969 Q231.1553,584.7813 232.7803,584.7813 Q233.5615,584.7813 234.2803,584.4844 Q234.999,584.2031 235.8428,583.4688 L236.4365,584.2813 Q235.4834,585.1094 234.5771,585.4688 Q233.6865,585.8438 232.7021,585.8438 Q231.3271,585.8438 230.2803,585.0313 Q229.249,584.2344 228.6865,582.7188 Q228.124,581.2031 228.124,579.2344 Q228.124,576.8594 228.7646,575.0313 Q229.4053,573.1875 230.5928,572.1875 Q231.7803,571.1875 233.3428,571.1875 Q234.6553,571.1875 235.624,571.9375 Q236.5928,572.6875 237.1084,574.0625 Q237.6396,575.4375 237.6396,577.2344 Z M234.0303,576.9844 Q234.0303,575.375 233.124,575.375 Q232.624,575.375 232.2178,575.9531 Q231.8115,576.5156 231.5771,577.4688 Q231.3584,578.4219 231.3584,579.4219 Q231.3584,581.5938 232.124,581.5938 Q232.7178,581.5938 233.1396,580.875 Q233.5615,580.1563 233.7959,578.8594 Q234.0303,577.5625 234.0303,576.9844 Z " fill="#000000"/><text fill="#000000" font-family="sans-serif" font-size="14" lengthAdjust="spacing" textLength="53.6963" x="253.2646" y="584.0825">Methods</text><line style="stroke:#181818;stroke-width:0.5;" x1="47" x2="480.7256" y1="595" y2="595"/><line style="stroke:#181818;stroke-width:0.5;" x1="47" x2="480.7256" y1="603" y2="603"/><text fill="#000000" font-family="sans-serif" font-size="14" lengthAdjust="spacing" textLength="423.7256" x="52" y="620.1318">PhysicalProduct | DigitalProduct create_product(self: None, pid: 'str')</text></g><!--reverse link NewOrder to Product--><g id="link_NewOrder_Product"><path codeLine="52" d="M1623.24,483.2572 C1577.35,505.0472 1537.46,523.98 1494.2,544.53 " fill="none" id="NewOrder-backto-Product" style="stroke:#181818;stroke-width:1.0;"/><polygon fill="#181818" points="1634.08,478.11,1626.9443,477.0702,1623.24,483.2572,1630.3757,484.2969,1634.08,478.11" style="stroke:#181818;stroke-width:1.0;"/></g><!--reverse link Order to Product--><g id="link_Order_Product"><path codeLine="53" d="M1405.6908,489.9759 C1402.7008,509.8059 1401.21,519.66 1398.31,538.89 " fill="none" id="Order-backto-Product" style="stroke:#181818;stroke-width:1.0;"/><polygon fill="#181818" points="1407.48,478.11,1402.6301,483.4466,1405.6908,489.9759,1410.5407,484.6393,1407.48,478.11" style="stroke:#181818;stroke-width:1.0;"/></g><!--reverse link Product to DigitalProduct--><g id="link_Product_DigitalProduct"><path codeLine="54" d="M1268.4329,624.1723 C1173.1829,645.9523 1045.72,674.26 919,699 C780.02,726.13 742.52,719.24 605,753 C599.09,754.45 593.1,756 587.05,757.62 " fill="none" id="Product-backto-DigitalProduct" style="stroke:#181818;stroke-width:1.0;"/><polygon fill="none" points="1285.98,620.16,1267.0954,618.3233,1269.7703,630.0214,1285.98,620.16" style="stroke:#181818;stroke-width:1.0;"/></g><!--reverse link Product to PhysicalProduct--><g id="link_Product_PhysicalProduct"><path codeLine="55" d="M1268.55,635.9205 C1154.55,673.3905 989.18,727.74 868.22,767.5 " fill="none" id="Product-backto-PhysicalProduct" style="stroke:#181818;stroke-width:1.0;"/><polygon fill="none" points="1285.65,630.3,1266.6765,630.2205,1270.4235,641.6205,1285.65,630.3" style="stroke:#181818;stroke-width:1.0;"/></g><!--reverse link Methods to Order--><g id="link_Methods_Order"><path codeLine="56" d="M1417,245.97 C1417,276.82 1417,314.29 1417,349.95 " fill="none" id="Methods-backto-Order" style="stroke:#181818;stroke-width:1.0;"/><polygon fill="#181818" points="1417,239.97,1413,248.97,1417,244.97,1421,248.97,1417,239.97" style="stroke:#181818;stroke-width:1.0;"/><text fill="#000000" font-family="sans-serif" font-size="13" lengthAdjust="spacing" textLength="109.1162" x="1418" y="317.1938">used by fancyFunc</text></g><!--reverse link Customer to Order--><g id="link_Customer_Order"><path codeLine="57" d="M1207.2575,275.4401 C1245.6575,300.6201 1283.47,325.42 1320.72,349.85 " fill="none" id="Customer-backto-Order" style="stroke:#181818;stroke-width:1.0;"/><polygon fill="#181818" points="1202.24,272.15,1207.5728,280.4302,1206.4212,274.8918,1211.9596,273.7402,1202.24,272.15" style="stroke:#181818;stroke-width:1.0;"/></g><!--reverse link Productfactory to PhysicalProduct--><g id="link_Productfactory_PhysicalProduct"><path codeLine="58" d="M716.1374,633.1999 C721.9574,668.4499 730.5,720.19 737.22,760.89 " fill="none" id="Productfactory-backto-PhysicalProduct" style="stroke:#181818;stroke-width:1.0;"/><polygon fill="#181818" points="715.16,627.28,712.6795,636.8114,715.9745,632.2132,720.5727,635.5082,715.16,627.28" style="stroke:#181818;stroke-width:1.0;"/></g><!--reverse link Productfactory to DigitalProduct--><g id="link_Productfactory_DigitalProduct"><path codeLine="59" d="M692.234,632.3334 C677.324,660.5134 654.88,696.34 623,723 C609.75,734.08 594.83,743.99 579.32,752.78 " fill="none" id="Productfactory-backto-DigitalProduct" style="stroke:#181818;stroke-width:1.0;"/><polygon fill="#181818" points="695.04,627.03,687.2953,633.1144,692.7016,631.4495,694.3666,636.8558,695.04,627.03" style="stroke:#181818;stroke-width:1.0;"/></g><!--reverse link Methods to PhysicalProduct--><g id="link_Methods_PhysicalProduct"><path codeLine="60" d="M339.9504,629.4698 C419.9304,664.7198 545.78,720.19 638.33,760.99 " fill="none" id="Methods-backto-PhysicalProduct" style="stroke:#181818;stroke-width:1.0;"/><polygon fill="#181818" points="334.46,627.05,341.0824,634.34,339.0353,629.0665,344.3088,627.0195,334.46,627.05" style="stroke:#181818;stroke-width:1.0;"/><text fill="#000000" font-family="sans-serif" font-size="13" lengthAdjust="spacing" textLength="135.8652" x="548" y="720.1938">used by create_product</text></g><!--reverse link Methods to DigitalProduct--><g id="link_Methods_DigitalProduct"><path codeLine="61" d="M266.6452,633.1919 C269.7652,660.7419 277.16,694.83 298,723 C306.2,734.08 316.31,744.05 327.29,752.93 " fill="none" id="Methods-backto-DigitalProduct" style="stroke:#181818;stroke-width:1.0;"/><polygon fill="#181818" points="265.97,627.23,263.0082,636.623,266.5326,632.1982,270.9574,635.7227,265.97,627.23" style="stroke:#181818;stroke-width:1.0;"/><text fill="#000000" font-family="sans-serif" font-size="13" lengthAdjust="spacing" textLength="135.8652" x="299" y="720.1938">used by create_product</text></g><text fill="#888888" font-family="sans-serif" font-size="10" lengthAdjust="spacing" textLength="60.5957" x="940.4141" y="920.3799">Generated by</text><text fill="#888888" font-family="sans-serif" font-size="10" font-style="italic" lengthAdjust="spacing" textLength="37.7979" x="1003.7881" y="920.3799">py2puml</text><!--SRC=[pPRBKi8m58RtVOguGfmACouPTZewBXJU81EIKyZO9ZMNOJhYkviclG3Q5fI5cquQyfzyvpydALUv8kkC8AlXMHXG6J1E32m9VIDhq2WXgOOeeYdH6kLACalDLggKJLP4GtYymdQX62Zq4I4aon7cR8PUfG0tKObcQ1a6RkhT4c6uAPer67F13SRN6j8aRcB4jQOE4ZVIiLDnOH0bARMf8yP66fBw0EFein_utz6IbJQAE6KlTXt-e-NSHnSaWox6TddirvL0Qp0uLvp2e6dKQYCpK9FxQk0HwjbE1c-CxaBQaxTCX37iPTMYK2a_KtjOOdltiCv1c3xuwaMtWmU-vavwwAIpe85aN5DfXJdLo3ZeuqQuZpdexdV0vQRGdFOHdWPqSe5_G0Y3nFMZL8KdEARQeICZgOAogwiO5PhhQPHpvXjS25SomwNeQkuNC1l9jDyk8O8MZrRGQr_vMMY3KPbJOiLR-AalxFUaziF_9fjWVrpcCqCZbzcet7_eGhovlHqup57l5VLxVPtAV7SSOkXGN2BYaSFHGCtdtMakGWEupnD3gwBjZEYKMseeRdJUIPZ_CV5BRD1Ng-wkFv-yjVpmC5nmnyDKEZTCf7J_Iz0J251ktY-PJlFYBhTPEfr-0G00]--></g></svg>