<svg xmlns="http://www.w3.org/2000/svg" xmlns:xlink="http://www.w3.org/1999/xlink" contentStyleType="text/css" height="487px" preserveAspectRatio="none" style="width:1417px;height:487px;background:#FFFFFF;" version="1.1" viewBox="0 0 1417 487" width="1417px" zoomAndPan="magnify"><defs/><g><!--class abc.ABC--><g id="elem_abc.ABC"><rect codeLine="2" fill="#F1F1F1" height="48" id="abc.ABC" rx="2.5" ry="2.5" style="stroke:#181818;stroke-width:0.5;" width="87.248" x="99.5" y="400"/><ellipse cx="114.5" cy="416" fill="#ADD1B2" rx="11" ry="11" style="stroke:#181818;stroke-width:1.0;"/><path d="M112.1563,415.8438 Q112.1563,417.7188 112.7344,418.7344 Q113.3125,419.7344 114.4688,419.7344 Q115.8125,419.7344 116.4688,417.7188 L118.7344,418.1406 Q117.625,421.6719 114.4531,421.6719 Q112.1094,421.6719 110.8906,420.1875 Q109.6719,418.7031 109.6719,415.8438 Q109.6719,410.125 114.375,410.125 Q115.9219,410.125 116.9531,410.9375 Q118,411.75 118.5,413.3594 L116.2344,413.9063 Q116,413.0313 115.5156,412.5469 Q115.0313,412.0469 114.4063,412.0469 Q112.1563,412.0469 112.1563,415.8438 Z " fill="#000000"/><text fill="#000000" font-family="sans-serif" font-size="14" lengthAdjust="spacing" textLength="55.248" x="128.5" y="421.0825">abc.ABC</text><line style="stroke:#181818;stroke-width:0.5;" x1="100.5" x2="185.748" y1="432" y2="432"/><line style="stroke:#181818;stroke-width:0.5;" x1="100.5" x2="185.748" y1="440" y2="440"/></g><!--class productworld.base.base.NewOrder--><g id="elem_productworld.base.base.NewOrder"><rect codeLine="4" fill="#F1F1F1" height="112.3945" id="productworld.base.base.NewOrder" rx="2.5" ry="2.5" style="stroke:#181818;stroke-width:0.5;" width="248.3301" x="222" y="368"/><ellipse cx="237" cy="384" fill="#ADD1B2" rx="11" ry="11" style="stroke:#181818;stroke-width:1.0;"/><path d="M234.6563,383.8438 Q234.6563,385.7188 235.2344,386.7344 Q235.8125,387.7344 236.9688,387.7344 Q238.3125,387.7344 238.9688,385.7188 L241.2344,386.1406 Q240.125,389.6719 236.9531,389.6719 Q234.6094,389.6719 233.3906,388.1875 Q232.1719,386.7031 232.1719,383.8438 Q232.1719,378.125 236.875,378.125 Q238.4219,378.125 239.4531,378.9375 Q240.5,379.75 241,381.3594 L238.7344,381.9063 Q238.5,381.0313 238.0156,380.5469 Q237.5313,380.0469 236.9063,380.0469 Q234.6563,380.0469 234.6563,383.8438 Z " fill="#000000"/><text fill="#000000" font-family="sans-serif" font-size="14" lengthAdjust="spacing" textLength="216.3301" x="251" y="389.0825">productworld.base.base.NewOrder</text><line style="stroke:#181818;stroke-width:0.5;" x1="223" x2="469.3301" y1="400" y2="400"/><text fill="#000000" font-family="sans-serif" font-size="14" lengthAdjust="spacing" textLength="51.3652" x="228" y="417.1318">order_id</text><text fill="#000000" font-family="sans-serif" font-size="14" lengthAdjust="spacing" textLength="46.6963" x="228" y="433.2305">product</text><text fill="#000000" font-family="sans-serif" font-size="14" lengthAdjust="spacing" textLength="49.0342" x="228" y="449.3291">quantity</text><line style="stroke:#181818;stroke-width:0.5;" x1="223" x2="469.3301" y1="456.2959" y2="456.2959"/><text fill="#000000" font-family="sans-serif" font-size="14" lengthAdjust="spacing" textLength="134.2305" x="228" y="473.4277">calculate_total() -&gt; int</text></g><!--class productworld.base.base.Order--><g id="elem_productworld.base.base.Order"><rect codeLine="10" fill="#F1F1F1" height="112.3945" id="productworld.base.base.Order" rx="2.5" ry="2.5" style="stroke:#181818;stroke-width:0.5;" width="220.3232" x="505" y="368"/><ellipse cx="520" cy="384" fill="#ADD1B2" rx="11" ry="11" style="stroke:#181818;stroke-width:1.0;"/><path d="M517.6563,383.8438 Q517.6563,385.7188 518.2344,386.7344 Q518.8125,387.7344 519.9688,387.7344 Q521.3125,387.7344 521.9688,385.7188 L524.2344,386.1406 Q523.125,389.6719 519.9531,389.6719 Q517.6094,389.6719 516.3906,388.1875 Q515.1719,386.7031 515.1719,383.8438 Q515.1719,378.125 519.875,378.125 Q521.4219,378.125 522.4531,378.9375 Q523.5,379.75 524,381.3594 L521.7344,381.9063 Q521.5,381.0313 521.0156,380.5469 Q520.5313,380.0469 519.9063,380.0469 Q517.6563,380.0469 517.6563,383.8438 Z " fill="#000000"/><text fill="#000000" font-family="sans-serif" font-size="14" lengthAdjust="spacing" textLength="188.3232" x="534" y="389.0825">productworld.base.base.Order</text><line style="stroke:#181818;stroke-width:0.5;" x1="506" x2="724.3232" y1="400" y2="400"/><text fill="#000000" font-family="sans-serif" font-size="14" lengthAdjust="spacing" textLength="51.3652" x="511" y="417.1318">order_id</text><text fill="#000000" font-family="sans-serif" font-size="14" lengthAdjust="spacing" textLength="46.6963" x="511" y="433.2305">product</text><text fill="#000000" font-family="sans-serif" font-size="14" lengthAdjust="spacing" textLength="49.0342" x="511" y="449.3291">quantity</text><line style="stroke:#181818;stroke-width:0.5;" x1="506" x2="724.3232" y1="456.2959" y2="456.2959"/><text fill="#000000" font-family="sans-serif" font-size="14" lengthAdjust="spacing" textLength="134.2305" x="511" y="473.4277">calculate_total() -&gt; int</text></g><!--class productworld.base.base.Product--><g id="elem_productworld.base.base.Product"><rect codeLine="16" fill="#F1F1F1" height="96.2959" id="productworld.base.base.Product" rx="2.5" ry="2.5" style="stroke:#181818;stroke-width:0.5;" width="232.7852" x="229.5" y="196"/><ellipse cx="244.5" cy="212" fill="#ADD1B2" rx="11" ry="11" style="stroke:#181818;stroke-width:1.0;"/><path d="M242.1563,211.8438 Q242.1563,213.7188 242.7344,214.7344 Q243.3125,215.7344 244.4688,215.7344 Q245.8125,215.7344 246.4688,213.7188 L248.7344,214.1406 Q247.625,217.6719 244.4531,217.6719 Q242.1094,217.6719 240.8906,216.1875 Q239.6719,214.7031 239.6719,211.8438 Q239.6719,206.125 244.375,206.125 Q245.9219,206.125 246.9531,206.9375 Q248,207.75 248.5,209.3594 L246.2344,209.9063 Q246,209.0313 245.5156,208.5469 Q245.0313,208.0469 244.4063,208.0469 Q242.1563,208.0469 242.1563,211.8438 Z " fill="#000000"/><text fill="#000000" font-family="sans-serif" font-size="14" lengthAdjust="spacing" textLength="200.7852" x="258.5" y="217.0825">productworld.base.base.Product</text><line style="stroke:#181818;stroke-width:0.5;" x1="230.5" x2="461.2852" y1="228" y2="228"/><text fill="#000000" font-family="sans-serif" font-size="14" lengthAdjust="spacing" textLength="35.0205" x="235.5" y="245.1318">name</text><text fill="#000000" font-family="sans-serif" font-size="14" lengthAdjust="spacing" textLength="65.3789" x="235.5" y="261.2305">product_id</text><line style="stroke:#181818;stroke-width:0.5;" x1="230.5" x2="461.2852" y1="268.1973" y2="268.1973"/><text fill="#000000" font-family="sans-serif" font-size="14" font-style="italic" lengthAdjust="spacing" textLength="66.917" x="235.5" y="285.3291">get_price()</text></g><!--class productworld.base.customer.Customer--><g id="elem_productworld.base.customer.Customer"><rect codeLine="21" fill="#F1F1F1" height="128.4932" id="productworld.base.customer.Customer" rx="2.5" ry="2.5" style="stroke:#181818;stroke-width:0.5;" width="272.4336" x="727" y="7"/><ellipse cx="742" cy="23" fill="#ADD1B2" rx="11" ry="11" style="stroke:#181818;stroke-width:1.0;"/><path d="M739.6563,22.8438 Q739.6563,24.7188 740.2344,25.7344 Q740.8125,26.7344 741.9688,26.7344 Q743.3125,26.7344 743.9688,24.7188 L746.2344,25.1406 Q745.125,28.6719 741.9531,28.6719 Q739.6094,28.6719 738.3906,27.1875 Q737.1719,25.7031 737.1719,22.8438 Q737.1719,17.125 741.875,17.125 Q743.4219,17.125 744.4531,17.9375 Q745.5,18.75 746,20.3594 L743.7344,20.9063 Q743.5,20.0313 743.0156,19.5469 Q742.5313,19.0469 741.9063,19.0469 Q739.6563,19.0469 739.6563,22.8438 Z " fill="#000000"/><text fill="#000000" font-family="sans-serif" font-size="14" lengthAdjust="spacing" textLength="240.4336" x="756" y="28.0825">productworld.base.customer.Customer</text><line style="stroke:#181818;stroke-width:0.5;" x1="728" x2="998.4336" y1="39" y2="39"/><text fill="#000000" font-family="sans-serif" font-size="14" lengthAdjust="spacing" textLength="76.2549" x="733" y="56.1318">customer_id</text><text fill="#000000" font-family="sans-serif" font-size="14" lengthAdjust="spacing" textLength="35.0205" x="733" y="72.2305">name</text><text fill="#000000" font-family="sans-serif" font-size="14" lengthAdjust="spacing" textLength="68.4619" x="733" y="88.3291">orders : list</text><line style="stroke:#181818;stroke-width:0.5;" x1="728" x2="998.4336" y1="95.2959" y2="95.2959"/><text fill="#000000" font-family="sans-serif" font-size="14" lengthAdjust="spacing" textLength="149.3994" x="733" y="112.4277">add_order(order: Order)</text><text fill="#000000" font-family="sans-serif" font-size="14" lengthAdjust="spacing" textLength="140.4717" x="733" y="128.5264">get_total_spent() -&gt; int</text></g><!--class productworld.products.products.DigitalProduct--><g id="elem_productworld.products.products.DigitalProduct"><rect codeLine="28" fill="#F1F1F1" height="96.2959" id="productworld.products.products.DigitalProduct" rx="2.5" ry="2.5" style="stroke:#181818;stroke-width:0.5;" width="318.3643" x="7" y="23"/><ellipse cx="22" cy="39" fill="#ADD1B2" rx="11" ry="11" style="stroke:#181818;stroke-width:1.0;"/><path d="M19.6563,38.8438 Q19.6563,40.7188 20.2344,41.7344 Q20.8125,42.7344 21.9688,42.7344 Q23.3125,42.7344 23.9688,40.7188 L26.2344,41.1406 Q25.125,44.6719 21.9531,44.6719 Q19.6094,44.6719 18.3906,43.1875 Q17.1719,41.7031 17.1719,38.8438 Q17.1719,33.125 21.875,33.125 Q23.4219,33.125 24.4531,33.9375 Q25.5,34.75 26,36.3594 L23.7344,36.9063 Q23.5,36.0313 23.0156,35.5469 Q22.5313,35.0469 21.9063,35.0469 Q19.6563,35.0469 19.6563,38.8438 Z " fill="#000000"/><text fill="#000000" font-family="sans-serif" font-size="14" lengthAdjust="spacing" textLength="286.3643" x="36" y="44.0825">productworld.products.products.DigitalProduct</text><line style="stroke:#181818;stroke-width:0.5;" x1="8" x2="324.3643" y1="55" y2="55"/><text fill="#000000" font-family="sans-serif" font-size="14" lengthAdjust="spacing" textLength="52.1445" x="13" y="72.1318">discount</text><text fill="#000000" font-family="sans-serif" font-size="14" lengthAdjust="spacing" textLength="30.3447" x="13" y="88.2305">price</text><line style="stroke:#181818;stroke-width:0.5;" x1="8" x2="324.3643" y1="95.1973" y2="95.1973"/><text fill="#000000" font-family="sans-serif" font-size="14" lengthAdjust="spacing" textLength="102.3203" x="13" y="112.3291">get_price() -&gt; int</text></g><!--class productworld.products.products.PhysicalProduct--><g id="elem_productworld.products.products.PhysicalProduct"><rect codeLine="33" fill="#F1F1F1" height="80.1973" id="productworld.products.products.PhysicalProduct" rx="2.5" ry="2.5" style="stroke:#181818;stroke-width:0.5;" width="331.5918" x="360" y="31"/><ellipse cx="375" cy="47" fill="#ADD1B2" rx="11" ry="11" style="stroke:#181818;stroke-width:1.0;"/><path d="M372.6563,46.8438 Q372.6563,48.7188 373.2344,49.7344 Q373.8125,50.7344 374.9688,50.7344 Q376.3125,50.7344 376.9688,48.7188 L379.2344,49.1406 Q378.125,52.6719 374.9531,52.6719 Q372.6094,52.6719 371.3906,51.1875 Q370.1719,49.7031 370.1719,46.8438 Q370.1719,41.125 374.875,41.125 Q376.4219,41.125 377.4531,41.9375 Q378.5,42.75 379,44.3594 L376.7344,44.9063 Q376.5,44.0313 376.0156,43.5469 Q375.5313,43.0469 374.9063,43.0469 Q372.6563,43.0469 372.6563,46.8438 Z " fill="#000000"/><text fill="#000000" font-family="sans-serif" font-size="14" lengthAdjust="spacing" textLength="299.5918" x="389" y="52.0825">productworld.products.products.PhysicalProduct</text><line style="stroke:#181818;stroke-width:0.5;" x1="361" x2="690.5918" y1="63" y2="63"/><text fill="#000000" font-family="sans-serif" font-size="14" lengthAdjust="spacing" textLength="30.3447" x="366" y="80.1318">price</text><line style="stroke:#181818;stroke-width:0.5;" x1="361" x2="690.5918" y1="87.0986" y2="87.0986"/><text fill="#000000" font-family="sans-serif" font-size="14" lengthAdjust="spacing" textLength="66.917" x="366" y="104.2305">get_price()</text></g><!--class productworld.products.products.Productfactory--><g id="elem_productworld.products.products.Productfactory"><rect codeLine="37" fill="#F1F1F1" height="64.0986" id="productworld.products.products.Productfactory" rx="2.5" ry="2.5" style="stroke:#181818;stroke-width:0.5;" width="376.2939" x="1034" y="39"/><ellipse cx="1073.6687" cy="55" fill="#ADD1B2" rx="11" ry="11" style="stroke:#181818;stroke-width:1.0;"/><path d="M1071.325,54.8438 Q1071.325,56.7188 1071.9031,57.7344 Q1072.4812,58.7344 1073.6375,58.7344 Q1074.9812,58.7344 1075.6375,56.7188 L1077.9031,57.1406 Q1076.7937,60.6719 1073.6218,60.6719 Q1071.2781,60.6719 1070.0593,59.1875 Q1068.8406,57.7031 1068.8406,54.8438 Q1068.8406,49.125 1073.5437,49.125 Q1075.0906,49.125 1076.1218,49.9375 Q1077.1687,50.75 1077.6687,52.3594 L1075.4031,52.9063 Q1075.1687,52.0313 1074.6843,51.5469 Q1074.2,51.0469 1073.575,51.0469 Q1071.325,51.0469 1071.325,54.8438 Z " fill="#000000"/><text fill="#000000" font-family="sans-serif" font-size="14" lengthAdjust="spacing" textLength="289.4746" x="1093.1506" y="60.0825">productworld.products.products.Productfactory</text><line style="stroke:#181818;stroke-width:0.5;" x1="1035" x2="1409.2939" y1="71" y2="71"/><line style="stroke:#181818;stroke-width:0.5;" x1="1035" x2="1409.2939" y1="79" y2="79"/><text fill="#000000" font-family="sans-serif" font-size="14" lengthAdjust="spacing" textLength="364.2939" x="1040" y="96.1318">create_product(pid: str) -&gt; PhysicalProduct | DigitalProduct</text></g><!--link productworld.base.base.Product to abc.ABC--><g id="link_productworld.base.base.Product_abc.ABC"><path codeLine="40" d="M291.16,292.06 C264.71,314.87 232.59,342.73 204,368 C192.25,378.39 192.6782,377.9242 181.7682,387.7942 " fill="none" id="productworld.base.base.Product-to-abc.ABC" style="stroke:#181818;stroke-width:1.0;"/><polygon fill="none" points="168.42,399.87,185.7935,392.2436,177.743,383.3448,168.42,399.87" style="stroke:#181818;stroke-width:1.0;"/></g><!--link productworld.products.products.DigitalProduct to productworld.base.base.Product--><g id="link_productworld.products.products.DigitalProduct_productworld.base.base.Product"><path codeLine="41" d="M215.66,119.18 C240.84,143.1 258.2895,159.6731 283.4495,183.5731 " fill="none" id="productworld.products.products.DigitalProduct-to-productworld.base.base.Product" style="stroke:#181818;stroke-width:1.0;"/><polygon fill="none" points="296.5,195.97,287.5818,179.2229,279.3172,187.9232,296.5,195.97" style="stroke:#181818;stroke-width:1.0;"/></g><!--link productworld.products.products.PhysicalProduct to productworld.base.base.Product--><g id="link_productworld.products.products.PhysicalProduct_productworld.base.base.Product"><path codeLine="42" d="M484.7,111.23 C458.24,136.37 436.7826,156.7652 408.8026,183.3352 " fill="none" id="productworld.products.products.PhysicalProduct-to-productworld.base.base.Product" style="stroke:#181818;stroke-width:1.0;"/><polygon fill="none" points="395.75,195.73,412.9341,187.6861,404.671,178.9844,395.75,195.73" style="stroke:#181818;stroke-width:1.0;"/></g><!--link productworld.base.base.Product to productworld.base.base.NewOrder--><g id="link_productworld.base.base.Product_productworld.base.base.NewOrder"><path codeLine="43" d="M346,292.23 C346,315.51 346,331.72 346,355.97 " fill="none" id="productworld.base.base.Product-to-productworld.base.base.NewOrder" style="stroke:#181818;stroke-width:1.0;"/><polygon fill="none" points="346,367.97,350,361.97,346,355.97,342,361.97,346,367.97" style="stroke:#181818;stroke-width:1.0;"/><text fill="#000000" font-family="sans-serif" font-size="13" lengthAdjust="spacing" textLength="43.3608" x="347" y="335.1938">product</text></g><!--link productworld.base.base.Product to productworld.base.base.Order--><g id="link_productworld.base.base.Product_productworld.base.base.Order"><path codeLine="44" d="M417.03,292 C452.21,315.28 484.8928,336.9076 521.6128,361.2076 " fill="none" id="productworld.base.base.Product-to-productworld.base.base.Order" style="stroke:#181818;stroke-width:1.0;"/><polygon fill="none" points="531.62,367.83,528.8239,361.1831,521.6128,361.2076,524.4089,367.8545,531.62,367.83" style="stroke:#181818;stroke-width:1.0;"/><text fill="#000000" font-family="sans-serif" font-size="13" lengthAdjust="spacing" textLength="43.3608" x="482" y="335.1938">product</text></g><!--SRC=[lPJ1Ri8m38RlVGgBKpd00_I0jB7pXhG7g4pYiKYbwM9N207llZGDGp0WT8TTeZ-9xNpvOuL9eCOrSOEAtgb1Xs8TrBQcJ5N832DSgkdJytm4o10rxBB3SRjnLhTADjPLUhf4fdvufSsRq-H2MYB6bmEmdIgDzZA6U_NLOYr6jbugh5HReL0fLh3Anp2PWQabIPB4-0U6HRzyZoA618xkHKuCFT0EbomEbHnM96NZZA9yVEzWrRBODRdfF8eRf_-A2mZ7rVxm21JyOIYWCjnPWrgNOIqFOm71oh7VwHY3HoKtL4lAgJZXatWnA-FJRngNoWYNq8QLRMi9Ndh38bWqRoZIudFBHWrYkaW9K5T87aVenOTl0-ks3n6SPVHFwwXhuHYIDqONu5ih-749l8TpMprfedyda_ti-4zamvuifDuldmqqV739QnUooG-i-Fal_bxiej8t]--></g></svg>