<svg xmlns="http://www.w3.org/2000/svg" xmlns:xlink="http://www.w3.org/1999/xlink" contentStyleType="text/css" height="991px" preserveAspectRatio="none" style="width:1312px;height:991px;background:#FFFFFF;" version="1.1" viewBox="0 0 1312 991" width="1312px" zoomAndPan="magnify"><defs/><g><!--cluster productworld--><g id="cluster_productworld"><path d="M8.5,6 L98.9346,6 A3.75,3.75 0 0 1 101.4346,8.5 L108.4346,28.0986 L1302.5,28.0986 A2.5,2.5 0 0 1 1305,30.5986 L1305,963.5 A2.5,2.5 0 0 1 1302.5,966 L8.5,966 A2.5,2.5 0 0 1 6,963.5 L6,8.5 A2.5,2.5 0 0 1 8.5,6 " fill="none" style="stroke:#000000;stroke-width:1.5;"/><line style="stroke:#000000;stroke-width:1.5;" x1="6" x2="108.4346" y1="28.0986" y2="28.0986"/><text fill="#000000" font-family="sans-serif" font-size="14" font-weight="bold" lengthAdjust="spacing" textLength="89.4346" x="10" y="21.1318">productworld</text></g><!--cluster base--><g id="cluster_base"><path d="M823.5,164 L856.4102,164 A3.75,3.75 0 0 1 858.9102,166.5 L865.9102,186.0986 L1278.5,186.0986 A2.5,2.5 0 0 1 1281,188.5986 L1281,939.5 A2.5,2.5 0 0 1 1278.5,942 L823.5,942 A2.5,2.5 0 0 1 821,939.5 L821,166.5 A2.5,2.5 0 0 1 823.5,164 " fill="none" style="stroke:#000000;stroke-width:1.5;"/><line style="stroke:#000000;stroke-width:1.5;" x1="821" x2="865.9102" y1="186.0986" y2="186.0986"/><text fill="#000000" font-family="sans-serif" font-size="14" font-weight="bold" lengthAdjust="spacing" textLength="31.9102" x="825" y="179.1318">base</text></g><!--cluster customer--><g id="cluster_customer"><path d="M971.5,207 L1035.5205,207 A3.75,3.75 0 0 1 1038.0205,209.5 L1045.0205,229.0986 L1174.5,229.0986 A2.5,2.5 0 0 1 1177,231.5986 L1177,400.5 A2.5,2.5 0 0 1 1174.5,403 L971.5,403 A2.5,2.5 0 0 1 969,400.5 L969,209.5 A2.5,2.5 0 0 1 971.5,207 " fill="none" style="stroke:#000000;stroke-width:1.5;"/><line style="stroke:#000000;stroke-width:1.5;" x1="969" x2="1045.0205" y1="229.0986" y2="229.0986"/><text fill="#000000" font-family="sans-serif" font-size="14" font-weight="bold" lengthAdjust="spacing" textLength="63.0205" x="973" y="222.1318">customer</text></g><!--cluster base--><g id="cluster_base"><path d="M847.5,427 L880.4102,427 A3.75,3.75 0 0 1 882.9102,429.5 L889.9102,449.0986 L1254.5,449.0986 A2.5,2.5 0 0 1 1257,451.5986 L1257,915.5 A2.5,2.5 0 0 1 1254.5,918 L847.5,918 A2.5,2.5 0 0 1 845,915.5 L845,429.5 A2.5,2.5 0 0 1 847.5,427 " fill="none" style="stroke:#000000;stroke-width:1.5;"/><line style="stroke:#000000;stroke-width:1.5;" x1="845" x2="889.9102" y1="449.0986" y2="449.0986"/><text fill="#000000" font-family="sans-serif" font-size="14" font-weight="bold" lengthAdjust="spacing" textLength="31.9102" x="849" y="442.1318">base</text></g><!--cluster products--><g id="cluster_products"><path d="M32.5,49 L157.1689,49 A3.75,3.75 0 0 1 159.6689,51.5 L166.6689,71.0986 L794.5,71.0986 A2.5,2.5 0 0 1 797,73.5986 L797,384 A2.5,2.5 0 0 1 794.5,386.5 L32.5,386.5 A2.5,2.5 0 0 1 30,384 L30,51.5 A2.5,2.5 0 0 1 32.5,49 " fill="none" style="stroke:#000000;stroke-width:1.5;"/><line style="stroke:#000000;stroke-width:1.5;" x1="30" x2="166.6689" y1="71.0986" y2="71.0986"/><text fill="#000000" font-family="sans-serif" font-size="14" font-weight="bold" lengthAdjust="spacing" textLength="123.6689" x="34" y="64.1318">products.products</text></g><!--class Customer--><g id="elem_Customer"><rect codeLine="3" fill="#F1F1F1" height="144.5918" id="Customer" rx="2.5" ry="2.5" style="stroke:#181818;stroke-width:0.5;" width="175.0234" x="985.5" y="242"/><ellipse cx="1038.4204" cy="258" fill="#ADD1B2" rx="11" ry="11" style="stroke:#181818;stroke-width:1.0;"/><path d="M1036.0767,257.8438 Q1036.0767,259.7188 1036.6548,260.7344 Q1037.2329,261.7344 1038.3892,261.7344 Q1039.7329,261.7344 1040.3892,259.7188 L1042.6548,260.1406 Q1041.5454,263.6719 1038.3735,263.6719 Q1036.0298,263.6719 1034.811,262.1875 Q1033.5923,260.7031 1033.5923,257.8438 Q1033.5923,252.125 1038.2954,252.125 Q1039.8423,252.125 1040.8735,252.9375 Q1041.9204,253.75 1042.4204,255.3594 L1040.1548,255.9063 Q1039.9204,255.0313 1039.436,254.5469 Q1038.9517,254.0469 1038.3267,254.0469 Q1036.0767,254.0469 1036.0767,257.8438 Z " fill="#000000"/><text fill="#000000" font-family="sans-serif" font-size="14" lengthAdjust="spacing" textLength="60.6826" x="1058.9204" y="263.0825">Customer</text><line style="stroke:#181818;stroke-width:0.5;" x1="986.5" x2="1159.5234" y1="274" y2="274"/><text fill="#000000" font-family="sans-serif" font-size="14" lengthAdjust="spacing" textLength="117.5029" x="991.5" y="291.1318">customer_id: None</text><text fill="#000000" font-family="sans-serif" font-size="14" lengthAdjust="spacing" textLength="76.2686" x="991.5" y="307.2305">name: None</text><text fill="#000000" font-family="sans-serif" font-size="14" lengthAdjust="spacing" textLength="64.5723" x="991.5" y="323.3291">orders: list</text><line style="stroke:#181818;stroke-width:0.5;" x1="986.5" x2="1159.5234" y1="330.2959" y2="330.2959"/><text fill="#000000" font-family="sans-serif" font-size="14" lengthAdjust="spacing" textLength="124.0928" x="991.5" y="347.4277">Customer() -&gt; None</text><text fill="#000000" font-family="sans-serif" font-size="14" lengthAdjust="spacing" textLength="163.0234" x="991.5" y="363.5264">add_order(Order) -&gt; None</text><text fill="#000000" font-family="sans-serif" font-size="14" lengthAdjust="spacing" textLength="140.4717" x="991.5" y="379.625">get_total_spent() -&gt; int</text></g><!--class Methods--><g id="elem_Methods"><rect codeLine="11" fill="#F1F1F1" height="80.1973" id="Methods" rx="2.5" ry="2.5" style="stroke:#181818;stroke-width:0.5;" width="175.7822" x="861" y="462"/><ellipse cx="917.793" cy="478" fill="#E3664A" rx="11" ry="11" style="stroke:#181818;stroke-width:1.0;"/><path d="M922.668,476.2344 Q922.668,478.7031 921.9805,480.1719 Q921.293,481.6406 920.1367,481.6406 Q918.9492,481.6406 918.9492,480.3281 L918.9492,480.2656 L918.9648,479.9375 L918.918,479.9375 Q918.6055,480.7188 918.0742,481.1875 Q917.5586,481.6406 916.9648,481.6406 Q916.0742,481.6406 915.5742,480.8125 Q915.0898,479.9688 915.0898,478.4375 Q915.0898,477.1094 915.4961,475.9219 Q915.9023,474.7344 916.5898,474.0469 Q917.2773,473.3594 918.1367,473.3594 Q918.6836,473.3594 919.0273,473.7188 Q919.3867,474.0781 919.4961,474.7969 L919.543,474.7969 L919.8086,473.5469 L920.9336,473.5469 L920.1211,477.75 Q919.7773,479.5 919.7773,480.0625 Q919.7773,480.3438 919.8555,480.4844 Q919.9492,480.625 920.1836,480.625 Q920.8086,480.625 921.1836,479.4375 Q921.5742,478.2344 921.5742,476.25 Q921.5742,474 920.6836,472.625 Q919.8086,471.2344 918.3555,471.2344 Q917.1211,471.2344 916.1992,472.1406 Q915.2773,473.0313 914.7773,474.6406 Q914.293,476.25 914.293,478.2344 Q914.293,480.7969 915.2305,482.2969 Q916.1836,483.7813 917.8086,483.7813 Q918.5898,483.7813 919.3086,483.4844 Q920.0273,483.2031 920.8711,482.4688 L921.4648,483.2813 Q920.5117,484.1094 919.6055,484.4688 Q918.7148,484.8438 917.7305,484.8438 Q916.3555,484.8438 915.3086,484.0313 Q914.2773,483.2344 913.7148,481.7188 Q913.1523,480.2031 913.1523,478.2344 Q913.1523,475.8594 913.793,474.0313 Q914.4336,472.1875 915.6211,471.1875 Q916.8086,470.1875 918.3711,470.1875 Q919.6836,470.1875 920.6523,470.9375 Q921.6211,471.6875 922.1367,473.0625 Q922.668,474.4375 922.668,476.2344 Z M919.0586,475.9844 Q919.0586,474.375 918.1523,474.375 Q917.6523,474.375 917.2461,474.9531 Q916.8398,475.5156 916.6055,476.4688 Q916.3867,477.4219 916.3867,478.4219 Q916.3867,480.5938 917.1523,480.5938 Q917.7461,480.5938 918.168,479.875 Q918.5898,479.1563 918.8242,477.8594 Q919.0586,476.5625 919.0586,475.9844 Z " fill="#000000"/><text fill="#000000" font-family="sans-serif" font-size="14" lengthAdjust="spacing" textLength="53.6963" x="938.293" y="483.0825">Methods</text><line style="stroke:#181818;stroke-width:0.5;" x1="862" x2="1035.7822" y1="494" y2="494"/><line style="stroke:#181818;stroke-width:0.5;" x1="862" x2="1035.7822" y1="502" y2="502"/><text fill="#000000" font-family="sans-serif" font-size="14" lengthAdjust="spacing" textLength="163.7822" x="867" y="519.1318">fancyFunc(Order) -&gt; None</text><text fill="#000000" font-family="sans-serif" font-size="14" lengthAdjust="spacing" textLength="127.9961" x="867" y="535.2305">funkyFunc() -&gt; None</text></g><!--class Order--><g id="elem_Order"><rect codeLine="15" fill="#F1F1F1" height="128.4932" id="Order" rx="2.5" ry="2.5" style="stroke:#181818;stroke-width:0.5;" width="159.4443" x="860.5" y="602"/><ellipse cx="918.0791" cy="618" fill="#ADD1B2" rx="11" ry="11" style="stroke:#181818;stroke-width:1.0;"/><path d="M915.7354,617.8438 Q915.7354,619.7188 916.3135,620.7344 Q916.8916,621.7344 918.0479,621.7344 Q919.3916,621.7344 920.0479,619.7188 L922.3135,620.1406 Q921.2041,623.6719 918.0322,623.6719 Q915.6885,623.6719 914.4697,622.1875 Q913.251,620.7031 913.251,617.8438 Q913.251,612.125 917.9541,612.125 Q919.501,612.125 920.5322,612.9375 Q921.5791,613.75 922.0791,615.3594 L919.8135,615.9063 Q919.5791,615.0313 919.0947,614.5469 Q918.6104,614.0469 917.9854,614.0469 Q915.7354,614.0469 915.7354,617.8438 Z " fill="#000000"/><text fill="#000000" font-family="sans-serif" font-size="14" lengthAdjust="spacing" textLength="35.7861" x="938.5791" y="623.0825">Order</text><line style="stroke:#181818;stroke-width:0.5;" x1="861.5" x2="1018.9443" y1="634" y2="634"/><text fill="#000000" font-family="sans-serif" font-size="14" lengthAdjust="spacing" textLength="92.6133" x="866.5" y="651.1318">order_id: None</text><text fill="#000000" font-family="sans-serif" font-size="14" lengthAdjust="spacing" textLength="87.9443" x="866.5" y="667.2305">product: None</text><text fill="#000000" font-family="sans-serif" font-size="14" lengthAdjust="spacing" textLength="90.2822" x="866.5" y="683.3291">quantity: None</text><line style="stroke:#181818;stroke-width:0.5;" x1="861.5" x2="1018.9443" y1="690.2959" y2="690.2959"/><text fill="#000000" font-family="sans-serif" font-size="14" lengthAdjust="spacing" textLength="147.4443" x="866.5" y="707.4277">Order(Product) -&gt; None</text><text fill="#000000" font-family="sans-serif" font-size="14" lengthAdjust="spacing" textLength="134.2305" x="866.5" y="723.5264">calculate_total() -&gt; int</text></g><!--class NewOrder--><g id="elem_NewOrder"><rect codeLine="22" fill="#F1F1F1" height="128.4932" id="NewOrder" rx="2.5" ry="2.5" style="stroke:#181818;stroke-width:0.5;" width="187.4512" x="1054.5" y="602"/><ellipse cx="1112.0791" cy="618" fill="#ADD1B2" rx="11" ry="11" style="stroke:#181818;stroke-width:1.0;"/><path d="M1109.7354,617.8438 Q1109.7354,619.7188 1110.3135,620.7344 Q1110.8916,621.7344 1112.0479,621.7344 Q1113.3916,621.7344 1114.0479,619.7188 L1116.3135,620.1406 Q1115.2041,623.6719 1112.0322,623.6719 Q1109.6885,623.6719 1108.4697,622.1875 Q1107.251,620.7031 1107.251,617.8438 Q1107.251,612.125 1111.9541,612.125 Q1113.501,612.125 1114.5322,612.9375 Q1115.5791,613.75 1116.0791,615.3594 L1113.8135,615.9063 Q1113.5791,615.0313 1113.0947,614.5469 Q1112.6104,614.0469 1111.9854,614.0469 Q1109.7354,614.0469 1109.7354,617.8438 Z " fill="#000000"/><text fill="#000000" font-family="sans-serif" font-size="14" lengthAdjust="spacing" textLength="63.793" x="1132.5791" y="623.0825">NewOrder</text><line style="stroke:#181818;stroke-width:0.5;" x1="1055.5" x2="1240.9512" y1="634" y2="634"/><text fill="#000000" font-family="sans-serif" font-size="14" lengthAdjust="spacing" textLength="92.6133" x="1060.5" y="651.1318">order_id: None</text><text fill="#000000" font-family="sans-serif" font-size="14" lengthAdjust="spacing" textLength="102.7236" x="1060.5" y="667.2305">product: Product</text><text fill="#000000" font-family="sans-serif" font-size="14" lengthAdjust="spacing" textLength="90.2822" x="1060.5" y="683.3291">quantity: None</text><line style="stroke:#181818;stroke-width:0.5;" x1="1055.5" x2="1240.9512" y1="690.2959" y2="690.2959"/><text fill="#000000" font-family="sans-serif" font-size="14" lengthAdjust="spacing" textLength="175.4512" x="1060.5" y="707.4277">NewOrder(Product) -&gt; None</text><text fill="#000000" font-family="sans-serif" font-size="14" lengthAdjust="spacing" textLength="134.2305" x="1060.5" y="723.5264">calculate_total() -&gt; int</text></g><!--class Product--><g id="elem_Product"><rect codeLine="29" fill="#F1F1F1" height="112.3945" id="Product" rx="2.5" ry="2.5" style="stroke:#181818;stroke-width:0.5;" width="133.0029" x="873.5" y="790"/><ellipse cx="912.2397" cy="806" fill="#A9DCDF" rx="11" ry="11" style="stroke:#181818;stroke-width:1.0;"/><path d="M917.4428,810.5 L915.0053,810.5 L914.2397,807.7656 L910.4584,807.7656 L909.6928,810.5 L907.2397,810.5 L910.9116,799.2969 L913.7709,799.2969 L917.4428,810.5 Z M912.3491,800.8125 Q912.2709,801.1563 912.0991,801.8594 Q911.9272,802.5469 910.9741,805.9219 L913.7241,805.9219 Q912.7553,802.5 912.5834,801.8281 Q912.4116,801.1563 912.3491,800.8125 Z " fill="#000000"/><text fill="#000000" font-family="sans-serif" font-size="14" font-style="italic" lengthAdjust="spacing" textLength="48.248" x="931.5152" y="811.0825">Product</text><line style="stroke:#181818;stroke-width:0.5;" x1="874.5" x2="1005.5029" y1="822" y2="822"/><text fill="#000000" font-family="sans-serif" font-size="14" lengthAdjust="spacing" textLength="106.627" x="879.5" y="839.1318">product_id: None</text><text fill="#000000" font-family="sans-serif" font-size="14" lengthAdjust="spacing" textLength="76.2686" x="879.5" y="855.2305">name: None</text><line style="stroke:#181818;stroke-width:0.5;" x1="874.5" x2="1005.5029" y1="862.1973" y2="862.1973"/><text fill="#000000" font-family="sans-serif" font-size="14" lengthAdjust="spacing" textLength="111.6582" x="879.5" y="879.3291">Product() -&gt; None</text><text fill="#000000" font-family="sans-serif" font-size="14" lengthAdjust="spacing" textLength="121.0029" x="879.5" y="895.4277">get_price() -&gt; None</text></g><!--class Methods--><g id="elem_Methods"><rect codeLine="35" fill="#F1F1F1" height="64.0986" id="Methods" rx="2.5" ry="2.5" style="stroke:#181818;stroke-width:0.5;" width="349.832" x="431" y="84"/><ellipse cx="574.8179" cy="100" fill="#E3664A" rx="11" ry="11" style="stroke:#181818;stroke-width:1.0;"/><path d="M579.6929,98.2344 Q579.6929,100.7031 579.0054,102.1719 Q578.3179,103.6406 577.1616,103.6406 Q575.9741,103.6406 575.9741,102.3281 L575.9741,102.2656 L575.9897,101.9375 L575.9429,101.9375 Q575.6304,102.7188 575.0991,103.1875 Q574.5835,103.6406 573.9897,103.6406 Q573.0991,103.6406 572.5991,102.8125 Q572.1147,101.9688 572.1147,100.4375 Q572.1147,99.1094 572.521,97.9219 Q572.9272,96.7344 573.6147,96.0469 Q574.3022,95.3594 575.1616,95.3594 Q575.7085,95.3594 576.0522,95.7188 Q576.4116,96.0781 576.521,96.7969 L576.5679,96.7969 L576.8335,95.5469 L577.9585,95.5469 L577.146,99.75 Q576.8022,101.5 576.8022,102.0625 Q576.8022,102.3438 576.8804,102.4844 Q576.9741,102.625 577.2085,102.625 Q577.8335,102.625 578.2085,101.4375 Q578.5991,100.2344 578.5991,98.25 Q578.5991,96 577.7085,94.625 Q576.8335,93.2344 575.3804,93.2344 Q574.146,93.2344 573.2241,94.1406 Q572.3022,95.0313 571.8022,96.6406 Q571.3179,98.25 571.3179,100.2344 Q571.3179,102.7969 572.2554,104.2969 Q573.2085,105.7813 574.8335,105.7813 Q575.6147,105.7813 576.3335,105.4844 Q577.0522,105.2031 577.896,104.4688 L578.4897,105.2813 Q577.5366,106.1094 576.6304,106.4688 Q575.7397,106.8438 574.7554,106.8438 Q573.3804,106.8438 572.3335,106.0313 Q571.3022,105.2344 570.7397,103.7188 Q570.1772,102.2031 570.1772,100.2344 Q570.1772,97.8594 570.8179,96.0313 Q571.4585,94.1875 572.646,93.1875 Q573.8335,92.1875 575.396,92.1875 Q576.7085,92.1875 577.6772,92.9375 Q578.646,93.6875 579.1616,95.0625 Q579.6929,96.4375 579.6929,98.2344 Z M576.0835,97.9844 Q576.0835,96.375 575.1772,96.375 Q574.6772,96.375 574.271,96.9531 Q573.8647,97.5156 573.6304,98.4688 Q573.4116,99.4219 573.4116,100.4219 Q573.4116,102.5938 574.1772,102.5938 Q574.771,102.5938 575.1929,101.875 Q575.6147,101.1563 575.8491,99.8594 Q576.0835,98.5625 576.0835,97.9844 Z " fill="#000000"/><text fill="#000000" font-family="sans-serif" font-size="14" lengthAdjust="spacing" textLength="53.6963" x="595.3179" y="105.0825">Methods</text><line style="stroke:#181818;stroke-width:0.5;" x1="432" x2="779.832" y1="116" y2="116"/><line style="stroke:#181818;stroke-width:0.5;" x1="432" x2="779.832" y1="124" y2="124"/><text fill="#000000" font-family="sans-serif" font-size="14" lengthAdjust="spacing" textLength="337.832" x="437" y="141.1318">create_product(str) -&gt; PhysicalProduct | DigitalProduct</text></g><!--class Productfactory--><g id="elem_Productfactory"><rect codeLine="38" fill="#F1F1F1" height="64.0986" id="Productfactory" rx="2.5" ry="2.5" style="stroke:#181818;stroke-width:0.5;" width="349.832" x="46" y="84"/><ellipse cx="171.5352" cy="100" fill="#ADD1B2" rx="11" ry="11" style="stroke:#181818;stroke-width:1.0;"/><path d="M169.1914,99.8438 Q169.1914,101.7188 169.7695,102.7344 Q170.3477,103.7344 171.5039,103.7344 Q172.8477,103.7344 173.5039,101.7188 L175.7695,102.1406 Q174.6602,105.6719 171.4883,105.6719 Q169.1445,105.6719 167.9258,104.1875 Q166.707,102.7031 166.707,99.8438 Q166.707,94.125 171.4102,94.125 Q172.957,94.125 173.9883,94.9375 Q175.0352,95.75 175.5352,97.3594 L173.2695,97.9063 Q173.0352,97.0313 172.5508,96.5469 Q172.0664,96.0469 171.4414,96.0469 Q169.1914,96.0469 169.1914,99.8438 Z " fill="#000000"/><text fill="#000000" font-family="sans-serif" font-size="14" lengthAdjust="spacing" textLength="90.2617" x="192.0352" y="105.0825">Productfactory</text><line style="stroke:#181818;stroke-width:0.5;" x1="47" x2="394.832" y1="116" y2="116"/><line style="stroke:#181818;stroke-width:0.5;" x1="47" x2="394.832" y1="124" y2="124"/><text fill="#000000" font-family="sans-serif" font-size="14" lengthAdjust="spacing" textLength="337.832" x="52" y="141.1318">create_product(str) -&gt; PhysicalProduct | DigitalProduct</text></g><!--class DigitalProduct--><g id="elem_DigitalProduct"><rect codeLine="41" fill="#F1F1F1" height="112.3945" id="DigitalProduct" rx="2.5" ry="2.5" style="stroke:#181818;stroke-width:0.5;" width="162.5615" x="617.5" y="258.5"/><ellipse cx="652.0346" cy="274.5" fill="#ADD1B2" rx="11" ry="11" style="stroke:#181818;stroke-width:1.0;"/><path d="M649.6908,274.3438 Q649.6908,276.2188 650.2689,277.2344 Q650.8471,278.2344 652.0033,278.2344 Q653.3471,278.2344 654.0033,276.2188 L656.2689,276.6406 Q655.1596,280.1719 651.9877,280.1719 Q649.6439,280.1719 648.4252,278.6875 Q647.2064,277.2031 647.2064,274.3438 Q647.2064,268.625 651.9096,268.625 Q653.4564,268.625 654.4877,269.4375 Q655.5346,270.25 656.0346,271.8594 L653.7689,272.4063 Q653.5346,271.5313 653.0502,271.0469 Q652.5658,270.5469 651.9408,270.5469 Q649.6908,270.5469 649.6908,274.3438 Z " fill="#000000"/><text fill="#000000" font-family="sans-serif" font-size="14" lengthAdjust="spacing" textLength="87.1514" x="670.3756" y="279.5825">DigitalProduct</text><line style="stroke:#181818;stroke-width:0.5;" x1="618.5" x2="779.0615" y1="290.5" y2="290.5"/><text fill="#000000" font-family="sans-serif" font-size="14" lengthAdjust="spacing" textLength="71.5928" x="623.5" y="307.6318">price: None</text><text fill="#000000" font-family="sans-serif" font-size="14" lengthAdjust="spacing" textLength="93.3926" x="623.5" y="323.7305">discount: None</text><line style="stroke:#181818;stroke-width:0.5;" x1="618.5" x2="779.0615" y1="330.6973" y2="330.6973"/><text fill="#000000" font-family="sans-serif" font-size="14" lengthAdjust="spacing" textLength="150.5615" x="623.5" y="347.8291">DigitalProduct() -&gt; None</text><text fill="#000000" font-family="sans-serif" font-size="14" lengthAdjust="spacing" textLength="102.3203" x="623.5" y="363.9277">get_price() -&gt; int</text></g><!--class PhysicalProduct--><g id="elem_PhysicalProduct"><rect codeLine="47" fill="#F1F1F1" height="96.2959" id="PhysicalProduct" rx="2.5" ry="2.5" style="stroke:#181818;stroke-width:0.5;" width="175.7891" x="406" y="266.5"/><ellipse cx="440.5346" cy="282.5" fill="#ADD1B2" rx="11" ry="11" style="stroke:#181818;stroke-width:1.0;"/><path d="M438.1908,282.3438 Q438.1908,284.2188 438.7689,285.2344 Q439.3471,286.2344 440.5033,286.2344 Q441.8471,286.2344 442.5033,284.2188 L444.7689,284.6406 Q443.6596,288.1719 440.4877,288.1719 Q438.1439,288.1719 436.9252,286.6875 Q435.7064,285.2031 435.7064,282.3438 Q435.7064,276.625 440.4096,276.625 Q441.9564,276.625 442.9877,277.4375 Q444.0346,278.25 444.5346,279.8594 L442.2689,280.4063 Q442.0346,279.5313 441.5502,279.0469 Q441.0658,278.5469 440.4408,278.5469 Q438.1908,278.5469 438.1908,282.3438 Z " fill="#000000"/><text fill="#000000" font-family="sans-serif" font-size="14" lengthAdjust="spacing" textLength="100.3789" x="458.8756" y="287.5825">PhysicalProduct</text><line style="stroke:#181818;stroke-width:0.5;" x1="407" x2="580.7891" y1="298.5" y2="298.5"/><text fill="#000000" font-family="sans-serif" font-size="14" lengthAdjust="spacing" textLength="71.5928" x="412" y="315.6318">price: None</text><line style="stroke:#181818;stroke-width:0.5;" x1="407" x2="580.7891" y1="322.5986" y2="322.5986"/><text fill="#000000" font-family="sans-serif" font-size="14" lengthAdjust="spacing" textLength="163.7891" x="412" y="339.7305">PhysicalProduct() -&gt; None</text><text fill="#000000" font-family="sans-serif" font-size="14" lengthAdjust="spacing" textLength="121.0029" x="412" y="355.8291">get_price() -&gt; None</text></g><!--link Methods to Order--><g id="link_Methods_Order"><path codeLine="52" d="M940.25,542.12 C940.25,560.04 940.25,575.61 940.25,595.7 " fill="none" id="Methods-to-Order" style="stroke:#181818;stroke-width:1.0;"/><polygon fill="#181818" points="940.25,601.7,944.25,592.7,940.25,596.7,936.25,592.7,940.25,601.7" style="stroke:#181818;stroke-width:1.0;"/><text fill="#000000" font-family="sans-serif" font-size="13" lengthAdjust="spacing" textLength="109.1162" x="830.25" y="569.1038">used by fancyFunc</text></g><!--reverse link NewOrder to Product--><g id="link_NewOrder_Product"><path codeLine="53" d="M1116.83,742.03 C1116.83,787.31 1116.83,828 1116.83,828 C1116.83,828 1056.73,828 1006.6,828 " fill="none" id="NewOrder-backto-Product" style="stroke:#181818;stroke-width:1.0;"/><polygon fill="#181818" points="1116.83,730.03,1112.83,736.03,1116.83,742.03,1120.83,736.03,1116.83,730.03" style="stroke:#181818;stroke-width:1.0;"/></g><!--link NewOrder to Product--><g id="link_NewOrder_Product"><path codeLine="61" d="M1179.17,730.06 C1179.17,788.23 1179.17,865 1179.17,865 C1179.17,865 1083.39,865 1012.62,865 " fill="none" id="NewOrder-to-Product" style="stroke:#181818;stroke-width:1.0;"/><polygon fill="#181818" points="1006.62,865,1015.62,869,1011.62,865,1015.62,861,1006.62,865" style="stroke:#181818;stroke-width:1.0;"/><text fill="#000000" font-family="sans-serif" font-size="13" lengthAdjust="spacing" textLength="94.6816" x="1065.36" y="862.1938">used by __init__</text></g><!--link PhysicalProduct to Product--><g id="link_PhysicalProduct_Product"><path codeLine="54" d="M494,362.87 C494,497.2 494,865 494,865 C494,865 730.81,865 855.23,865 " fill="none" id="PhysicalProduct-to-Product" style="stroke:#181818;stroke-width:1.0;"/><polygon fill="none" points="873.23,865,855.23,859,855.23,871,873.23,865" style="stroke:#181818;stroke-width:1.0;"/></g><!--link DigitalProduct to Product--><g id="link_DigitalProduct_Product"><path codeLine="55" d="M699,370.92 C699,504.32 699,828 699,828 C699,828 783.87,828 855.19,828 " fill="none" id="DigitalProduct-to-Product" style="stroke:#181818;stroke-width:1.0;"/><polygon fill="none" points="873.19,828,855.19,822,855.19,834,873.19,828" style="stroke:#181818;stroke-width:1.0;"/></g><!--link Methods to PhysicalProduct--><g id="link_Methods_PhysicalProduct"><path codeLine="56" d="M506.5,148.33 C506.5,180.3 506.5,223.61 506.5,260.22 " fill="none" id="Methods-to-PhysicalProduct" style="stroke:#181818;stroke-width:1.0;"/><polygon fill="#181818" points="506.5,266.22,510.5,257.22,506.5,261.22,502.5,257.22,506.5,266.22" style="stroke:#181818;stroke-width:1.0;"/><text fill="#000000" font-family="sans-serif" font-size="13" lengthAdjust="spacing" textLength="135.8652" x="370.5" y="204.4738">used by create_product</text></g><!--link Methods to DigitalProduct--><g id="link_Methods_DigitalProduct"><path codeLine="57" d="M699,148.33 C699,178.11 699,216.91 699,252.5 " fill="none" id="Methods-to-DigitalProduct" style="stroke:#181818;stroke-width:1.0;"/><polygon fill="#181818" points="699,258.5,703,249.5,699,253.5,695,249.5,699,258.5" style="stroke:#181818;stroke-width:1.0;"/><text fill="#000000" font-family="sans-serif" font-size="13" lengthAdjust="spacing" textLength="135.8652" x="563" y="200.6138">used by create_product</text></g><!--link Customer to Order--><g id="link_Customer_Order"><path codeLine="58" d="M1045.75,387.33 C1045.75,490.29 1045.75,666 1045.75,666 C1045.75,666 1040.63,666 1025.61,666 " fill="none" id="Customer-to-Order" style="stroke:#181818;stroke-width:1.0;"/><polygon fill="#181818" points="1019.61,666,1028.61,670,1024.61,666,1028.61,662,1019.61,666" style="stroke:#181818;stroke-width:1.0;"/><text fill="#000000" font-family="sans-serif" font-size="13" lengthAdjust="spacing" textLength="108.4116" x="1046.75" y="536.9338">used by add_order</text></g><!--link Customer to Methods--><g id="link_Customer_Methods"><path codeLine="59" d="M1011.25,387.26 C1011.25,412.58 1011.25,434.06 1011.25,455.78 " fill="none" id="Customer-to-Methods" style="stroke:#181818;stroke-width:1.0;"/><polygon fill="#181818" points="1011.25,461.78,1015.25,452.78,1011.25,456.78,1007.25,452.78,1011.25,461.78" style="stroke:#181818;stroke-width:1.0;"/><text fill="#000000" font-family="sans-serif" font-size="13" lengthAdjust="spacing" textLength="211.0215" x="799.25" y="421.7138">used by add_order use of fancyFunc</text></g><!--link Customer to NewOrder--><g id="link_Customer_NewOrder"><path codeLine="60" d="M1107.5,387.33 C1107.5,450.57 1107.5,535.27 1107.5,595.82 " fill="none" id="Customer-to-NewOrder" style="stroke:#181818;stroke-width:1.0;"/><polygon fill="#181818" points="1107.5,601.82,1111.5,592.82,1107.5,596.82,1103.5,592.82,1107.5,601.82" style="stroke:#181818;stroke-width:1.0;"/><text fill="#000000" font-family="sans-serif" font-size="13" lengthAdjust="spacing" textLength="108.4116" x="1108.5" y="491.7738">used by add_order</text></g><!--link Order to Product--><g id="link_Order_Product"><path codeLine="62" d="M940,730.22 C940,749.71 940,764.95 940,783.87 " fill="none" id="Order-to-Product" style="stroke:#181818;stroke-width:1.0;"/><polygon fill="#181818" points="940,789.87,944,780.87,940,784.87,936,780.87,940,789.87" style="stroke:#181818;stroke-width:1.0;"/><text fill="#000000" font-family="sans-serif" font-size="13" lengthAdjust="spacing" textLength="94.6816" x="845" y="757.2338">used by __init__</text></g><!--link DigitalProduct to Methods--><g id="link_DigitalProduct_Methods"><path codeLine="63" d="M780.59,315 C844.71,315 923.25,315 923.25,315 C923.25,315 923.25,400.94 923.25,455.88 " fill="none" id="DigitalProduct-to-Methods" style="stroke:#181818;stroke-width:1.0;"/><polygon fill="#181818" points="923.25,461.88,927.25,452.88,923.25,456.88,919.25,452.88,923.25,461.88" style="stroke:#181818;stroke-width:1.0;"/><text fill="#000000" font-family="sans-serif" font-size="13" lengthAdjust="spacing" textLength="197.2915" x="775" y="330.3038">used by __init__ use of funkyFunc</text></g><!--link Productfactory to PhysicalProduct--><g id="link_Productfactory_PhysicalProduct"><path codeLine="64" d="M396.23,116 C409.87,116 418.5,116 418.5,116 C418.5,116 418.5,201.7 418.5,260.45 " fill="none" id="Productfactory-to-PhysicalProduct" style="stroke:#181818;stroke-width:1.0;"/><polygon fill="#181818" points="418.5,266.45,422.5,257.45,418.5,261.45,414.5,257.45,418.5,266.45" style="stroke:#181818;stroke-width:1.0;"/><text fill="#000000" font-family="sans-serif" font-size="13" lengthAdjust="spacing" textLength="135.8652" x="282.5" y="177.2838">used by create_product</text></g><!--link Productfactory to DigitalProduct--><g id="link_Productfactory_DigitalProduct"><path codeLine="65" d="M221,148.26 C221,191.53 221,263 221,263 C221,263 474.85,263 611.37,263 " fill="none" id="Productfactory-to-DigitalProduct" style="stroke:#181818;stroke-width:1.0;"/><polygon fill="#181818" points="617.37,263,608.37,259,612.37,263,608.37,267,617.37,263" style="stroke:#181818;stroke-width:1.0;"/><text fill="#000000" font-family="sans-serif" font-size="13" lengthAdjust="spacing" textLength="135.8652" x="225.82" y="260.1938">used by create_product</text></g><text fill="#888888" font-family="sans-serif" font-size="10" lengthAdjust="spacing" textLength="60.5957" x="580.6211" y="981.3799">Generated by</text><text fill="#888888" font-family="sans-serif" font-size="10" font-style="italic" lengthAdjust="spacing" textLength="73.3838" x="643.9951" y="981.3799">CodebaseGraph</text><!--SRC=[lLRBRgim4Dtp5UwEMubadqKthLfrSTly0PhOGs85RAvjLA6s_twDOru9452gRX0UZsVEEJE3kSiLx3CWXSPNOL1bo3WOt08zmXurII3L6EWZ5paeo4ZA1PeoHoALESY0fg0roPLa1JKVKgLijGEDArfe8pDKgqV_GZu3GcfhpDc6l4c1rYOWmsOX5KEbDpQBDdPP7mx_aEYXzW76OkSNlbVFxjOUJMoaWJJMEGfpEiQ52Ru34C9k62x505ht-8kM4DCEQ0A2bi-5e9Svaa8SJrkjzNjK1_TmCLnSXxlBtfzerlyA48QRiZ6ui-7svDR5GI6bHMfBTMBSvJe9vWq_vk3n6OSWrH4MeeATDWge8PFmV4o7phkCTelt3SzR85USOgyyOzNt2zs-TBk0AgoO-BtGmdSnjuTISqkqXlf5dlYUcyOmN87BLDuziPf8LVv6nlufhx7Lgb6KSKrb8Tf-x9-OKdgqzGQ8dz6vn77cCQF2LuOwifvJqxcfFe2CxCfsz8Dh0tGVHLUwE5WeH1HzFTmOygp4Fn1nLCAhV5fH-ttzWndxTESb7BcWvhT8SmFT6jSJ7OXSMOXC9hjnKQgwQ-Unw3VwHDWBuUEO2sxYE9Yy2s-FEAFpvyjUfsXKh-_uODad_FT6P7dYcPEII6d_0iaB2bJMxbpMwqV9i9BkHK5-MA__0m00]--></g></svg>